<?xml version="1.0" encoding="UTF-8" standalone="no"?>
<!-- Created with Inkscape (http://www.inkscape.org/) -->

<svg
   xmlns:dc="http://purl.org/dc/elements/1.1/"
   xmlns:cc="http://creativecommons.org/ns#"
   xmlns:rdf="http://www.w3.org/1999/02/22-rdf-syntax-ns#"
   xmlns:svg="http://www.w3.org/2000/svg"
   xmlns="http://www.w3.org/2000/svg"
   xmlns:sodipodi="http://sodipodi.sourceforge.net/DTD/sodipodi-0.dtd"
   xmlns:inkscape="http://www.inkscape.org/namespaces/inkscape"
   inkscape:export-ydpi="10160"
   inkscape:export-xdpi="10160"
   inkscape:export-filename="/home/mike/git/keyboard-pcbs/amoeba/dt.copper.png"
   sodipodi:docname="dt-logo.svg"
   inkscape:version="0.91 r13725"
   version="1.1"
   id="svg3350"
   height="17.716797"
   width="37.236328">
  <defs
     id="defs3352" />
  <sodipodi:namedview
     id="base"
     pagecolor="#669900"
     bordercolor="#666666"
     borderopacity="1.0"
     inkscape:pageopacity="0"
     inkscape:pageshadow="2"
     inkscape:zoom="7.5496065"
     inkscape:cx="14.607137"
     inkscape:cy="5.4710346"
     inkscape:document-units="px"
     inkscape:current-layer="layer6"
     showgrid="false"
     fit-margin-top="0"
     fit-margin-left="0"
     fit-margin-right="0"
     fit-margin-bottom="0"
     inkscape:window-width="1366"
     inkscape:window-height="724"
     inkscape:window-x="0"
     inkscape:window-y="44"
     inkscape:window-maximized="0"
     inkscape:snap-bbox="true"
     inkscape:snap-page="true"
     inkscape:snap-global="true"
     inkscape:object-paths="true" />
  <metadata
     id="metadata3355">
    <rdf:RDF>
      <cc:Work
         rdf:about="">
        <dc:format>image/svg+xml</dc:format>
        <dc:type
           rdf:resource="http://purl.org/dc/dcmitype/StillImage" />
        <dc:title></dc:title>
      </cc:Work>
    </rdf:RDF>
  </metadata>
  <g
     inkscape:groupmode="layer"
     id="layer24"
     inkscape:label="Pretty"
     transform="translate(14.690733,8.8956833)"
     style="display:none">
    <g
       inkscape:groupmode="layer"
       id="layer25"
       inkscape:label="Fab" />
    <g
       inkscape:groupmode="layer"
       id="layer26"
       inkscape:label="CrtYd" />
  </g>
  <g
     inkscape:groupmode="layer"
     id="layer17"
     inkscape:label="Legacy"
     transform="translate(14.690733,8.8956833)"
     style="display:none">
    <g
       inkscape:groupmode="layer"
       id="layer23"
       inkscape:label="Edge.Cuts" />
    <g
       inkscape:groupmode="layer"
       id="layer18"
       inkscape:label="User">
      <g
         inkscape:groupmode="layer"
         id="layer19"
         inkscape:label="Eco2.User" />
      <g
         inkscape:groupmode="layer"
         id="layer20"
         inkscape:label="Eco1.User" />
      <g
         inkscape:groupmode="layer"
         id="layer21"
         inkscape:label="Cmts.User" />
      <g
         inkscape:groupmode="layer"
         id="layer22"
         inkscape:label="Dwgs.User" />
    </g>
  </g>
  <g
     inkscape:groupmode="layer"
     id="layer1"
     inkscape:label="Mask"
     style="display:inline"
     transform="translate(14.690733,8.8956833)" />
  <g
     inkscape:groupmode="layer"
     id="layer6"
     inkscape:label="SilkS"
     style="display:inline"
     transform="translate(14.690733,8.8956833)">
    <g
       id="g10325">
      <path
         d="m 15.158876,-3.7706833 2.046875,0 c 0.958679,0 1.667836,0.1867218 2.125,0.5585938 0.457164,0.3684602 0.685547,0.9296149 0.685547,1.6835937 0,0.2558752 -0.03528,0.4872007 -0.103516,0.6953125 -0.06823,0.2081118 -0.159394,0.3948335 -0.27539,0.5585938 -0.112585,0.1603484 -0.244418,0.301008 -0.394532,0.4238281 -0.146701,0.1194084 -0.301083,0.2208543 -0.464843,0.3027343 0.378695,0.6072772 0.717351,1.1493198 1.017578,1.6269528 0.129643,0.204701 0.253638,0.403191 0.373047,0.597657 0.12282,0.194465 0.232598,0.369912 0.328125,0.523437 0.09553,0.153525 0.172965,0.275073 0.234375,0.367188 l 0.08789,0.144531 -1.759765,0 -1.623047,-2.8710939 -0.691407,0 0,2.8710939 -1.585937,0 0,-7.482422 z m -4.892578,-0.1171875 c 0.57316,0 1.070599,0.09116 1.490234,0.2753906 0.419636,0.1808185 0.766129,0.4415417 1.039063,0.7792969 0.276345,0.3343436 0.480226,0.7367155 0.613281,1.2109375 0.136467,0.4708103 0.205078,0.9986358 0.205078,1.5820313 0,0.5765719 -0.06861,1.1019494 -0.205078,1.5761722 -0.133055,0.474222 -0.336936,0.880994 -0.613281,1.21875 -0.276345,0.337755 -0.627734,0.598973 -1.050782,0.783203 -0.419634,0.18423 -0.91512,0.27539 -1.488281,0.27539 -0.57316,0 -1.071093,-0.09116 -1.49414,-0.27539 C 8.342756,3.3536807 7.993815,3.0924627 7.71747,2.7547077 7.444536,2.4169517 7.240655,2.0101797 7.104189,1.5359577 6.971133,1.0583233 6.90497,0.5300036 6.90497,-0.0499802 c 0,-0.5799837 0.066163,-1.1053615 0.199219,-1.5761719 0.136466,-0.4742218 0.342795,-0.878547 0.61914,-1.2128906 0.276345,-0.3343435 0.625287,-0.592619 1.044922,-0.7734375 0.423047,-0.1842301 0.921475,-0.2753906 1.498047,-0.2753906 z m -3.953125,-5.0078125 0,17.716797 16.232422,0 0,-17.716797 -16.232422,0 z"
         style="fill:#ffffff;fill-opacity:1;stroke:none;stroke-width:1;stroke-miterlimit:4;stroke-dasharray:none;stroke-opacity:1"
         id="path10096"
         inkscape:connector-curvature="0" />
      <path
         id="path10094"
         d="m 10.266298,-2.5675583 c -0.296815,0 -0.553137,0.057831 -0.771485,0.1738281 -0.218346,0.1159968 -0.399678,0.2836064 -0.542968,0.5019531 -0.139879,0.2183469 -0.244267,0.4830016 -0.3125,0.796875 -0.068234,0.3104619 -0.101563,0.6623455 -0.101563,1.0546876 0,0.3923418 0.033329,0.7447202 0.101563,1.0585937 0.068233,0.3104615 0.172621,0.5765755 0.3125,0.7949215 0.14329,0.214936 0.322174,0.380097 0.537109,0.496094 0.214935,0.115997 0.470763,0.173828 0.767578,0.173828 0.303639,0 0.562409,-0.057831 0.777344,-0.173828 0.218347,-0.115997 0.396736,-0.281158 0.533203,-0.496094 0.139879,-0.218346 0.241819,-0.48446 0.306641,-0.7949215 0.06823,-0.3138735 0.101562,-0.6662518 0.101562,-1.0585937 0,-0.3923421 -0.03333,-0.7442257 -0.101562,-1.0546876 -0.06482,-0.3138735 -0.166762,-0.578528 -0.306641,-0.796875 -0.136467,-0.2183467 -0.312408,-0.3859563 -0.527344,-0.5019531 -0.214935,-0.1159967 -0.47321,-0.1738281 -0.773437,-0.1738281 z"
         style="fill:#ffffff;fill-opacity:1;stroke:none;stroke-width:1;stroke-miterlimit:4;stroke-dasharray:none;stroke-opacity:1"
         inkscape:connector-curvature="0" />
      <path
         id="rect5832"
         d="m 16.744813,-2.4699021 0,2.0214844 0.429688,0 c 0.440105,0 0.756212,-0.0877236 0.947266,-0.2617187 0.191053,-0.1774068 0.287109,-0.4361769 0.287109,-0.7773438 0,-0.3548135 -0.10194,-0.607699 -0.306641,-0.7578125 -0.2047,-0.1501134 -0.523254,-0.2246094 -0.953125,-0.2246094 l -0.404297,0 z"
         style="fill:#ffffff;fill-opacity:1;stroke:none;stroke-width:1;stroke-miterlimit:4;stroke-dasharray:none;stroke-opacity:1"
         inkscape:connector-curvature="0" />
      <path
         d="m -11.860655,-3.7706833 4.3085935,0 0,1.3007812 -2.7226565,0 0,1.6425782 2.5332034,0 0,1.2988281 -2.5332034,0 0,1.9296875 2.7226565,0 0,1.310547 -4.3085935,0 0,-7.482422 z m -2.830078,-5.125 0,17.716797 14.259765,0 0,-5.109375 -1.65625,0 -1.6210935,-2.8710939 -0.6914063,0 0,2.8710939 -1.5859374,0 0,-7.482422 2.046875,0 c 0.958679,0 1.6658832,0.1867217 2.1230472,0.5585938 0.457163,0.3684601 0.685547,0.9296149 0.685546,1.6835937 0,0.2558752 -0.03333,0.4872007 -0.101562,0.6953125 -0.06823,0.2081118 -0.161347,0.3948335 -0.277344,0.5585938 -0.112585,0.1603484 -0.244418,0.301008 -0.394531,0.4238281 -0.146702,0.1194084 -0.301084,0.2208544 -0.464844,0.3027343 0.378696,0.6072772 0.717352,1.1493198 1.017578,1.6269528 0.129644,0.204701 0.255592,0.403191 0.375,0.597657 0.12282,0.194465 0.230646,0.369912 0.326172,0.523437 0.088419,0.142096 0.159444,0.250517 0.21875,0.339844 l 0,-12.435547 -14.259765,0 z"
         style="fill:#ffffff;fill-opacity:1;stroke:none;stroke-width:1;stroke-miterlimit:4;stroke-dasharray:none;stroke-opacity:1"
         id="path10080"
         inkscape:connector-curvature="0" />
      <path
         id="rect10046"
         d="m -4.3997178,-2.4699021 0,2.0214844 0.4296876,0 c 0.440105,0 0.7562116,-0.087724 0.9472656,-0.2617187 0.1910526,-0.1774066 0.2851566,-0.4361769 0.2851566,-0.7773438 0,-0.3548135 -0.101941,-0.607699 -0.306641,-0.7578125 -0.2047,-0.1501134 -0.5213019,-0.2246094 -0.9511719,-0.2246094 l -0.4042969,0 z"
         style="fill:#ffffff;fill-opacity:1;stroke:none;stroke-width:1;stroke-miterlimit:4;stroke-dasharray:none;stroke-opacity:1"
         inkscape:connector-curvature="0" />
      <path
         d="m 0.625673,-3.7706833 2.046875,0 c 0.958679,0 1.665883,0.1867217 2.123047,0.5585938 0.457163,0.3684601 0.685547,0.9296149 0.685547,1.6835937 0,0.2558752 -0.03333,0.4872007 -0.101563,0.6953125 -0.06823,0.2081118 -0.161347,0.3948335 -0.277344,0.5585938 C 4.98965,-0.1142411 4.859771,0.0264185 4.709657,0.1492386 4.562955,0.268647 4.40662,0.370093 4.24286,0.4519729 c 0.378696,0.6072772 0.719305,1.1493198 1.019532,1.6269528 0.129643,0.204701 0.253638,0.403191 0.373047,0.597657 0.12282,0.194465 0.232598,0.369912 0.328124,0.523437 0.095531,0.153525 0.172965,0.275073 0.234376,0.367188 l 0.08789,0.144531 -1.761719,0 -1.621093,-2.8710939 -0.691407,0 0,2.8710939 -1.585937,0 0,-7.482422 z m -1.056641,-5.125 0,12.435547 c 0.00477,0.00718 0.013007,0.020486 0.017578,0.027344 l 0.085938,0.144531 -0.103516,0 0,5.109375 6.837891,0 0,-17.716797 -6.837891,0 z"
         style="fill:#ffffff;fill-opacity:1;stroke:none;stroke-width:1;stroke-miterlimit:4;stroke-dasharray:none;stroke-opacity:1"
         id="path10087"
         inkscape:connector-curvature="0" />
      <path
         id="rect10050"
         d="m 2.21161,-2.4699021 0,2.0214844 0.429688,0 c 0.440105,0 0.756212,-0.087724 0.947265,-0.2617187 0.191055,-0.1774068 0.28711,-0.4361769 0.28711,-0.7773438 0,-0.3548135 -0.103894,-0.607699 -0.308594,-0.7578125 -0.2047,-0.1501134 -0.521301,-0.2246094 -0.951172,-0.2246094 l -0.404297,0 z"
         style="fill:#ffffff;fill-opacity:1;stroke:none;stroke-width:1;stroke-miterlimit:4;stroke-dasharray:none;stroke-opacity:1"
         inkscape:connector-curvature="0" />
    </g>
  </g>
  <g
     inkscape:groupmode="layer"
     id="layer10"
     inkscape:label="Paste"
     transform="translate(14.690733,8.8956833)"
     style="display:none" />
  <g
     inkscape:groupmode="layer"
     id="layer5"
     inkscape:label="Adhes"
     style="display:none"
     transform="translate(14.690733,8.8956833)" />
  <g
     inkscape:groupmode="layer"
     id="layer2"
     inkscape:label="Cu"
     transform="translate(16.46239,10.352064)"
     style="display:inline" />
</svg>
