<?xml version="1.0" encoding="UTF-8" standalone="no"?>
<!-- Created with Inkscape (http://www.inkscape.org/) -->

<svg
   xmlns:dc="http://purl.org/dc/elements/1.1/"
   xmlns:cc="http://creativecommons.org/ns#"
   xmlns:rdf="http://www.w3.org/1999/02/22-rdf-syntax-ns#"
   xmlns:svg="http://www.w3.org/2000/svg"
   xmlns="http://www.w3.org/2000/svg"
   xmlns:sodipodi="http://sodipodi.sourceforge.net/DTD/sodipodi-0.dtd"
   xmlns:inkscape="http://www.inkscape.org/namespaces/inkscape"
   inkscape:export-ydpi="10160"
   inkscape:export-xdpi="10160"
   inkscape:export-filename="/home/mike/git/keyboard-pcbs/amoeba/dt.copper.png"
   sodipodi:docname="label_fuse.svg"
   inkscape:version="0.91 r13725"
   version="1.1"
   id="svg3350"
   height="14.173228"
   width="53.106014">
  <sodipodi:namedview
     id="base"
     pagecolor="#669900"
     bordercolor="#666666"
     borderopacity="1.0"
     inkscape:pageopacity="0"
     inkscape:pageshadow="2"
     inkscape:zoom="10.676756"
     inkscape:cx="25.483591"
     inkscape:cy="9.4956862"
     inkscape:document-units="px"
     inkscape:current-layer="layer6"
     showgrid="false"
     fit-margin-top="0"
     fit-margin-left="0"
     fit-margin-right="0"
     fit-margin-bottom="0"
     inkscape:window-width="1366"
     inkscape:window-height="724"
     inkscape:window-x="0"
     inkscape:window-y="44"
     inkscape:window-maximized="0"
     inkscape:snap-bbox="true"
     inkscape:snap-page="true"
     inkscape:snap-global="true"
     inkscape:object-paths="true" />
  <defs
     id="defs3352" />
  <metadata
     id="metadata3355">
    <rdf:RDF>
      <cc:Work
         rdf:about="">
        <dc:format>image/svg+xml</dc:format>
        <dc:type
           rdf:resource="http://purl.org/dc/dcmitype/StillImage" />
        <dc:title></dc:title>
      </cc:Work>
    </rdf:RDF>
  </metadata>
  <g
     style="display:none"
     transform="translate(11.135153,7.7249999)"
     inkscape:label="Pretty"
     id="layer24"
     inkscape:groupmode="layer">
    <g
       inkscape:label="Fab"
       id="layer25"
       inkscape:groupmode="layer" />
    <g
       inkscape:label="CrtYd"
       id="layer26"
       inkscape:groupmode="layer" />
  </g>
  <g
     style="display:none"
     transform="translate(11.135153,7.7249999)"
     inkscape:label="Legacy"
     id="layer17"
     inkscape:groupmode="layer">
    <g
       inkscape:label="Edge.Cuts"
       id="layer23"
       inkscape:groupmode="layer" />
    <g
       inkscape:label="User"
       id="layer18"
       inkscape:groupmode="layer">
      <g
         inkscape:label="Eco2.User"
         id="layer19"
         inkscape:groupmode="layer" />
      <g
         inkscape:label="Eco1.User"
         id="layer20"
         inkscape:groupmode="layer" />
      <g
         inkscape:label="Cmts.User"
         id="layer21"
         inkscape:groupmode="layer" />
      <g
         inkscape:label="Dwgs.User"
         id="layer22"
         inkscape:groupmode="layer" />
    </g>
  </g>
  <g
     transform="translate(11.135153,7.7249999)"
     style="display:inline"
     inkscape:label="Mask"
     id="layer1"
     inkscape:groupmode="layer" />
  <g
     transform="translate(11.135153,7.7249999)"
     style="display:inline"
     inkscape:label="SilkS"
     id="layer6"
     inkscape:groupmode="layer">
    <path
       id="path10141"
       style="fill:#ffffff;stroke:none;stroke-width:3;stroke-miterlimit:4;stroke-dasharray:none;stroke-opacity:1"
       d="m 33.259378,-6.0589843 2.777344,0 3.492187,10.7519534 -2.291015,0 -0.732422,-2.5488284 -3.691406,0 -0.740235,2.5488284 -2.292968,0 3.478515,-10.7519534 z m -3.746093,-1.6660156 0,14.173828 12.457031,0 0,-14.173828 -12.457031,0 z" />
    <path
       style="fill:#ffffff;stroke:none;stroke-width:3;stroke-miterlimit:4;stroke-dasharray:none;stroke-opacity:1"
       d="m 34.659769,-4.5492187 c -0.01953,0.107422 -0.04785,0.234375 -0.08203,0.3808594 -0.0293,0.1464844 -0.06543,0.3027344 -0.109375,0.46875 -0.03906,0.1611328 -0.08105,0.3242188 -0.125,0.4902344 -0.04395,0.1660156 -0.08398,0.3222656 -0.123047,0.46875 -0.03906,0.1464844 -0.07715,0.2763672 -0.111328,0.3886719 -0.0293,0.1123047 -0.04981,0.1943359 -0.06445,0.2480469 l -0.681641,2.34375 2.615234,0 -0.689453,-2.34375 c -0.0293,-0.087891 -0.07227,-0.2314454 -0.130859,-0.4316407 -0.05859,-0.2001953 -0.123047,-0.4189453 -0.191407,-0.6582031 -0.06348,-0.2441406 -0.125,-0.4882812 -0.183593,-0.7324219 -0.05859,-0.2441406 -0.09863,-0.4521484 -0.123047,-0.6230469 z"
       id="rect10013" />
    <path
       style="fill:#ffffff;stroke:none;stroke-width:3;stroke-miterlimit:4;stroke-dasharray:none;stroke-opacity:1"
       d="M 0 0 L 0 14.173828 L 19.107422 14.173828 L 19.107422 0 L 0 0 z M 3.8554688 1.7109375 L 6.9472656 1.7109375 L 9.2617188 9.8984375 L 9.3046875 9.8984375 L 11.765625 1.7109375 L 14.857422 1.7109375 L 14.857422 12.417969 L 12.740234 12.417969 L 12.740234 7.3496094 L 12.740234 6.9179688 C 12.745134 6.7568358 12.749036 6.5869141 12.753906 6.40625 C 12.758806 6.2255859 12.764641 6.0410156 12.769531 5.8554688 C 12.779331 5.6699218 12.786126 5.4902344 12.791016 5.3144531 C 12.810546 4.9042969 12.827147 4.4775391 12.841797 4.0332031 L 12.783203 4.0332031 L 10.25 12.417969 L 8.1621094 12.417969 L 5.8105469 4.0175781 L 5.7460938 4.0175781 C 5.7753907 4.4667969 5.7988274 4.9023438 5.8183594 5.3222656 C 5.8281294 5.5029297 5.8349607 5.6884767 5.8398438 5.8789062 C 5.8496137 6.0693359 5.8583993 6.2558594 5.8632812 6.4414062 C 5.8730512 6.6269531 5.8769531 6.8056641 5.8769531 6.9765625 C 5.8818331 7.1474609 5.8847656 7.3007812 5.8847656 7.4375 L 5.8847656 12.417969 L 3.8554688 12.417969 L 3.8554688 1.7109375 z "
       transform="translate(-11.135153,-7.7249999)"
       id="rect10100" />
    <path
       style="fill:#ffffff;stroke:none;stroke-width:3;stroke-miterlimit:4;stroke-dasharray:none;stroke-opacity:1"
       d="M 19.107422 0 L 19.107422 14.173828 L 28.566406 14.173828 L 28.566406 0 L 19.107422 0 z M 24.283203 1.5566406 C 24.795898 1.5566406 25.254883 1.6279297 25.660156 1.7695312 C 26.070312 1.9111329 26.418945 2.1132812 26.707031 2.3769531 C 26.995117 2.6357422 27.215819 2.9511719 27.367188 3.3222656 C 27.523438 3.6933594 27.601563 4.1103515 27.601562 4.5742188 C 27.601562 4.9941406 27.527342 5.3974609 27.380859 5.7832031 C 27.234375 6.1640625 27.035156 6.5390626 26.78125 6.9101562 C 26.527344 7.2763672 26.231445 7.6435547 25.894531 8.0097656 C 25.5625 8.3710938 25.205078 8.7392578 24.824219 9.1152344 L 23.535156 10.412109 L 23.535156 10.513672 L 27.900391 10.513672 L 27.900391 12.417969 L 20.716797 12.417969 L 20.716797 10.84375 L 23.236328 8.1269531 C 23.553711 7.7851562 23.84082 7.4697266 24.099609 7.1816406 C 24.358398 6.8935547 24.580078 6.6132811 24.765625 6.3398438 C 24.951172 6.0664061 25.09668 5.7871095 25.199219 5.5039062 C 25.301758 5.2207032 25.351563 4.9169921 25.351562 4.5898438 C 25.351562 4.2285156 25.243163 3.9462891 25.023438 3.7460938 C 24.808594 3.5458983 24.516602 3.4472656 24.150391 3.4472656 C 23.764648 3.4472656 23.393555 3.5419926 23.037109 3.7324219 C 22.680664 3.9228516 22.308594 4.1933594 21.917969 4.5449219 L 20.6875 3.0878906 C 20.907227 2.8876953 21.135742 2.6962891 21.375 2.515625 C 21.614258 2.3300781 21.87793 2.1669922 22.166016 2.0253906 C 22.454102 1.8837891 22.772461 1.7724609 23.119141 1.6894531 C 23.46582 1.6015621 23.853516 1.5566406 24.283203 1.5566406 z "
       transform="translate(-11.135153,-7.7249999)"
       id="rect10102" />
    <path
       style="fill:#ffffff;stroke:none;stroke-width:3;stroke-miterlimit:4;stroke-dasharray:none;stroke-opacity:1"
       d="M 28.566406 0 L 28.566406 14.173828 L 32.21875 14.173828 L 32.21875 0 L 28.566406 0 z M 30.523438 10.126953 C 30.694336 10.126953 30.854492 10.147466 31.005859 10.191406 C 31.162109 10.235356 31.298828 10.306641 31.416016 10.404297 C 31.533203 10.501957 31.626954 10.631836 31.695312 10.792969 C 31.763672 10.949219 31.796875 11.141602 31.796875 11.371094 C 31.796875 11.59082 31.763676 11.779297 31.695312 11.935547 C 31.626953 12.091797 31.533203 12.22168 31.416016 12.324219 C 31.298828 12.426758 31.162109 12.499023 31.005859 12.542969 C 30.854492 12.591799 30.694335 12.617187 30.523438 12.617188 C 30.342772 12.617188 30.173828 12.591799 30.017578 12.542969 C 29.861328 12.499019 29.724609 12.426758 29.607422 12.324219 C 29.490234 12.22168 29.398438 12.091797 29.330078 11.935547 C 29.266598 11.779297 29.234375 11.59082 29.234375 11.371094 C 29.234375 11.141602 29.266608 10.949219 29.330078 10.792969 C 29.398438 10.631836 29.490234 10.501953 29.607422 10.404297 C 29.724609 10.306637 29.861328 10.235352 30.017578 10.191406 C 30.173828 10.147456 30.342773 10.126953 30.523438 10.126953 z "
       transform="translate(-11.135153,-7.7249999)"
       id="rect10104" />
    <path
       style="fill:#ffffff;stroke:none;stroke-width:3;stroke-miterlimit:4;stroke-dasharray:none;stroke-opacity:1"
       d="M 32.21875 0 L 32.21875 14.173828 L 40.648438 14.173828 L 40.648438 0 L 32.21875 0 z M 33.900391 1.7109375 L 39.554688 1.7109375 L 39.554688 3.6289062 L 35.863281 3.6289062 L 35.6875 5.7324219 C 35.84375 5.6982419 36.023438 5.663086 36.228516 5.6289062 C 36.438477 5.5947262 36.708008 5.578125 37.035156 5.578125 C 37.494141 5.578125 37.920898 5.649414 38.316406 5.7910156 C 38.711914 5.9326172 39.056641 6.1386719 39.349609 6.4121094 C 39.642578 6.6855469 39.871094 7.0273438 40.037109 7.4375 C 40.203125 7.8427734 40.287109 8.3105469 40.287109 8.8378906 C 40.287109 9.4189453 40.196289 9.9404299 40.015625 10.404297 C 39.834961 10.863281 39.568359 11.253906 39.216797 11.576172 C 38.865234 11.893555 38.428711 12.137695 37.90625 12.308594 C 37.388672 12.479492 36.792969 12.564453 36.119141 12.564453 C 35.850586 12.564453 35.583984 12.553717 35.320312 12.529297 C 35.056641 12.504887 34.802734 12.466797 34.558594 12.417969 C 34.319336 12.374019 34.09082 12.31543 33.871094 12.242188 C 33.65625 12.168947 33.460938 12.083984 33.285156 11.986328 L 33.285156 10.03125 C 33.456055 10.12891 33.652344 10.220703 33.876953 10.308594 C 34.101562 10.391604 34.334961 10.46582 34.574219 10.529297 C 34.818359 10.587887 35.0625 10.636719 35.306641 10.675781 C 35.550781 10.709961 35.782227 10.726562 36.001953 10.726562 C 36.65625 10.726562 37.154297 10.592773 37.496094 10.324219 C 37.837891 10.050781 38.007812 9.618164 38.007812 9.0273438 C 38.007812 8.5000046 37.84082 8.0996094 37.503906 7.8261719 C 37.171875 7.5478516 36.655273 7.4082031 35.957031 7.4082031 C 35.830078 7.4082031 35.693359 7.4169936 35.546875 7.4316406 C 35.405273 7.4462896 35.264648 7.4658204 35.123047 7.4902344 C 34.986328 7.5146484 34.853516 7.5410155 34.726562 7.5703125 C 34.599609 7.5947265 34.49121 7.6210936 34.398438 7.6503906 L 33.496094 7.1679688 L 33.900391 1.7109375 z "
       transform="translate(-11.135153,-7.7249999)"
       id="rect10106" />
  </g>
  <g
     style="display:none"
     transform="translate(11.135153,7.7249999)"
     inkscape:label="Paste"
     id="layer10"
     inkscape:groupmode="layer" />
  <g
     transform="translate(11.135153,7.7249999)"
     style="display:none"
     inkscape:label="Adhes"
     id="layer5"
     inkscape:groupmode="layer" />
  <g
     style="display:inline"
     transform="translate(12.906809,9.1813809)"
     inkscape:label="Cu"
     id="layer2"
     inkscape:groupmode="layer" />
</svg>
