G04 #@! TF.FileFunction,Soldermask,Top*
%FSLAX46Y46*%
G04 Gerber Fmt 4.6, Leading zero omitted, Abs format (unit mm)*
G04 Created by KiCad (PCBNEW 4.0.4-1.fc24-product) date Thu May  4 13:36:19 2017*
%MOMM*%
%LPD*%
G01*
G04 APERTURE LIST*
%ADD10C,0.100000*%
%ADD11R,1.300000X1.600000*%
%ADD12R,3.399740X2.000200*%
%ADD13R,2.500580X6.000700*%
%ADD14R,2.099260X1.700480*%
%ADD15R,1.700480X2.099260*%
%ADD16R,3.100000X3.600000*%
%ADD17R,1.600000X1.150000*%
%ADD18R,1.150000X1.600000*%
%ADD19R,1.197560X1.197560*%
%ADD20C,2.749500*%
%ADD21C,9.000000*%
%ADD22C,1.100000*%
%ADD23R,2.127200X2.127200*%
%ADD24O,2.127200X2.127200*%
%ADD25R,2.127200X2.432000*%
%ADD26O,2.127200X2.432000*%
%ADD27R,2.200860X1.200100*%
%ADD28R,1.200100X2.200860*%
%ADD29R,1.600000X1.300000*%
%ADD30R,4.057600X2.432000*%
%ADD31R,1.416000X2.432000*%
%ADD32R,1.950000X1.000000*%
%ADD33R,0.850000X1.850000*%
%ADD34R,1.000000X1.900000*%
%ADD35R,1.900000X1.000000*%
%ADD36C,1.700000*%
%ADD37R,1.700000X1.700000*%
%ADD38R,1.797000X1.797000*%
%ADD39C,1.797000*%
%ADD40R,2.580000X2.000000*%
%ADD41C,4.700000*%
%ADD42C,3.400000*%
%ADD43R,2.432000X2.432000*%
%ADD44C,2.400000*%
G04 APERTURE END LIST*
D10*
G36*
X63725408Y-95068160D02*
X63725408Y-98599796D01*
X65673403Y-98599796D01*
X68749184Y-95068160D01*
X68759418Y-95076380D01*
X68769629Y-95084643D01*
X68779817Y-95092951D01*
X68789980Y-95101309D01*
X68800117Y-95109718D01*
X68810227Y-95118182D01*
X68820309Y-95126704D01*
X68830362Y-95135287D01*
X68840384Y-95143935D01*
X68850374Y-95152649D01*
X68860332Y-95161433D01*
X68870255Y-95170291D01*
X68880144Y-95179225D01*
X68889996Y-95188238D01*
X68899811Y-95197334D01*
X68909588Y-95206515D01*
X68920099Y-95216504D01*
X68930531Y-95226527D01*
X68940884Y-95236583D01*
X68951157Y-95246674D01*
X68961351Y-95256797D01*
X68971466Y-95266955D01*
X68981501Y-95277146D01*
X68991457Y-95287371D01*
X69001334Y-95297630D01*
X69011131Y-95307922D01*
X69020850Y-95318248D01*
X69030488Y-95328608D01*
X69040048Y-95339001D01*
X69049528Y-95349428D01*
X69058929Y-95359889D01*
X69068251Y-95370383D01*
X69077493Y-95380911D01*
X69086656Y-95391473D01*
X69095739Y-95402068D01*
X69104744Y-95412697D01*
X69113669Y-95423360D01*
X69122514Y-95434056D01*
X69131281Y-95444786D01*
X69139968Y-95455550D01*
X69148576Y-95466347D01*
X69157104Y-95477178D01*
X69165553Y-95488043D01*
X69173923Y-95498942D01*
X69182213Y-95509874D01*
X69190425Y-95520839D01*
X69198556Y-95531839D01*
X69206609Y-95542872D01*
X69214582Y-95553938D01*
X69222476Y-95565039D01*
X69230291Y-95576172D01*
X69238026Y-95587340D01*
X69245682Y-95598541D01*
X69253258Y-95609776D01*
X69260756Y-95621045D01*
X69268173Y-95632347D01*
X69275512Y-95643683D01*
X69282771Y-95655052D01*
X69289951Y-95666456D01*
X69297052Y-95677892D01*
X69304073Y-95689363D01*
X69311015Y-95700867D01*
X69317878Y-95712405D01*
X69324661Y-95723976D01*
X69331366Y-95735581D01*
X69337990Y-95747220D01*
X69344536Y-95758892D01*
X69351002Y-95770598D01*
X69357388Y-95782338D01*
X69363696Y-95794111D01*
X69369924Y-95805918D01*
X69376073Y-95817758D01*
X69382142Y-95829632D01*
X69388132Y-95841540D01*
X69394043Y-95853481D01*
X69399874Y-95865456D01*
X69405627Y-95877465D01*
X69411299Y-95889507D01*
X69416893Y-95901583D01*
X69422407Y-95913693D01*
X69427842Y-95925836D01*
X69433197Y-95938013D01*
X69438473Y-95950223D01*
X69443670Y-95962467D01*
X69448788Y-95974745D01*
X69453826Y-95987056D01*
X69458785Y-95999401D01*
X69463664Y-96011779D01*
X69468464Y-96024191D01*
X69473185Y-96036637D01*
X69477827Y-96049116D01*
X69482389Y-96061629D01*
X69486872Y-96074176D01*
X69491275Y-96086756D01*
X69495599Y-96099370D01*
X69499844Y-96112017D01*
X69504010Y-96124698D01*
X69508096Y-96137413D01*
X69512103Y-96150161D01*
X69516030Y-96162943D01*
X69519878Y-96175758D01*
X69523647Y-96188607D01*
X69527337Y-96201490D01*
X69530947Y-96214406D01*
X69534477Y-96227356D01*
X69537929Y-96240339D01*
X69541301Y-96253356D01*
X69544594Y-96266407D01*
X69547807Y-96279491D01*
X69550941Y-96292609D01*
X69553996Y-96305760D01*
X69556972Y-96318945D01*
X69559868Y-96332163D01*
X69562685Y-96345416D01*
X69565422Y-96358701D01*
X69568080Y-96372021D01*
X69570659Y-96385374D01*
X69573158Y-96398760D01*
X69575578Y-96412180D01*
X69577919Y-96425634D01*
X69580180Y-96439121D01*
X69582362Y-96452642D01*
X69584465Y-96466196D01*
X69586488Y-96479784D01*
X69588432Y-96493406D01*
X69590297Y-96507061D01*
X69592082Y-96520750D01*
X69593788Y-96534472D01*
X69595415Y-96548228D01*
X69596962Y-96562018D01*
X69598430Y-96575841D01*
X69599819Y-96589697D01*
X69601128Y-96603587D01*
X69602358Y-96617511D01*
X69603508Y-96631468D01*
X69604580Y-96645459D01*
X69605572Y-96659484D01*
X69606484Y-96673542D01*
X69607317Y-96687633D01*
X69608071Y-96701759D01*
X69608746Y-96715917D01*
X69609341Y-96730110D01*
X69609856Y-96744335D01*
X69610293Y-96758595D01*
X69610650Y-96772888D01*
X69610928Y-96787214D01*
X69611126Y-96801574D01*
X69611245Y-96815968D01*
X69611285Y-96830395D01*
X69611245Y-96844934D01*
X69611126Y-96859436D01*
X69610929Y-96873902D01*
X69610652Y-96888332D01*
X69610295Y-96902726D01*
X69609860Y-96917084D01*
X69609346Y-96931406D01*
X69608752Y-96945691D01*
X69608079Y-96959940D01*
X69607327Y-96974154D01*
X69606496Y-96988331D01*
X69605586Y-97002472D01*
X69604597Y-97016577D01*
X69603528Y-97030646D01*
X69602380Y-97044678D01*
X69601154Y-97058675D01*
X69599848Y-97072635D01*
X69598462Y-97086559D01*
X69596998Y-97100447D01*
X69595455Y-97114299D01*
X69593832Y-97128115D01*
X69592130Y-97141895D01*
X69590350Y-97155639D01*
X69588490Y-97169346D01*
X69586550Y-97183017D01*
X69584532Y-97196653D01*
X69582435Y-97210252D01*
X69580258Y-97223815D01*
X69578002Y-97237342D01*
X69575667Y-97250832D01*
X69573253Y-97264287D01*
X69570760Y-97277706D01*
X69568188Y-97291088D01*
X69565536Y-97304434D01*
X69562805Y-97317744D01*
X69559996Y-97331018D01*
X69557107Y-97344256D01*
X69554138Y-97357458D01*
X69551091Y-97370624D01*
X69547965Y-97383753D01*
X69544759Y-97396846D01*
X69541474Y-97409904D01*
X69538110Y-97422925D01*
X69534667Y-97435910D01*
X69531145Y-97448859D01*
X69527544Y-97461772D01*
X69523863Y-97474648D01*
X69520104Y-97487489D01*
X69516265Y-97500293D01*
X69512347Y-97513062D01*
X69508350Y-97525794D01*
X69504274Y-97538490D01*
X69500118Y-97551150D01*
X69495884Y-97563774D01*
X69491570Y-97576362D01*
X69487177Y-97588913D01*
X69482705Y-97601429D01*
X69478154Y-97613908D01*
X69473523Y-97626351D01*
X69468814Y-97638759D01*
X69464025Y-97651130D01*
X69459157Y-97663465D01*
X69454211Y-97675763D01*
X69449184Y-97688026D01*
X69444079Y-97700253D01*
X69438895Y-97712443D01*
X69433631Y-97724598D01*
X69428289Y-97736716D01*
X69422867Y-97748798D01*
X69417366Y-97760844D01*
X69411786Y-97772854D01*
X69406126Y-97784828D01*
X69400388Y-97796766D01*
X69394570Y-97808667D01*
X69388673Y-97820533D01*
X69382697Y-97832362D01*
X69376642Y-97844155D01*
X69370508Y-97855913D01*
X69364295Y-97867634D01*
X69358002Y-97879319D01*
X69351630Y-97890967D01*
X69345180Y-97902580D01*
X69338650Y-97914157D01*
X69332040Y-97925697D01*
X69325352Y-97937202D01*
X69318585Y-97948670D01*
X69311738Y-97960102D01*
X69304812Y-97971498D01*
X69297807Y-97982858D01*
X69290723Y-97994182D01*
X69283560Y-98005470D01*
X69276318Y-98016722D01*
X69268996Y-98027937D01*
X69261595Y-98039117D01*
X69254115Y-98050260D01*
X69246556Y-98061367D01*
X69238918Y-98072439D01*
X69231201Y-98083474D01*
X69223404Y-98094473D01*
X69215529Y-98105435D01*
X69207574Y-98116362D01*
X69199540Y-98127253D01*
X69191427Y-98138107D01*
X69183235Y-98148926D01*
X69174963Y-98159708D01*
X69166613Y-98170455D01*
X69158183Y-98181165D01*
X69149674Y-98191839D01*
X69141086Y-98202477D01*
X69132419Y-98213079D01*
X69123673Y-98223644D01*
X69114847Y-98234174D01*
X69105942Y-98244668D01*
X69096959Y-98255125D01*
X69087896Y-98265546D01*
X69078754Y-98275932D01*
X69069532Y-98286281D01*
X69060232Y-98296594D01*
X69050852Y-98306871D01*
X69041394Y-98317112D01*
X69031856Y-98327317D01*
X69022239Y-98337485D01*
X69012542Y-98347618D01*
X69002767Y-98357715D01*
X68992913Y-98367775D01*
X68982979Y-98377799D01*
X68972966Y-98387788D01*
X68962874Y-98397740D01*
X68952703Y-98407656D01*
X68942453Y-98417536D01*
X68932123Y-98427380D01*
X68921715Y-98437188D01*
X68911306Y-98446819D01*
X68900874Y-98456378D01*
X68890419Y-98465863D01*
X68879940Y-98475276D01*
X68869437Y-98484617D01*
X68858909Y-98493888D01*
X68848356Y-98503087D01*
X68837777Y-98512217D01*
X68827172Y-98521277D01*
X68816539Y-98530268D01*
X68805879Y-98539192D01*
X68795191Y-98548047D01*
X68784474Y-98556836D01*
X68773728Y-98565558D01*
X68762953Y-98574215D01*
X68752147Y-98582806D01*
X68741310Y-98591333D01*
X68730443Y-98599796D01*
X70057769Y-98599796D01*
X70066481Y-98588744D01*
X70075152Y-98577667D01*
X70083782Y-98566564D01*
X70092370Y-98555436D01*
X70100917Y-98544282D01*
X70109421Y-98533103D01*
X70117883Y-98521899D01*
X70126302Y-98510669D01*
X70134678Y-98499415D01*
X70143011Y-98488136D01*
X70151300Y-98476831D01*
X70159545Y-98465502D01*
X70167745Y-98454148D01*
X70175901Y-98442769D01*
X70184012Y-98431365D01*
X70192078Y-98419937D01*
X70200098Y-98408484D01*
X70208073Y-98397007D01*
X70216001Y-98385505D01*
X70223882Y-98373979D01*
X70231717Y-98362429D01*
X70239505Y-98350854D01*
X70247245Y-98339256D01*
X70254937Y-98327633D01*
X70262582Y-98315986D01*
X70270178Y-98304315D01*
X70277725Y-98292621D01*
X70285223Y-98280902D01*
X70292672Y-98269160D01*
X70300072Y-98257394D01*
X70307421Y-98245604D01*
X70314720Y-98233791D01*
X70321969Y-98221955D01*
X70329167Y-98210095D01*
X70336313Y-98198211D01*
X70343408Y-98186304D01*
X70350452Y-98174375D01*
X70357443Y-98162421D01*
X70364382Y-98150445D01*
X70371268Y-98138446D01*
X70378101Y-98126424D01*
X70384881Y-98114379D01*
X70391607Y-98102311D01*
X70398279Y-98090220D01*
X70404896Y-98078107D01*
X70411460Y-98065971D01*
X70417968Y-98053813D01*
X70424421Y-98041632D01*
X70430818Y-98029428D01*
X70437160Y-98017203D01*
X70443446Y-98004954D01*
X70449675Y-97992684D01*
X70455847Y-97980392D01*
X70461962Y-97968077D01*
X70468020Y-97955741D01*
X70474020Y-97943382D01*
X70479962Y-97931002D01*
X70485846Y-97918600D01*
X70491671Y-97906176D01*
X70497437Y-97893730D01*
X70503144Y-97881263D01*
X70508791Y-97868774D01*
X70514379Y-97856263D01*
X70519906Y-97843732D01*
X70525373Y-97831178D01*
X70530779Y-97818604D01*
X70536123Y-97806008D01*
X70541407Y-97793392D01*
X70546628Y-97780754D01*
X70551788Y-97768095D01*
X70556885Y-97755415D01*
X70561919Y-97742714D01*
X70566891Y-97729993D01*
X70571799Y-97717250D01*
X70576644Y-97704487D01*
X70581424Y-97691704D01*
X70586141Y-97678899D01*
X70590792Y-97666075D01*
X70595379Y-97653230D01*
X70599901Y-97640364D01*
X70604357Y-97627478D01*
X70608748Y-97614572D01*
X70613072Y-97601646D01*
X70617330Y-97588700D01*
X70621521Y-97575734D01*
X70625646Y-97562747D01*
X70629703Y-97549741D01*
X70633692Y-97536715D01*
X70637613Y-97523670D01*
X70641466Y-97510604D01*
X70645250Y-97497519D01*
X70648966Y-97484415D01*
X70652612Y-97471291D01*
X70656189Y-97458147D01*
X70659695Y-97444984D01*
X70663132Y-97431802D01*
X70666498Y-97418601D01*
X70669794Y-97405380D01*
X70673018Y-97392141D01*
X70676171Y-97378882D01*
X70679252Y-97365604D01*
X70682262Y-97352308D01*
X70685198Y-97338993D01*
X70688063Y-97325658D01*
X70690854Y-97312306D01*
X70693572Y-97298934D01*
X70696217Y-97285544D01*
X70698787Y-97272136D01*
X70701284Y-97258709D01*
X70703706Y-97245264D01*
X70706053Y-97231800D01*
X70708325Y-97218319D01*
X70710521Y-97204819D01*
X70712642Y-97191301D01*
X70714687Y-97177765D01*
X70716655Y-97164211D01*
X70718546Y-97150639D01*
X70720361Y-97137049D01*
X70722098Y-97123442D01*
X70723758Y-97109817D01*
X70725340Y-97096174D01*
X70726844Y-97082514D01*
X70728268Y-97068836D01*
X70729615Y-97055141D01*
X70730882Y-97041428D01*
X70732069Y-97027699D01*
X70733177Y-97013951D01*
X70734204Y-97000187D01*
X70735151Y-96986406D01*
X70736018Y-96972608D01*
X70736803Y-96958792D01*
X70737507Y-96944960D01*
X70738130Y-96931111D01*
X70738670Y-96917245D01*
X70739128Y-96903363D01*
X70739504Y-96889464D01*
X70739796Y-96875548D01*
X70740006Y-96861616D01*
X70740132Y-96847667D01*
X70740174Y-96833702D01*
X70740132Y-96819829D01*
X70740009Y-96805969D01*
X70739803Y-96792122D01*
X70739516Y-96778289D01*
X70739147Y-96764469D01*
X70738697Y-96750663D01*
X70738166Y-96736871D01*
X70737555Y-96723093D01*
X70736863Y-96709328D01*
X70736092Y-96695578D01*
X70735240Y-96681842D01*
X70734310Y-96668120D01*
X70733300Y-96654412D01*
X70732212Y-96640720D01*
X70731045Y-96627041D01*
X70729800Y-96613378D01*
X70728478Y-96599729D01*
X70727077Y-96586095D01*
X70725600Y-96572476D01*
X70724046Y-96558873D01*
X70722414Y-96545285D01*
X70720707Y-96531712D01*
X70718924Y-96518154D01*
X70717065Y-96504612D01*
X70715130Y-96491086D01*
X70713120Y-96477576D01*
X70711036Y-96464081D01*
X70708877Y-96450603D01*
X70706643Y-96437141D01*
X70704336Y-96423695D01*
X70701955Y-96410265D01*
X70699501Y-96396852D01*
X70696974Y-96383455D01*
X70694374Y-96370075D01*
X70691702Y-96356712D01*
X70688957Y-96343365D01*
X70686141Y-96330036D01*
X70683253Y-96316723D01*
X70680294Y-96303428D01*
X70677264Y-96290150D01*
X70674163Y-96276890D01*
X70670992Y-96263647D01*
X70667751Y-96250422D01*
X70664441Y-96237214D01*
X70661061Y-96224024D01*
X70657611Y-96210853D01*
X70654093Y-96197699D01*
X70650507Y-96184563D01*
X70646852Y-96171446D01*
X70643129Y-96158347D01*
X70639339Y-96145267D01*
X70635481Y-96132205D01*
X70631557Y-96119162D01*
X70627565Y-96106138D01*
X70623507Y-96093132D01*
X70619384Y-96080146D01*
X70615194Y-96067178D01*
X70610939Y-96054230D01*
X70606618Y-96041302D01*
X70602233Y-96028393D01*
X70597783Y-96015503D01*
X70593268Y-96002633D01*
X70588690Y-95989783D01*
X70584048Y-95976952D01*
X70579343Y-95964142D01*
X70574574Y-95951351D01*
X70569743Y-95938581D01*
X70564849Y-95925832D01*
X70559893Y-95913102D01*
X70554875Y-95900393D01*
X70549795Y-95887705D01*
X70544654Y-95875038D01*
X70539452Y-95862391D01*
X70534190Y-95849765D01*
X70528867Y-95837161D01*
X70523483Y-95824577D01*
X70518041Y-95812015D01*
X70512538Y-95799474D01*
X70506976Y-95786955D01*
X70501356Y-95774457D01*
X70495677Y-95761981D01*
X70489939Y-95749527D01*
X70484144Y-95737094D01*
X70478291Y-95724684D01*
X70472380Y-95712296D01*
X70466412Y-95699930D01*
X70460388Y-95687586D01*
X70454307Y-95675265D01*
X70448170Y-95662966D01*
X70441977Y-95650690D01*
X70435728Y-95638437D01*
X70429424Y-95626207D01*
X70423065Y-95614000D01*
X70416651Y-95601815D01*
X70410183Y-95589654D01*
X70403661Y-95577517D01*
X70397085Y-95565402D01*
X70390456Y-95553312D01*
X70383773Y-95541245D01*
X70377037Y-95529201D01*
X70370249Y-95517182D01*
X70363409Y-95505186D01*
X70356516Y-95493214D01*
X70349572Y-95481267D01*
X70342577Y-95469344D01*
X70335530Y-95457445D01*
X70328433Y-95445571D01*
X70321285Y-95433721D01*
X70314087Y-95421896D01*
X70306839Y-95410096D01*
X70299541Y-95398321D01*
X70292194Y-95386571D01*
X70284798Y-95374846D01*
X70277354Y-95363146D01*
X70269861Y-95351471D01*
X70262320Y-95339822D01*
X70254731Y-95328199D01*
X70247095Y-95316601D01*
X70239411Y-95305029D01*
X70231681Y-95293483D01*
X70223904Y-95281963D01*
X70216081Y-95270469D01*
X70208212Y-95259001D01*
X70200297Y-95247559D01*
X70192337Y-95236144D01*
X70184331Y-95224755D01*
X70176281Y-95213393D01*
X70168187Y-95202058D01*
X70160048Y-95190750D01*
X70151865Y-95179468D01*
X70143639Y-95168214D01*
X70135369Y-95156987D01*
X70127057Y-95145787D01*
X70118702Y-95134614D01*
X70110304Y-95123469D01*
X70101864Y-95112352D01*
X70093383Y-95101262D01*
X70084860Y-95090200D01*
X70076296Y-95079166D01*
X70067691Y-95068160D01*
X68749184Y-95068160D01*
X65673403Y-98599796D01*
X65663103Y-98591610D01*
X65652830Y-98583362D01*
X65642586Y-98575050D01*
X65632368Y-98566676D01*
X65622177Y-98558238D01*
X65612014Y-98549737D01*
X65601876Y-98541172D01*
X65591765Y-98532543D01*
X65581680Y-98523851D01*
X65571621Y-98515093D01*
X65561588Y-98506272D01*
X65551580Y-98497386D01*
X65541597Y-98488435D01*
X65531640Y-98479419D01*
X65521706Y-98470337D01*
X65511798Y-98461190D01*
X65501913Y-98451978D01*
X65492053Y-98442700D01*
X65481360Y-98432540D01*
X65470747Y-98422350D01*
X65460215Y-98412131D01*
X65449763Y-98401882D01*
X65439393Y-98391603D01*
X65429103Y-98381294D01*
X65418894Y-98370956D01*
X65408765Y-98360589D01*
X65398717Y-98350191D01*
X65388750Y-98339764D01*
X65378864Y-98329307D01*
X65369058Y-98318821D01*
X65359333Y-98308305D01*
X65349688Y-98297759D01*
X65340125Y-98287183D01*
X65330642Y-98276578D01*
X65321240Y-98265943D01*
X65311918Y-98255278D01*
X65302677Y-98244584D01*
X65293517Y-98233860D01*
X65284437Y-98223106D01*
X65275439Y-98212323D01*
X65266521Y-98201510D01*
X65257683Y-98190667D01*
X65248927Y-98179795D01*
X65240251Y-98168892D01*
X65231655Y-98157961D01*
X65223141Y-98146999D01*
X65214707Y-98136008D01*
X65206354Y-98124987D01*
X65198081Y-98113936D01*
X65189889Y-98102855D01*
X65181778Y-98091745D01*
X65173748Y-98080605D01*
X65165798Y-98069436D01*
X65157929Y-98058237D01*
X65150141Y-98047007D01*
X65142433Y-98035749D01*
X65134806Y-98024460D01*
X65127260Y-98013142D01*
X65119795Y-98001794D01*
X65112410Y-97990416D01*
X65105106Y-97979009D01*
X65097882Y-97967572D01*
X65090740Y-97956105D01*
X65083678Y-97944608D01*
X65076697Y-97933082D01*
X65069796Y-97921526D01*
X65062976Y-97909940D01*
X65056237Y-97898325D01*
X65049578Y-97886679D01*
X65043001Y-97875004D01*
X65036504Y-97863300D01*
X65030087Y-97851565D01*
X65023752Y-97839801D01*
X65017497Y-97828007D01*
X65011322Y-97816183D01*
X65005229Y-97804329D01*
X64999216Y-97792446D01*
X64993284Y-97780533D01*
X64987432Y-97768590D01*
X64981662Y-97756617D01*
X64975972Y-97744615D01*
X64970362Y-97732583D01*
X64964834Y-97720521D01*
X64959386Y-97708430D01*
X64954019Y-97696308D01*
X64948732Y-97684157D01*
X64943526Y-97671976D01*
X64938401Y-97659765D01*
X64933357Y-97647525D01*
X64928393Y-97635254D01*
X64923510Y-97622954D01*
X64918708Y-97610625D01*
X64913986Y-97598265D01*
X64909346Y-97585875D01*
X64904785Y-97573456D01*
X64900306Y-97561007D01*
X64895907Y-97548529D01*
X64891589Y-97536020D01*
X64887352Y-97523482D01*
X64883195Y-97510913D01*
X64879119Y-97498316D01*
X64875124Y-97485688D01*
X64871210Y-97473030D01*
X64867376Y-97460343D01*
X64863623Y-97447626D01*
X64859951Y-97434879D01*
X64856359Y-97422102D01*
X64852848Y-97409296D01*
X64849418Y-97396459D01*
X64846068Y-97383593D01*
X64842799Y-97370697D01*
X64839611Y-97357771D01*
X64836504Y-97344816D01*
X64833477Y-97331830D01*
X64830531Y-97318815D01*
X64827666Y-97305770D01*
X64824881Y-97292695D01*
X64822177Y-97279590D01*
X64819554Y-97266456D01*
X64817012Y-97253292D01*
X64814550Y-97240097D01*
X64812169Y-97226873D01*
X64809869Y-97213620D01*
X64807649Y-97200336D01*
X64805510Y-97187022D01*
X64803452Y-97173679D01*
X64801475Y-97160306D01*
X64799578Y-97146903D01*
X64797762Y-97133470D01*
X64796027Y-97120007D01*
X64794372Y-97106515D01*
X64792798Y-97092993D01*
X64791305Y-97079440D01*
X64789892Y-97065858D01*
X64788561Y-97052246D01*
X64787309Y-97038605D01*
X64786139Y-97024933D01*
X64785049Y-97011232D01*
X64784041Y-96997500D01*
X64783112Y-96983739D01*
X64782265Y-96969948D01*
X64781498Y-96956127D01*
X64780812Y-96942276D01*
X64780207Y-96928396D01*
X64779682Y-96914485D01*
X64779238Y-96900545D01*
X64778875Y-96886575D01*
X64778592Y-96872575D01*
X64778391Y-96858545D01*
X64778270Y-96844485D01*
X64778229Y-96830395D01*
X64778270Y-96816308D01*
X64778391Y-96802249D01*
X64778592Y-96788219D01*
X64778875Y-96774217D01*
X64779238Y-96760243D01*
X64779682Y-96746298D01*
X64780207Y-96732382D01*
X64780812Y-96718493D01*
X64781498Y-96704634D01*
X64782265Y-96690803D01*
X64783112Y-96677000D01*
X64784041Y-96663225D01*
X64785049Y-96649480D01*
X64786139Y-96635762D01*
X64787309Y-96622073D01*
X64788561Y-96608413D01*
X64789892Y-96594781D01*
X64791305Y-96581177D01*
X64792798Y-96567602D01*
X64794372Y-96554055D01*
X64796027Y-96540537D01*
X64797762Y-96527047D01*
X64799578Y-96513586D01*
X64801475Y-96500153D01*
X64803452Y-96486748D01*
X64805510Y-96473372D01*
X64807649Y-96460025D01*
X64809869Y-96446706D01*
X64812169Y-96433415D01*
X64814550Y-96420153D01*
X64817012Y-96406919D01*
X64819554Y-96393714D01*
X64822177Y-96380537D01*
X64824881Y-96367389D01*
X64827666Y-96354269D01*
X64830531Y-96341177D01*
X64833477Y-96328114D01*
X64836504Y-96315079D01*
X64839611Y-96302073D01*
X64842799Y-96289096D01*
X64846068Y-96276146D01*
X64849418Y-96263226D01*
X64852848Y-96250333D01*
X64856359Y-96237469D01*
X64859951Y-96224634D01*
X64863623Y-96211827D01*
X64867376Y-96199048D01*
X64871210Y-96186298D01*
X64875124Y-96173577D01*
X64879119Y-96160883D01*
X64883195Y-96148219D01*
X64887352Y-96135582D01*
X64891589Y-96122974D01*
X64895907Y-96110395D01*
X64900306Y-96097844D01*
X64904785Y-96085322D01*
X64909346Y-96072827D01*
X64913986Y-96060362D01*
X64918708Y-96047925D01*
X64923510Y-96035516D01*
X64928393Y-96023136D01*
X64933357Y-96010784D01*
X64938401Y-95998461D01*
X64943526Y-95986166D01*
X64948732Y-95973899D01*
X64954019Y-95961661D01*
X64959386Y-95949452D01*
X64964834Y-95937270D01*
X64970362Y-95925118D01*
X64975972Y-95912993D01*
X64981662Y-95900898D01*
X64987432Y-95888830D01*
X64993284Y-95876791D01*
X64999216Y-95864781D01*
X65005229Y-95852799D01*
X65011322Y-95840845D01*
X65017497Y-95828920D01*
X65023752Y-95817024D01*
X65030087Y-95805155D01*
X65036504Y-95793316D01*
X65043001Y-95781504D01*
X65049578Y-95769722D01*
X65056237Y-95757967D01*
X65062976Y-95746241D01*
X65069796Y-95734544D01*
X65076697Y-95722875D01*
X65083678Y-95711234D01*
X65090740Y-95699622D01*
X65097882Y-95688038D01*
X65105106Y-95676483D01*
X65112410Y-95664956D01*
X65119795Y-95653457D01*
X65127260Y-95641988D01*
X65134806Y-95630546D01*
X65142433Y-95619133D01*
X65150141Y-95607748D01*
X65157929Y-95596392D01*
X65165798Y-95585064D01*
X65173748Y-95573765D01*
X65181778Y-95562494D01*
X65189889Y-95551252D01*
X65198081Y-95540038D01*
X65206354Y-95528853D01*
X65214707Y-95517696D01*
X65223141Y-95506567D01*
X65231655Y-95495467D01*
X65240251Y-95484395D01*
X65248927Y-95473352D01*
X65257683Y-95462337D01*
X65266521Y-95451351D01*
X65275439Y-95440393D01*
X65284437Y-95429463D01*
X65293517Y-95418562D01*
X65302677Y-95407690D01*
X65311918Y-95396845D01*
X65321240Y-95386030D01*
X65330642Y-95375243D01*
X65340125Y-95364484D01*
X65349688Y-95353753D01*
X65359333Y-95343051D01*
X65369058Y-95332378D01*
X65378864Y-95321733D01*
X65388750Y-95311116D01*
X65398717Y-95300528D01*
X65408765Y-95289968D01*
X65418894Y-95279437D01*
X65429103Y-95268934D01*
X65439393Y-95258460D01*
X65449763Y-95248014D01*
X65460215Y-95237597D01*
X65470747Y-95227208D01*
X65481360Y-95216847D01*
X65492053Y-95206515D01*
X65502384Y-95196730D01*
X65512755Y-95187040D01*
X65523166Y-95177442D01*
X65533616Y-95167932D01*
X65544103Y-95158506D01*
X65554626Y-95149162D01*
X65565184Y-95139895D01*
X65575777Y-95130703D01*
X65586403Y-95121582D01*
X65597062Y-95112529D01*
X65607752Y-95103540D01*
X65618472Y-95094612D01*
X65629221Y-95085742D01*
X65639998Y-95076925D01*
X65650803Y-95068160D01*
X63725408Y-95068160D01*
X63725408Y-95068160D01*
G37*
D11*
X147955000Y-100500000D03*
X147955000Y-102700000D03*
D12*
X110792260Y-93129100D03*
X115191540Y-93129100D03*
D13*
X90881200Y-46662340D03*
X90881200Y-56360060D03*
D14*
X90322400Y-70787260D03*
X90322400Y-67287140D03*
X94361000Y-87983060D03*
X94361000Y-84482940D03*
D15*
X86133940Y-84455000D03*
X89634060Y-84455000D03*
D16*
X82690000Y-112903000D03*
X74790000Y-112903000D03*
D17*
X137805200Y-64884300D03*
X135905200Y-64884300D03*
X86522600Y-65989200D03*
X84622600Y-65989200D03*
X91506000Y-98298000D03*
X93406000Y-98298000D03*
X101920000Y-63042800D03*
X103820000Y-63042800D03*
X106690200Y-51460400D03*
X104790200Y-51460400D03*
X96255800Y-107975400D03*
X98155800Y-107975400D03*
X98872000Y-68046600D03*
X100772000Y-68046600D03*
D18*
X115062000Y-98795800D03*
X115062000Y-100695800D03*
X113030000Y-55615800D03*
X113030000Y-57515800D03*
X97332800Y-57744400D03*
X97332800Y-55844400D03*
X97383600Y-50662800D03*
X97383600Y-52562800D03*
D17*
X102486500Y-96520000D03*
X100586500Y-96520000D03*
D18*
X102819200Y-99024400D03*
X102819200Y-100924400D03*
X96012000Y-100078500D03*
X96012000Y-101978500D03*
X85953600Y-100459500D03*
X85953600Y-102359500D03*
D17*
X91861600Y-106743500D03*
X93761600Y-106743500D03*
D18*
X93980000Y-90871000D03*
X93980000Y-92771000D03*
D19*
X146050000Y-102349300D03*
X146050000Y-100850700D03*
X146050000Y-89649300D03*
X146050000Y-88150700D03*
X146050000Y-95999300D03*
X146050000Y-94500700D03*
D20*
X93939360Y-112903000D03*
X88859360Y-112903000D03*
X104178100Y-112903000D03*
X109258100Y-112903000D03*
X91399360Y-115443000D03*
X91399360Y-110363000D03*
X106718100Y-115443000D03*
X106718100Y-110363000D03*
D21*
X145161000Y-117475000D03*
D22*
X148386000Y-117475000D03*
X147441419Y-119755419D03*
X145161000Y-120700000D03*
X142880581Y-119755419D03*
X141936000Y-117475000D03*
X142880581Y-115194581D03*
X145161000Y-114250000D03*
X147441419Y-115194581D03*
D21*
X145161000Y-48260000D03*
D22*
X148386000Y-48260000D03*
X147441419Y-50540419D03*
X145161000Y-51485000D03*
X142880581Y-50540419D03*
X141936000Y-48260000D03*
X142880581Y-45979581D03*
X145161000Y-45035000D03*
X147441419Y-45979581D03*
D23*
X144018000Y-67818000D03*
D24*
X146558000Y-67818000D03*
X144018000Y-70358000D03*
X146558000Y-70358000D03*
X144018000Y-72898000D03*
X146558000Y-72898000D03*
X144018000Y-75438000D03*
X146558000Y-75438000D03*
X144018000Y-77978000D03*
X146558000Y-77978000D03*
D25*
X102743000Y-45847000D03*
D26*
X105283000Y-45847000D03*
X107823000Y-45847000D03*
X110363000Y-45847000D03*
D27*
X56111140Y-78420000D03*
X56111140Y-76520000D03*
X53108860Y-77470000D03*
X56111140Y-92390000D03*
X56111140Y-90490000D03*
X53108860Y-91440000D03*
D28*
X58486000Y-117706140D03*
X60386000Y-117706140D03*
X59436000Y-114703860D03*
D27*
X56111140Y-72832000D03*
X56111140Y-70932000D03*
X53108860Y-71882000D03*
X56111140Y-111440000D03*
X56111140Y-109540000D03*
X53108860Y-110490000D03*
D28*
X59751000Y-53362860D03*
X57851000Y-53362860D03*
X58801000Y-56365140D03*
D27*
X56111140Y-97978000D03*
X56111140Y-96078000D03*
X53108860Y-97028000D03*
X56111140Y-58862000D03*
X56111140Y-56962000D03*
X53108860Y-57912000D03*
D28*
X92898000Y-73276460D03*
X90998000Y-73276460D03*
X91948000Y-76278740D03*
X105679200Y-77853540D03*
X107579200Y-77853540D03*
X106629200Y-74851260D03*
X98313200Y-77802740D03*
X100213200Y-77802740D03*
X99263200Y-74800460D03*
D29*
X74112300Y-54457600D03*
X71912300Y-54457600D03*
X144229000Y-56642000D03*
X142029000Y-56642000D03*
D11*
X111201200Y-57665800D03*
X111201200Y-55465800D03*
X113157000Y-73576000D03*
X113157000Y-75776000D03*
D29*
X98722000Y-70358000D03*
X100922000Y-70358000D03*
X102573000Y-94615000D03*
X100373000Y-94615000D03*
D11*
X100711000Y-98849000D03*
X100711000Y-101049000D03*
X100647500Y-105240000D03*
X100647500Y-103040000D03*
D29*
X95674000Y-97663000D03*
X97874000Y-97663000D03*
X87495200Y-106794300D03*
X89695200Y-106794300D03*
D11*
X97917000Y-99801500D03*
X97917000Y-102001500D03*
X85394800Y-104475100D03*
X85394800Y-106675100D03*
D29*
X87764800Y-98399600D03*
X85564800Y-98399600D03*
X80475000Y-109093000D03*
X78275000Y-109093000D03*
D11*
X83921600Y-100601600D03*
X83921600Y-102801600D03*
D29*
X98445500Y-106172000D03*
X96245500Y-106172000D03*
X96182000Y-103949500D03*
X98382000Y-103949500D03*
D11*
X89204800Y-73677600D03*
X89204800Y-75877600D03*
X96520000Y-87206000D03*
X96520000Y-85006000D03*
X83947000Y-88984000D03*
X83947000Y-86784000D03*
X147955000Y-87800000D03*
X147955000Y-90000000D03*
X147955000Y-94150000D03*
X147955000Y-96350000D03*
X104140000Y-72814000D03*
X104140000Y-75014000D03*
X101981000Y-72814000D03*
X101981000Y-75014000D03*
X95885000Y-63924000D03*
X95885000Y-66124000D03*
X93726000Y-63924000D03*
X93726000Y-66124000D03*
D30*
X109982000Y-97739200D03*
D31*
X109982000Y-104343200D03*
X112268000Y-104343200D03*
X107696000Y-104343200D03*
D32*
X115283000Y-72009000D03*
X115283000Y-73279000D03*
X115283000Y-74549000D03*
X115283000Y-75819000D03*
X120683000Y-75819000D03*
X120683000Y-74549000D03*
X120683000Y-73279000D03*
X120683000Y-72009000D03*
D33*
X102739000Y-59973000D03*
X103389000Y-59973000D03*
X104039000Y-59973000D03*
X104689000Y-59973000D03*
X105339000Y-59973000D03*
X105989000Y-59973000D03*
X106639000Y-59973000D03*
X107289000Y-59973000D03*
X107939000Y-59973000D03*
X108589000Y-59973000D03*
X108589000Y-54073000D03*
X107939000Y-54073000D03*
X107289000Y-54073000D03*
X106639000Y-54073000D03*
X105989000Y-54073000D03*
X105339000Y-54073000D03*
X104689000Y-54073000D03*
X104039000Y-54073000D03*
X103389000Y-54073000D03*
X102739000Y-54073000D03*
D32*
X87927200Y-101130100D03*
X87927200Y-102400100D03*
X87927200Y-103670100D03*
X87927200Y-104940100D03*
X93327200Y-104940100D03*
X93327200Y-103670100D03*
X93327200Y-102400100D03*
X93327200Y-101130100D03*
D34*
X111252000Y-82009000D03*
X109982000Y-82009000D03*
X108712000Y-82009000D03*
X107442000Y-82009000D03*
X106172000Y-82009000D03*
X104902000Y-82009000D03*
X103632000Y-82009000D03*
X102362000Y-82009000D03*
X102362000Y-87409000D03*
X103632000Y-87409000D03*
X104902000Y-87409000D03*
X106172000Y-87409000D03*
X107442000Y-87409000D03*
X108712000Y-87409000D03*
X109982000Y-87409000D03*
X111252000Y-87409000D03*
D32*
X86073000Y-86741000D03*
X86073000Y-88011000D03*
X86073000Y-89281000D03*
X86073000Y-90551000D03*
X91473000Y-90551000D03*
X91473000Y-89281000D03*
X91473000Y-88011000D03*
X91473000Y-86741000D03*
D35*
X79723000Y-68453000D03*
X79723000Y-69723000D03*
X79723000Y-70993000D03*
X79723000Y-72263000D03*
X79723000Y-73533000D03*
X79723000Y-74803000D03*
X79723000Y-76073000D03*
X79723000Y-77343000D03*
X85123000Y-77343000D03*
X85123000Y-76073000D03*
X85123000Y-74803000D03*
X85123000Y-73533000D03*
X85123000Y-72263000D03*
X85123000Y-70993000D03*
X85123000Y-69723000D03*
X85123000Y-68453000D03*
D11*
X96266000Y-92794000D03*
X96266000Y-90594000D03*
D29*
X89832000Y-94932500D03*
X92032000Y-94932500D03*
X92032000Y-92646500D03*
X89832000Y-92646500D03*
X87714000Y-94932500D03*
X85514000Y-94932500D03*
X85514000Y-92646500D03*
X87714000Y-92646500D03*
X87904500Y-82042000D03*
X85704500Y-82042000D03*
X106240400Y-72694800D03*
X108440400Y-72694800D03*
X101719200Y-77825600D03*
X103919200Y-77825600D03*
D10*
G36*
X119710017Y-112139421D02*
X120360579Y-113710017D01*
X118789983Y-114360579D01*
X118139421Y-112789983D01*
X119710017Y-112139421D01*
X119710017Y-112139421D01*
G37*
D36*
X114630602Y-115163417D03*
D37*
X50927000Y-96012000D03*
D36*
X50927000Y-91012000D03*
D38*
X112649000Y-109855000D03*
D39*
X112649000Y-117475000D03*
D40*
X144302430Y-60200320D03*
X135097570Y-60195680D03*
X83367830Y-51475420D03*
X74162970Y-51470780D03*
D41*
X52000000Y-48260000D03*
X52000000Y-117475000D03*
D42*
X124500000Y-114250000D03*
X129500000Y-114250000D03*
X124500000Y-94500000D03*
X129500000Y-94500000D03*
D43*
X67310000Y-45720000D03*
D44*
X69850000Y-45720000D03*
X72390000Y-45720000D03*
X74930000Y-45720000D03*
X77470000Y-45720000D03*
X80010000Y-45720000D03*
X74930000Y-60960000D03*
X77470000Y-60960000D03*
X67310000Y-60960000D03*
X69850000Y-60960000D03*
X80010000Y-60960000D03*
X72390000Y-60960000D03*
D43*
X118110000Y-65405000D03*
D44*
X120650000Y-65405000D03*
X123190000Y-65405000D03*
X125730000Y-65405000D03*
X128270000Y-65405000D03*
X130810000Y-65405000D03*
X125730000Y-80645000D03*
X128270000Y-80645000D03*
X118110000Y-80645000D03*
X120650000Y-80645000D03*
X130810000Y-80645000D03*
X123190000Y-80645000D03*
D43*
X118110000Y-104775000D03*
D44*
X120650000Y-104775000D03*
X123190000Y-104775000D03*
X125730000Y-104775000D03*
X128270000Y-104775000D03*
X130810000Y-104775000D03*
X125730000Y-120015000D03*
X128270000Y-120015000D03*
X118110000Y-120015000D03*
X120650000Y-120015000D03*
X130810000Y-120015000D03*
X123190000Y-120015000D03*
D43*
X67310000Y-85090000D03*
D44*
X69850000Y-85090000D03*
X72390000Y-85090000D03*
X74930000Y-85090000D03*
X77470000Y-85090000D03*
X80010000Y-85090000D03*
X74930000Y-100330000D03*
X77470000Y-100330000D03*
X67310000Y-100330000D03*
X69850000Y-100330000D03*
X80010000Y-100330000D03*
X72390000Y-100330000D03*
D43*
X67310000Y-65405000D03*
D44*
X69850000Y-65405000D03*
X72390000Y-65405000D03*
X74930000Y-65405000D03*
X77470000Y-65405000D03*
X80010000Y-65405000D03*
X74930000Y-80645000D03*
X77470000Y-80645000D03*
X67310000Y-80645000D03*
X69850000Y-80645000D03*
X80010000Y-80645000D03*
X72390000Y-80645000D03*
D43*
X67310000Y-104775000D03*
D44*
X69850000Y-104775000D03*
X72390000Y-104775000D03*
X74930000Y-104775000D03*
X77470000Y-104775000D03*
X80010000Y-104775000D03*
X74930000Y-120015000D03*
X77470000Y-120015000D03*
X67310000Y-120015000D03*
X69850000Y-120015000D03*
X80010000Y-120015000D03*
X72390000Y-120015000D03*
D43*
X118110000Y-85090000D03*
D44*
X120650000Y-85090000D03*
X123190000Y-85090000D03*
X125730000Y-85090000D03*
X128270000Y-85090000D03*
X130810000Y-85090000D03*
X125730000Y-100330000D03*
X128270000Y-100330000D03*
X118110000Y-100330000D03*
X120650000Y-100330000D03*
X130810000Y-100330000D03*
X123190000Y-100330000D03*
D43*
X118110000Y-45720000D03*
D44*
X120650000Y-45720000D03*
X123190000Y-45720000D03*
X125730000Y-45720000D03*
X128270000Y-45720000D03*
X130810000Y-45720000D03*
X125730000Y-60960000D03*
X128270000Y-60960000D03*
X118110000Y-60960000D03*
X120650000Y-60960000D03*
X130810000Y-60960000D03*
X123190000Y-60960000D03*
M02*
