M48
;DRILL file {KiCad 4.0.4-1.fc24-product} date Thu May  4 13:36:16 2017
;FORMAT={-:-/ absolute / inch / decimal}
FMAT,2
INCH,TZ
T1C0.016
T2C0.024
T3C0.031
T4C0.032
T5C0.036
T6C0.039
T7C0.040
T8C0.053
T9C0.079
T10C0.169
%
G90
G05
M72
T1
X2.325Y-4.69
X2.58Y-4.075
X2.985Y-4.605
X3.085Y-4.605
X3.09Y-4.23
X3.18Y-4.22
X3.21Y-2.7775
X3.214Y-2.658
X3.2255Y-2.423
X3.249Y-3.05
X3.266Y-2.713
X3.27Y-2.829
X3.285Y-3.103
X3.287Y-2.673
X3.3015Y-2.4265
X3.356Y-4.248
X3.425Y-2.945
X3.465Y-2.795
X3.505Y-1.817
X3.53Y-3.255
X3.575Y-4.038
X3.599Y-2.419
X3.626Y-2.944
X3.64Y-3.1
X3.642Y-2.384
X3.656Y-1.819
X3.666Y-2.812
X3.686Y-2.936
X3.706Y-2.845
X3.707Y-3.11
X3.714Y-2.361
X3.73Y-2.605
X3.735Y-2.875
X3.766Y-2.953
X3.823Y-2.605
X3.8625Y-2.589
X3.8745Y-2.7255
X3.933Y-2.8025
X4.025Y-2.8135
X4.055Y-2.955
X4.118Y-2.416
X4.173Y-2.4415
X4.2055Y-3.1425
X4.208Y-3.175
X4.308Y-3.5785
X4.3445Y-2.413
X4.3465Y-3.588
X4.394Y-2.386
X4.433Y-2.387
X4.468Y-2.387
X4.492Y-2.744
X4.505Y-4.05
X4.518Y-2.413
X4.552Y-2.5495
X4.555Y-2.5115
X4.585Y-4.572
X4.601Y-4.534
X4.62Y-4.05
X4.702Y-4.65
X4.725Y-4.615
T2
X5.588Y-1.9
X5.588Y-4.625
X5.6252Y-1.8102
X5.6252Y-1.9898
X5.6252Y-4.5352
X5.6252Y-4.7148
X5.715Y-1.773
X5.715Y-2.027
X5.715Y-4.498
X5.715Y-4.752
X5.8048Y-1.8102
X5.8048Y-1.9898
X5.8048Y-4.5352
X5.8048Y-4.7148
X5.842Y-1.9
X5.842Y-4.625
T3
X1.97Y-3.09
X1.97Y-3.19
X1.97Y-3.28
X1.97Y-3.37
X1.97Y-3.99
X1.97Y-4.08
X1.97Y-4.19
X1.97Y-4.3
X2.005Y-3.5831
X2.005Y-3.78
X2.18Y-2.205
X2.185Y-3.35
X2.185Y-4.125
X2.195Y-1.8
X2.195Y-2.58
X2.235Y-3.425
X2.235Y-4.195
X2.2422Y-2.03
X2.2422Y-2.505
X2.245Y-1.87
X2.285Y-3.475
X2.285Y-4.245
X2.29Y-2.65
X2.295Y-1.92
X2.335Y-3.01
X2.335Y-3.525
X2.335Y-4.3
X2.34Y-1.97
X2.34Y-2.7
X2.385Y-2.7472
X2.385Y-3.575
X2.385Y-4.345
X2.3872Y-2.02
X2.435Y-2.33
X2.435Y-3.1
X2.435Y-3.88
X2.435Y-4.645
X2.485Y-2.275
X2.485Y-3.05
X2.485Y-3.825
X2.485Y-4.4
X2.485Y-4.605
X2.4925Y-4.7525
X2.535Y-2.2278
X2.535Y-2.995
X2.535Y-3.77
X2.535Y-4.555
X2.5825Y-3.9875
X2.59Y-2.455
X2.695Y-3.26
X2.698Y-3.666
X2.85Y-2.935
X2.9525Y-4.31
X2.992Y-3.641
X2.995Y-3.754
X2.996Y-3.698
X3.045Y-2.685
X3.09Y-1.8795
X3.189Y-3.086
X3.217Y-3.635
X3.218Y-3.74
X3.219Y-3.686
X3.38Y-1.775
X3.408Y-3.695
X3.416Y-2.511
X3.418Y-2.883
X3.469Y-1.877
X3.49Y-3.555
X3.515Y-3.4225
X3.585Y-3.688
X3.592Y-3.94
X3.675Y-3.24
X3.766Y-1.877
X3.827Y-3.041
X3.8319Y-4.1341
X3.8525Y-3.7825
X3.855Y-1.795
X3.8875Y-3.41
X3.921Y-2.721
X3.9475Y-2.973
X4.0125Y-3.6125
X4.015Y-2.53
X4.029Y-3.165
X4.034Y-4.07
X4.058Y-3.371
X4.148Y-4.124
X4.166Y-3.369
X4.167Y-2.802
X4.197Y-3.696
X4.23Y-3.321
X4.2345Y-3.495
X4.243Y-3.733
X4.3775Y-4.335
X4.3945Y-2.426
X4.434Y-1.853
X4.455Y-3.5575
X4.4615Y-3.7425
X4.463Y-3.6665
X4.464Y-3.599
X4.498Y-1.866
X4.513Y-4.534
X4.55Y-1.8
X4.553Y-2.735
X4.568Y-3.32
X4.577Y-3.128
X4.602Y-2.9935
X4.645Y-3.865
X4.65Y-1.94
X4.686Y-3.548
X4.693Y-3.687
X4.6945Y-3.619
X4.6949Y-4.4587
X4.696Y-3.7495
X4.71Y-4.31
X4.74Y-4.55
X4.75Y-1.99
X4.75Y-2.21
X4.752Y-2.747
X4.85Y-2.045
X4.85Y-2.265
X4.95Y-2.1
X5.Y-2.51
X5.03Y-2.982
X5.05Y-2.155
X5.135Y-4.035
X5.28Y-3.1
X5.285Y-3.88
X5.285Y-4.655
X5.335Y-3.05
X5.335Y-3.83
X5.335Y-4.6
X5.385Y-2.645
X5.385Y-3.42
X5.385Y-4.195
X5.435Y-2.695
X5.435Y-3.47
X5.435Y-4.245
X5.485Y-2.745
X5.485Y-3.52
X5.485Y-4.295
X5.535Y-2.795
X5.535Y-3.57
X5.535Y-4.345
X5.585Y-2.845
X5.585Y-3.62
X5.59Y-4.4
X5.6395Y-3.6775
X5.642Y-3.739
X5.643Y-3.806
X5.643Y-3.8765
X5.745Y-3.68
X5.75Y-3.435
T4
X4.435Y-4.325
X4.435Y-4.625
T5
X2.65Y-1.8
X2.65Y-2.575
X2.65Y-3.35
X2.65Y-4.125
X4.65Y-1.8
X4.65Y-2.575
X4.65Y-3.35
X4.65Y-4.125
T6
X2.65Y-2.4
X2.65Y-3.175
X2.65Y-3.95
X2.65Y-4.725
X2.75Y-1.8
X2.75Y-2.4
X2.75Y-2.575
X2.75Y-3.175
X2.75Y-3.35
X2.75Y-3.95
X2.75Y-4.125
X2.75Y-4.725
X2.85Y-1.8
X2.85Y-2.4
X2.85Y-2.575
X2.85Y-3.175
X2.85Y-3.35
X2.85Y-3.95
X2.85Y-4.125
X2.85Y-4.725
X2.95Y-1.8
X2.95Y-2.4
X2.95Y-2.575
X2.95Y-3.175
X2.95Y-3.35
X2.95Y-3.95
X2.95Y-4.125
X2.95Y-4.725
X3.05Y-1.8
X3.05Y-2.4
X3.05Y-2.575
X3.05Y-3.175
X3.05Y-3.35
X3.05Y-3.95
X3.05Y-4.125
X3.05Y-4.725
X3.15Y-1.8
X3.15Y-2.4
X3.15Y-2.575
X3.15Y-3.175
X3.15Y-3.35
X3.15Y-3.95
X3.15Y-4.125
X3.15Y-4.725
X4.65Y-2.4
X4.65Y-3.175
X4.65Y-3.95
X4.65Y-4.725
X4.75Y-1.8
X4.75Y-2.4
X4.75Y-2.575
X4.75Y-3.175
X4.75Y-3.35
X4.75Y-3.95
X4.75Y-4.125
X4.75Y-4.725
X4.85Y-1.8
X4.85Y-2.4
X4.85Y-2.575
X4.85Y-3.175
X4.85Y-3.35
X4.85Y-3.95
X4.85Y-4.125
X4.85Y-4.725
X4.95Y-1.8
X4.95Y-2.4
X4.95Y-2.575
X4.95Y-3.175
X4.95Y-3.35
X4.95Y-3.95
X4.95Y-4.125
X4.95Y-4.725
X5.05Y-1.8
X5.05Y-2.4
X5.05Y-2.575
X5.05Y-3.175
X5.05Y-3.35
X5.05Y-3.95
X5.05Y-4.125
X5.05Y-4.725
X5.15Y-1.8
X5.15Y-2.4
X5.15Y-2.575
X5.15Y-3.175
X5.15Y-3.35
X5.15Y-3.95
X5.15Y-4.125
X5.15Y-4.725
T7
X4.045Y-1.805
X4.145Y-1.805
X4.245Y-1.805
X4.345Y-1.805
X5.67Y-2.67
X5.67Y-2.77
X5.67Y-2.87
X5.67Y-2.97
X5.67Y-3.07
X5.77Y-2.67
X5.77Y-2.77
X5.77Y-2.87
X5.77Y-2.97
X5.77Y-3.07
T8
X3.4984Y-4.445
X3.5984Y-4.345
X3.5984Y-4.545
X3.6984Y-4.445
X4.1015Y-4.445
X4.2015Y-4.345
X4.2015Y-4.545
X4.3015Y-4.445
T9
X4.9016Y-3.7205
X4.9016Y-4.498
X5.0984Y-3.7205
X5.0984Y-4.498
T10
X5.715Y-1.9
X5.715Y-4.625
T0
M30
