G04 #@! TF.FileFunction,Soldermask,Top*
%FSLAX46Y46*%
G04 Gerber Fmt 4.6, Leading zero omitted, Abs format (unit mm)*
G04 Created by KiCad (PCBNEW 4.0.4-1.fc24-product) date Wed May 17 21:12:50 2017*
%MOMM*%
%LPD*%
G01*
G04 APERTURE LIST*
%ADD10C,0.100000*%
%ADD11R,1.300000X1.600000*%
%ADD12R,3.399740X2.000200*%
%ADD13R,2.500580X6.000700*%
%ADD14R,2.099260X1.700480*%
%ADD15R,1.700480X2.099260*%
%ADD16R,3.100000X3.600000*%
%ADD17R,1.600000X1.150000*%
%ADD18R,1.150000X1.600000*%
%ADD19R,1.197560X1.197560*%
%ADD20C,2.749500*%
%ADD21R,2.127200X2.127200*%
%ADD22O,2.127200X2.127200*%
%ADD23R,2.127200X2.432000*%
%ADD24O,2.127200X2.432000*%
%ADD25R,2.200860X1.200100*%
%ADD26R,1.200100X2.200860*%
%ADD27R,1.600000X1.300000*%
%ADD28R,4.057600X2.432000*%
%ADD29R,1.416000X2.432000*%
%ADD30R,1.950000X1.000000*%
%ADD31R,0.850000X1.850000*%
%ADD32R,1.000000X1.900000*%
%ADD33R,1.900000X1.000000*%
%ADD34C,1.700000*%
%ADD35R,1.700000X1.700000*%
%ADD36R,1.797000X1.797000*%
%ADD37C,1.797000*%
%ADD38R,2.580000X2.000000*%
%ADD39C,3.400000*%
%ADD40C,8.400000*%
%ADD41R,2.432000X2.432000*%
%ADD42C,2.400000*%
G04 APERTURE END LIST*
D10*
G36*
X59348408Y-74539160D02*
X59348408Y-78070796D01*
X61296403Y-78070796D01*
X64372184Y-74539160D01*
X64382418Y-74547380D01*
X64392629Y-74555643D01*
X64402817Y-74563951D01*
X64412980Y-74572309D01*
X64423117Y-74580718D01*
X64433227Y-74589182D01*
X64443309Y-74597704D01*
X64453362Y-74606287D01*
X64463384Y-74614935D01*
X64473374Y-74623649D01*
X64483332Y-74632433D01*
X64493255Y-74641291D01*
X64503144Y-74650225D01*
X64512996Y-74659238D01*
X64522811Y-74668334D01*
X64532588Y-74677515D01*
X64543099Y-74687504D01*
X64553531Y-74697527D01*
X64563884Y-74707583D01*
X64574157Y-74717674D01*
X64584351Y-74727797D01*
X64594466Y-74737955D01*
X64604501Y-74748146D01*
X64614457Y-74758371D01*
X64624334Y-74768630D01*
X64634131Y-74778922D01*
X64643850Y-74789248D01*
X64653488Y-74799608D01*
X64663048Y-74810001D01*
X64672528Y-74820428D01*
X64681929Y-74830889D01*
X64691251Y-74841383D01*
X64700493Y-74851911D01*
X64709656Y-74862473D01*
X64718739Y-74873068D01*
X64727744Y-74883697D01*
X64736669Y-74894360D01*
X64745514Y-74905056D01*
X64754281Y-74915786D01*
X64762968Y-74926550D01*
X64771576Y-74937347D01*
X64780104Y-74948178D01*
X64788553Y-74959043D01*
X64796923Y-74969942D01*
X64805213Y-74980874D01*
X64813425Y-74991839D01*
X64821556Y-75002839D01*
X64829609Y-75013872D01*
X64837582Y-75024938D01*
X64845476Y-75036039D01*
X64853291Y-75047172D01*
X64861026Y-75058340D01*
X64868682Y-75069541D01*
X64876258Y-75080776D01*
X64883756Y-75092045D01*
X64891173Y-75103347D01*
X64898512Y-75114683D01*
X64905771Y-75126052D01*
X64912951Y-75137456D01*
X64920052Y-75148892D01*
X64927073Y-75160363D01*
X64934015Y-75171867D01*
X64940878Y-75183405D01*
X64947661Y-75194976D01*
X64954366Y-75206581D01*
X64960990Y-75218220D01*
X64967536Y-75229892D01*
X64974002Y-75241598D01*
X64980388Y-75253338D01*
X64986696Y-75265111D01*
X64992924Y-75276918D01*
X64999073Y-75288758D01*
X65005142Y-75300632D01*
X65011132Y-75312540D01*
X65017043Y-75324481D01*
X65022874Y-75336456D01*
X65028627Y-75348465D01*
X65034299Y-75360507D01*
X65039893Y-75372583D01*
X65045407Y-75384693D01*
X65050842Y-75396836D01*
X65056197Y-75409013D01*
X65061473Y-75421223D01*
X65066670Y-75433467D01*
X65071788Y-75445745D01*
X65076826Y-75458056D01*
X65081785Y-75470401D01*
X65086664Y-75482779D01*
X65091464Y-75495191D01*
X65096185Y-75507637D01*
X65100827Y-75520116D01*
X65105389Y-75532629D01*
X65109872Y-75545176D01*
X65114275Y-75557756D01*
X65118599Y-75570370D01*
X65122844Y-75583017D01*
X65127010Y-75595698D01*
X65131096Y-75608413D01*
X65135103Y-75621161D01*
X65139030Y-75633943D01*
X65142878Y-75646758D01*
X65146647Y-75659607D01*
X65150337Y-75672490D01*
X65153947Y-75685406D01*
X65157477Y-75698356D01*
X65160929Y-75711339D01*
X65164301Y-75724356D01*
X65167594Y-75737407D01*
X65170807Y-75750491D01*
X65173941Y-75763609D01*
X65176996Y-75776760D01*
X65179972Y-75789945D01*
X65182868Y-75803163D01*
X65185685Y-75816416D01*
X65188422Y-75829701D01*
X65191080Y-75843021D01*
X65193659Y-75856374D01*
X65196158Y-75869760D01*
X65198578Y-75883180D01*
X65200919Y-75896634D01*
X65203180Y-75910121D01*
X65205362Y-75923642D01*
X65207465Y-75937196D01*
X65209488Y-75950784D01*
X65211432Y-75964406D01*
X65213297Y-75978061D01*
X65215082Y-75991750D01*
X65216788Y-76005472D01*
X65218415Y-76019228D01*
X65219962Y-76033018D01*
X65221430Y-76046841D01*
X65222819Y-76060697D01*
X65224128Y-76074587D01*
X65225358Y-76088511D01*
X65226508Y-76102468D01*
X65227580Y-76116459D01*
X65228572Y-76130484D01*
X65229484Y-76144542D01*
X65230317Y-76158633D01*
X65231071Y-76172759D01*
X65231746Y-76186917D01*
X65232341Y-76201110D01*
X65232856Y-76215335D01*
X65233293Y-76229595D01*
X65233650Y-76243888D01*
X65233928Y-76258214D01*
X65234126Y-76272574D01*
X65234245Y-76286968D01*
X65234285Y-76301395D01*
X65234245Y-76315934D01*
X65234126Y-76330436D01*
X65233929Y-76344902D01*
X65233652Y-76359332D01*
X65233295Y-76373726D01*
X65232860Y-76388084D01*
X65232346Y-76402406D01*
X65231752Y-76416691D01*
X65231079Y-76430940D01*
X65230327Y-76445154D01*
X65229496Y-76459331D01*
X65228586Y-76473472D01*
X65227597Y-76487577D01*
X65226528Y-76501646D01*
X65225380Y-76515678D01*
X65224154Y-76529675D01*
X65222848Y-76543635D01*
X65221462Y-76557559D01*
X65219998Y-76571447D01*
X65218455Y-76585299D01*
X65216832Y-76599115D01*
X65215130Y-76612895D01*
X65213350Y-76626639D01*
X65211490Y-76640346D01*
X65209550Y-76654017D01*
X65207532Y-76667653D01*
X65205435Y-76681252D01*
X65203258Y-76694815D01*
X65201002Y-76708342D01*
X65198667Y-76721832D01*
X65196253Y-76735287D01*
X65193760Y-76748706D01*
X65191188Y-76762088D01*
X65188536Y-76775434D01*
X65185805Y-76788744D01*
X65182996Y-76802018D01*
X65180107Y-76815256D01*
X65177138Y-76828458D01*
X65174091Y-76841624D01*
X65170965Y-76854753D01*
X65167759Y-76867846D01*
X65164474Y-76880904D01*
X65161110Y-76893925D01*
X65157667Y-76906910D01*
X65154145Y-76919859D01*
X65150544Y-76932772D01*
X65146863Y-76945648D01*
X65143104Y-76958489D01*
X65139265Y-76971293D01*
X65135347Y-76984062D01*
X65131350Y-76996794D01*
X65127274Y-77009490D01*
X65123118Y-77022150D01*
X65118884Y-77034774D01*
X65114570Y-77047362D01*
X65110177Y-77059913D01*
X65105705Y-77072429D01*
X65101154Y-77084908D01*
X65096523Y-77097351D01*
X65091814Y-77109759D01*
X65087025Y-77122130D01*
X65082157Y-77134465D01*
X65077211Y-77146763D01*
X65072184Y-77159026D01*
X65067079Y-77171253D01*
X65061895Y-77183443D01*
X65056631Y-77195598D01*
X65051289Y-77207716D01*
X65045867Y-77219798D01*
X65040366Y-77231844D01*
X65034786Y-77243854D01*
X65029126Y-77255828D01*
X65023388Y-77267766D01*
X65017570Y-77279667D01*
X65011673Y-77291533D01*
X65005697Y-77303362D01*
X64999642Y-77315155D01*
X64993508Y-77326913D01*
X64987295Y-77338634D01*
X64981002Y-77350319D01*
X64974630Y-77361967D01*
X64968180Y-77373580D01*
X64961650Y-77385157D01*
X64955040Y-77396697D01*
X64948352Y-77408202D01*
X64941585Y-77419670D01*
X64934738Y-77431102D01*
X64927812Y-77442498D01*
X64920807Y-77453858D01*
X64913723Y-77465182D01*
X64906560Y-77476470D01*
X64899318Y-77487722D01*
X64891996Y-77498937D01*
X64884595Y-77510117D01*
X64877115Y-77521260D01*
X64869556Y-77532367D01*
X64861918Y-77543439D01*
X64854201Y-77554474D01*
X64846404Y-77565473D01*
X64838529Y-77576435D01*
X64830574Y-77587362D01*
X64822540Y-77598253D01*
X64814427Y-77609107D01*
X64806235Y-77619926D01*
X64797963Y-77630708D01*
X64789613Y-77641455D01*
X64781183Y-77652165D01*
X64772674Y-77662839D01*
X64764086Y-77673477D01*
X64755419Y-77684079D01*
X64746673Y-77694644D01*
X64737847Y-77705174D01*
X64728942Y-77715668D01*
X64719959Y-77726125D01*
X64710896Y-77736546D01*
X64701754Y-77746932D01*
X64692532Y-77757281D01*
X64683232Y-77767594D01*
X64673852Y-77777871D01*
X64664394Y-77788112D01*
X64654856Y-77798317D01*
X64645239Y-77808485D01*
X64635542Y-77818618D01*
X64625767Y-77828715D01*
X64615913Y-77838775D01*
X64605979Y-77848799D01*
X64595966Y-77858788D01*
X64585874Y-77868740D01*
X64575703Y-77878656D01*
X64565453Y-77888536D01*
X64555123Y-77898380D01*
X64544715Y-77908188D01*
X64534306Y-77917819D01*
X64523874Y-77927378D01*
X64513419Y-77936863D01*
X64502940Y-77946276D01*
X64492437Y-77955617D01*
X64481909Y-77964888D01*
X64471356Y-77974087D01*
X64460777Y-77983217D01*
X64450172Y-77992277D01*
X64439539Y-78001268D01*
X64428879Y-78010192D01*
X64418191Y-78019047D01*
X64407474Y-78027836D01*
X64396728Y-78036558D01*
X64385953Y-78045215D01*
X64375147Y-78053806D01*
X64364310Y-78062333D01*
X64353443Y-78070796D01*
X65680769Y-78070796D01*
X65689481Y-78059744D01*
X65698152Y-78048667D01*
X65706782Y-78037564D01*
X65715370Y-78026436D01*
X65723917Y-78015282D01*
X65732421Y-78004103D01*
X65740883Y-77992899D01*
X65749302Y-77981669D01*
X65757678Y-77970415D01*
X65766011Y-77959136D01*
X65774300Y-77947831D01*
X65782545Y-77936502D01*
X65790745Y-77925148D01*
X65798901Y-77913769D01*
X65807012Y-77902365D01*
X65815078Y-77890937D01*
X65823098Y-77879484D01*
X65831073Y-77868007D01*
X65839001Y-77856505D01*
X65846882Y-77844979D01*
X65854717Y-77833429D01*
X65862505Y-77821854D01*
X65870245Y-77810256D01*
X65877937Y-77798633D01*
X65885582Y-77786986D01*
X65893178Y-77775315D01*
X65900725Y-77763621D01*
X65908223Y-77751902D01*
X65915672Y-77740160D01*
X65923072Y-77728394D01*
X65930421Y-77716604D01*
X65937720Y-77704791D01*
X65944969Y-77692955D01*
X65952167Y-77681095D01*
X65959313Y-77669211D01*
X65966408Y-77657304D01*
X65973452Y-77645375D01*
X65980443Y-77633421D01*
X65987382Y-77621445D01*
X65994268Y-77609446D01*
X66001101Y-77597424D01*
X66007881Y-77585379D01*
X66014607Y-77573311D01*
X66021279Y-77561220D01*
X66027896Y-77549107D01*
X66034460Y-77536971D01*
X66040968Y-77524813D01*
X66047421Y-77512632D01*
X66053818Y-77500428D01*
X66060160Y-77488203D01*
X66066446Y-77475954D01*
X66072675Y-77463684D01*
X66078847Y-77451392D01*
X66084962Y-77439077D01*
X66091020Y-77426741D01*
X66097020Y-77414382D01*
X66102962Y-77402002D01*
X66108846Y-77389600D01*
X66114671Y-77377176D01*
X66120437Y-77364730D01*
X66126144Y-77352263D01*
X66131791Y-77339774D01*
X66137379Y-77327263D01*
X66142906Y-77314732D01*
X66148373Y-77302178D01*
X66153779Y-77289604D01*
X66159123Y-77277008D01*
X66164407Y-77264392D01*
X66169628Y-77251754D01*
X66174788Y-77239095D01*
X66179885Y-77226415D01*
X66184919Y-77213714D01*
X66189891Y-77200993D01*
X66194799Y-77188250D01*
X66199644Y-77175487D01*
X66204424Y-77162704D01*
X66209141Y-77149899D01*
X66213792Y-77137075D01*
X66218379Y-77124230D01*
X66222901Y-77111364D01*
X66227357Y-77098478D01*
X66231748Y-77085572D01*
X66236072Y-77072646D01*
X66240330Y-77059700D01*
X66244521Y-77046734D01*
X66248646Y-77033747D01*
X66252703Y-77020741D01*
X66256692Y-77007715D01*
X66260613Y-76994670D01*
X66264466Y-76981604D01*
X66268250Y-76968519D01*
X66271966Y-76955415D01*
X66275612Y-76942291D01*
X66279189Y-76929147D01*
X66282695Y-76915984D01*
X66286132Y-76902802D01*
X66289498Y-76889601D01*
X66292794Y-76876380D01*
X66296018Y-76863141D01*
X66299171Y-76849882D01*
X66302252Y-76836604D01*
X66305262Y-76823308D01*
X66308198Y-76809993D01*
X66311063Y-76796658D01*
X66313854Y-76783306D01*
X66316572Y-76769934D01*
X66319217Y-76756544D01*
X66321787Y-76743136D01*
X66324284Y-76729709D01*
X66326706Y-76716264D01*
X66329053Y-76702800D01*
X66331325Y-76689319D01*
X66333521Y-76675819D01*
X66335642Y-76662301D01*
X66337687Y-76648765D01*
X66339655Y-76635211D01*
X66341546Y-76621639D01*
X66343361Y-76608049D01*
X66345098Y-76594442D01*
X66346758Y-76580817D01*
X66348340Y-76567174D01*
X66349844Y-76553514D01*
X66351268Y-76539836D01*
X66352615Y-76526141D01*
X66353882Y-76512428D01*
X66355069Y-76498699D01*
X66356177Y-76484951D01*
X66357204Y-76471187D01*
X66358151Y-76457406D01*
X66359018Y-76443608D01*
X66359803Y-76429792D01*
X66360507Y-76415960D01*
X66361130Y-76402111D01*
X66361670Y-76388245D01*
X66362128Y-76374363D01*
X66362504Y-76360464D01*
X66362796Y-76346548D01*
X66363006Y-76332616D01*
X66363132Y-76318667D01*
X66363174Y-76304702D01*
X66363132Y-76290829D01*
X66363009Y-76276969D01*
X66362803Y-76263122D01*
X66362516Y-76249289D01*
X66362147Y-76235469D01*
X66361697Y-76221663D01*
X66361166Y-76207871D01*
X66360555Y-76194093D01*
X66359863Y-76180328D01*
X66359092Y-76166578D01*
X66358240Y-76152842D01*
X66357310Y-76139120D01*
X66356300Y-76125412D01*
X66355212Y-76111720D01*
X66354045Y-76098041D01*
X66352800Y-76084378D01*
X66351478Y-76070729D01*
X66350077Y-76057095D01*
X66348600Y-76043476D01*
X66347046Y-76029873D01*
X66345414Y-76016285D01*
X66343707Y-76002712D01*
X66341924Y-75989154D01*
X66340065Y-75975612D01*
X66338130Y-75962086D01*
X66336120Y-75948576D01*
X66334036Y-75935081D01*
X66331877Y-75921603D01*
X66329643Y-75908141D01*
X66327336Y-75894695D01*
X66324955Y-75881265D01*
X66322501Y-75867852D01*
X66319974Y-75854455D01*
X66317374Y-75841075D01*
X66314702Y-75827712D01*
X66311957Y-75814365D01*
X66309141Y-75801036D01*
X66306253Y-75787723D01*
X66303294Y-75774428D01*
X66300264Y-75761150D01*
X66297163Y-75747890D01*
X66293992Y-75734647D01*
X66290751Y-75721422D01*
X66287441Y-75708214D01*
X66284061Y-75695024D01*
X66280611Y-75681853D01*
X66277093Y-75668699D01*
X66273507Y-75655563D01*
X66269852Y-75642446D01*
X66266129Y-75629347D01*
X66262339Y-75616267D01*
X66258481Y-75603205D01*
X66254557Y-75590162D01*
X66250565Y-75577138D01*
X66246507Y-75564132D01*
X66242384Y-75551146D01*
X66238194Y-75538178D01*
X66233939Y-75525230D01*
X66229618Y-75512302D01*
X66225233Y-75499393D01*
X66220783Y-75486503D01*
X66216268Y-75473633D01*
X66211690Y-75460783D01*
X66207048Y-75447952D01*
X66202343Y-75435142D01*
X66197574Y-75422351D01*
X66192743Y-75409581D01*
X66187849Y-75396832D01*
X66182893Y-75384102D01*
X66177875Y-75371393D01*
X66172795Y-75358705D01*
X66167654Y-75346038D01*
X66162452Y-75333391D01*
X66157190Y-75320765D01*
X66151867Y-75308161D01*
X66146483Y-75295577D01*
X66141041Y-75283015D01*
X66135538Y-75270474D01*
X66129976Y-75257955D01*
X66124356Y-75245457D01*
X66118677Y-75232981D01*
X66112939Y-75220527D01*
X66107144Y-75208094D01*
X66101291Y-75195684D01*
X66095380Y-75183296D01*
X66089412Y-75170930D01*
X66083388Y-75158586D01*
X66077307Y-75146265D01*
X66071170Y-75133966D01*
X66064977Y-75121690D01*
X66058728Y-75109437D01*
X66052424Y-75097207D01*
X66046065Y-75085000D01*
X66039651Y-75072815D01*
X66033183Y-75060654D01*
X66026661Y-75048517D01*
X66020085Y-75036402D01*
X66013456Y-75024312D01*
X66006773Y-75012245D01*
X66000037Y-75000201D01*
X65993249Y-74988182D01*
X65986409Y-74976186D01*
X65979516Y-74964214D01*
X65972572Y-74952267D01*
X65965577Y-74940344D01*
X65958530Y-74928445D01*
X65951433Y-74916571D01*
X65944285Y-74904721D01*
X65937087Y-74892896D01*
X65929839Y-74881096D01*
X65922541Y-74869321D01*
X65915194Y-74857571D01*
X65907798Y-74845846D01*
X65900354Y-74834146D01*
X65892861Y-74822471D01*
X65885320Y-74810822D01*
X65877731Y-74799199D01*
X65870095Y-74787601D01*
X65862411Y-74776029D01*
X65854681Y-74764483D01*
X65846904Y-74752963D01*
X65839081Y-74741469D01*
X65831212Y-74730001D01*
X65823297Y-74718559D01*
X65815337Y-74707144D01*
X65807331Y-74695755D01*
X65799281Y-74684393D01*
X65791187Y-74673058D01*
X65783048Y-74661750D01*
X65774865Y-74650468D01*
X65766639Y-74639214D01*
X65758369Y-74627987D01*
X65750057Y-74616787D01*
X65741702Y-74605614D01*
X65733304Y-74594469D01*
X65724864Y-74583352D01*
X65716383Y-74572262D01*
X65707860Y-74561200D01*
X65699296Y-74550166D01*
X65690691Y-74539160D01*
X64372184Y-74539160D01*
X61296403Y-78070796D01*
X61286103Y-78062610D01*
X61275830Y-78054362D01*
X61265586Y-78046050D01*
X61255368Y-78037676D01*
X61245177Y-78029238D01*
X61235014Y-78020737D01*
X61224876Y-78012172D01*
X61214765Y-78003543D01*
X61204680Y-77994851D01*
X61194621Y-77986093D01*
X61184588Y-77977272D01*
X61174580Y-77968386D01*
X61164597Y-77959435D01*
X61154640Y-77950419D01*
X61144706Y-77941337D01*
X61134798Y-77932190D01*
X61124913Y-77922978D01*
X61115053Y-77913700D01*
X61104360Y-77903540D01*
X61093747Y-77893350D01*
X61083215Y-77883131D01*
X61072763Y-77872882D01*
X61062393Y-77862603D01*
X61052103Y-77852294D01*
X61041894Y-77841956D01*
X61031765Y-77831589D01*
X61021717Y-77821191D01*
X61011750Y-77810764D01*
X61001864Y-77800307D01*
X60992058Y-77789821D01*
X60982333Y-77779305D01*
X60972688Y-77768759D01*
X60963125Y-77758183D01*
X60953642Y-77747578D01*
X60944240Y-77736943D01*
X60934918Y-77726278D01*
X60925677Y-77715584D01*
X60916517Y-77704860D01*
X60907437Y-77694106D01*
X60898439Y-77683323D01*
X60889521Y-77672510D01*
X60880683Y-77661667D01*
X60871927Y-77650795D01*
X60863251Y-77639892D01*
X60854655Y-77628961D01*
X60846141Y-77617999D01*
X60837707Y-77607008D01*
X60829354Y-77595987D01*
X60821081Y-77584936D01*
X60812889Y-77573855D01*
X60804778Y-77562745D01*
X60796748Y-77551605D01*
X60788798Y-77540436D01*
X60780929Y-77529237D01*
X60773141Y-77518007D01*
X60765433Y-77506749D01*
X60757806Y-77495460D01*
X60750260Y-77484142D01*
X60742795Y-77472794D01*
X60735410Y-77461416D01*
X60728106Y-77450009D01*
X60720882Y-77438572D01*
X60713740Y-77427105D01*
X60706678Y-77415608D01*
X60699697Y-77404082D01*
X60692796Y-77392526D01*
X60685976Y-77380940D01*
X60679237Y-77369325D01*
X60672578Y-77357679D01*
X60666001Y-77346004D01*
X60659504Y-77334300D01*
X60653087Y-77322565D01*
X60646752Y-77310801D01*
X60640497Y-77299007D01*
X60634322Y-77287183D01*
X60628229Y-77275329D01*
X60622216Y-77263446D01*
X60616284Y-77251533D01*
X60610432Y-77239590D01*
X60604662Y-77227617D01*
X60598972Y-77215615D01*
X60593362Y-77203583D01*
X60587834Y-77191521D01*
X60582386Y-77179430D01*
X60577019Y-77167308D01*
X60571732Y-77155157D01*
X60566526Y-77142976D01*
X60561401Y-77130765D01*
X60556357Y-77118525D01*
X60551393Y-77106254D01*
X60546510Y-77093954D01*
X60541708Y-77081625D01*
X60536986Y-77069265D01*
X60532346Y-77056875D01*
X60527785Y-77044456D01*
X60523306Y-77032007D01*
X60518907Y-77019529D01*
X60514589Y-77007020D01*
X60510352Y-76994482D01*
X60506195Y-76981913D01*
X60502119Y-76969316D01*
X60498124Y-76956688D01*
X60494210Y-76944030D01*
X60490376Y-76931343D01*
X60486623Y-76918626D01*
X60482951Y-76905879D01*
X60479359Y-76893102D01*
X60475848Y-76880296D01*
X60472418Y-76867459D01*
X60469068Y-76854593D01*
X60465799Y-76841697D01*
X60462611Y-76828771D01*
X60459504Y-76815816D01*
X60456477Y-76802830D01*
X60453531Y-76789815D01*
X60450666Y-76776770D01*
X60447881Y-76763695D01*
X60445177Y-76750590D01*
X60442554Y-76737456D01*
X60440012Y-76724292D01*
X60437550Y-76711097D01*
X60435169Y-76697873D01*
X60432869Y-76684620D01*
X60430649Y-76671336D01*
X60428510Y-76658022D01*
X60426452Y-76644679D01*
X60424475Y-76631306D01*
X60422578Y-76617903D01*
X60420762Y-76604470D01*
X60419027Y-76591007D01*
X60417372Y-76577515D01*
X60415798Y-76563993D01*
X60414305Y-76550440D01*
X60412892Y-76536858D01*
X60411561Y-76523246D01*
X60410309Y-76509605D01*
X60409139Y-76495933D01*
X60408049Y-76482232D01*
X60407041Y-76468500D01*
X60406112Y-76454739D01*
X60405265Y-76440948D01*
X60404498Y-76427127D01*
X60403812Y-76413276D01*
X60403207Y-76399396D01*
X60402682Y-76385485D01*
X60402238Y-76371545D01*
X60401875Y-76357575D01*
X60401592Y-76343575D01*
X60401391Y-76329545D01*
X60401270Y-76315485D01*
X60401229Y-76301395D01*
X60401270Y-76287308D01*
X60401391Y-76273249D01*
X60401592Y-76259219D01*
X60401875Y-76245217D01*
X60402238Y-76231243D01*
X60402682Y-76217298D01*
X60403207Y-76203382D01*
X60403812Y-76189493D01*
X60404498Y-76175634D01*
X60405265Y-76161803D01*
X60406112Y-76148000D01*
X60407041Y-76134225D01*
X60408049Y-76120480D01*
X60409139Y-76106762D01*
X60410309Y-76093073D01*
X60411561Y-76079413D01*
X60412892Y-76065781D01*
X60414305Y-76052177D01*
X60415798Y-76038602D01*
X60417372Y-76025055D01*
X60419027Y-76011537D01*
X60420762Y-75998047D01*
X60422578Y-75984586D01*
X60424475Y-75971153D01*
X60426452Y-75957748D01*
X60428510Y-75944372D01*
X60430649Y-75931025D01*
X60432869Y-75917706D01*
X60435169Y-75904415D01*
X60437550Y-75891153D01*
X60440012Y-75877919D01*
X60442554Y-75864714D01*
X60445177Y-75851537D01*
X60447881Y-75838389D01*
X60450666Y-75825269D01*
X60453531Y-75812177D01*
X60456477Y-75799114D01*
X60459504Y-75786079D01*
X60462611Y-75773073D01*
X60465799Y-75760096D01*
X60469068Y-75747146D01*
X60472418Y-75734226D01*
X60475848Y-75721333D01*
X60479359Y-75708469D01*
X60482951Y-75695634D01*
X60486623Y-75682827D01*
X60490376Y-75670048D01*
X60494210Y-75657298D01*
X60498124Y-75644577D01*
X60502119Y-75631883D01*
X60506195Y-75619219D01*
X60510352Y-75606582D01*
X60514589Y-75593974D01*
X60518907Y-75581395D01*
X60523306Y-75568844D01*
X60527785Y-75556322D01*
X60532346Y-75543827D01*
X60536986Y-75531362D01*
X60541708Y-75518925D01*
X60546510Y-75506516D01*
X60551393Y-75494136D01*
X60556357Y-75481784D01*
X60561401Y-75469461D01*
X60566526Y-75457166D01*
X60571732Y-75444899D01*
X60577019Y-75432661D01*
X60582386Y-75420452D01*
X60587834Y-75408270D01*
X60593362Y-75396118D01*
X60598972Y-75383993D01*
X60604662Y-75371898D01*
X60610432Y-75359830D01*
X60616284Y-75347791D01*
X60622216Y-75335781D01*
X60628229Y-75323799D01*
X60634322Y-75311845D01*
X60640497Y-75299920D01*
X60646752Y-75288024D01*
X60653087Y-75276155D01*
X60659504Y-75264316D01*
X60666001Y-75252504D01*
X60672578Y-75240722D01*
X60679237Y-75228967D01*
X60685976Y-75217241D01*
X60692796Y-75205544D01*
X60699697Y-75193875D01*
X60706678Y-75182234D01*
X60713740Y-75170622D01*
X60720882Y-75159038D01*
X60728106Y-75147483D01*
X60735410Y-75135956D01*
X60742795Y-75124457D01*
X60750260Y-75112988D01*
X60757806Y-75101546D01*
X60765433Y-75090133D01*
X60773141Y-75078748D01*
X60780929Y-75067392D01*
X60788798Y-75056064D01*
X60796748Y-75044765D01*
X60804778Y-75033494D01*
X60812889Y-75022252D01*
X60821081Y-75011038D01*
X60829354Y-74999853D01*
X60837707Y-74988696D01*
X60846141Y-74977567D01*
X60854655Y-74966467D01*
X60863251Y-74955395D01*
X60871927Y-74944352D01*
X60880683Y-74933337D01*
X60889521Y-74922351D01*
X60898439Y-74911393D01*
X60907437Y-74900463D01*
X60916517Y-74889562D01*
X60925677Y-74878690D01*
X60934918Y-74867845D01*
X60944240Y-74857030D01*
X60953642Y-74846243D01*
X60963125Y-74835484D01*
X60972688Y-74824753D01*
X60982333Y-74814051D01*
X60992058Y-74803378D01*
X61001864Y-74792733D01*
X61011750Y-74782116D01*
X61021717Y-74771528D01*
X61031765Y-74760968D01*
X61041894Y-74750437D01*
X61052103Y-74739934D01*
X61062393Y-74729460D01*
X61072763Y-74719014D01*
X61083215Y-74708597D01*
X61093747Y-74698208D01*
X61104360Y-74687847D01*
X61115053Y-74677515D01*
X61125384Y-74667730D01*
X61135755Y-74658040D01*
X61146166Y-74648442D01*
X61156616Y-74638932D01*
X61167103Y-74629506D01*
X61177626Y-74620162D01*
X61188184Y-74610895D01*
X61198777Y-74601703D01*
X61209403Y-74592582D01*
X61220062Y-74583529D01*
X61230752Y-74574540D01*
X61241472Y-74565612D01*
X61252221Y-74556742D01*
X61262998Y-74547925D01*
X61273803Y-74539160D01*
X59348408Y-74539160D01*
X59348408Y-74539160D01*
G37*
D11*
X147955000Y-100500000D03*
X147955000Y-102700000D03*
D12*
X110792260Y-93129100D03*
X115191540Y-93129100D03*
D13*
X90881200Y-46662340D03*
X90881200Y-56360060D03*
D14*
X90322400Y-70787260D03*
X90322400Y-67287140D03*
X94361000Y-87983060D03*
X94361000Y-84482940D03*
D15*
X86133940Y-84455000D03*
X89634060Y-84455000D03*
D16*
X82690000Y-112903000D03*
X74790000Y-112903000D03*
D17*
X137805200Y-64884300D03*
X135905200Y-64884300D03*
X86522600Y-65989200D03*
X84622600Y-65989200D03*
X91506000Y-98298000D03*
X93406000Y-98298000D03*
X101920000Y-63042800D03*
X103820000Y-63042800D03*
X106690200Y-51460400D03*
X104790200Y-51460400D03*
X96255800Y-107975400D03*
X98155800Y-107975400D03*
X98872000Y-68046600D03*
X100772000Y-68046600D03*
D18*
X115062000Y-98795800D03*
X115062000Y-100695800D03*
X113030000Y-55615800D03*
X113030000Y-57515800D03*
X97332800Y-57744400D03*
X97332800Y-55844400D03*
X97383600Y-50662800D03*
X97383600Y-52562800D03*
D17*
X102486500Y-96520000D03*
X100586500Y-96520000D03*
D18*
X102819200Y-99024400D03*
X102819200Y-100924400D03*
X96012000Y-100078500D03*
X96012000Y-101978500D03*
X85953600Y-100459500D03*
X85953600Y-102359500D03*
D17*
X91861600Y-106743500D03*
X93761600Y-106743500D03*
D18*
X93980000Y-90871000D03*
X93980000Y-92771000D03*
D19*
X146050000Y-102349300D03*
X146050000Y-100850700D03*
X146050000Y-89649300D03*
X146050000Y-88150700D03*
X146050000Y-95999300D03*
X146050000Y-94500700D03*
D20*
X93939360Y-112903000D03*
X88859360Y-112903000D03*
X104178100Y-112903000D03*
X109258100Y-112903000D03*
X91399360Y-115443000D03*
X91399360Y-110363000D03*
X106718100Y-115443000D03*
X106718100Y-110363000D03*
D21*
X144018000Y-67818000D03*
D22*
X146558000Y-67818000D03*
X144018000Y-70358000D03*
X146558000Y-70358000D03*
X144018000Y-72898000D03*
X146558000Y-72898000D03*
X144018000Y-75438000D03*
X146558000Y-75438000D03*
X144018000Y-77978000D03*
X146558000Y-77978000D03*
D23*
X102743000Y-45847000D03*
D24*
X105283000Y-45847000D03*
X107823000Y-45847000D03*
X110363000Y-45847000D03*
D25*
X56111140Y-78420000D03*
X56111140Y-76520000D03*
X53108860Y-77470000D03*
X56111140Y-92390000D03*
X56111140Y-90490000D03*
X53108860Y-91440000D03*
D26*
X58486000Y-117706140D03*
X60386000Y-117706140D03*
X59436000Y-114703860D03*
D25*
X56111140Y-72832000D03*
X56111140Y-70932000D03*
X53108860Y-71882000D03*
D26*
X53850000Y-107373140D03*
X55750000Y-107373140D03*
X54800000Y-104370860D03*
X59751000Y-53362860D03*
X57851000Y-53362860D03*
X58801000Y-56365140D03*
D25*
X56111140Y-97978000D03*
X56111140Y-96078000D03*
X53108860Y-97028000D03*
X56111140Y-58862000D03*
X56111140Y-56962000D03*
X53108860Y-57912000D03*
D26*
X92898000Y-73276460D03*
X90998000Y-73276460D03*
X91948000Y-76278740D03*
X105679200Y-77853540D03*
X107579200Y-77853540D03*
X106629200Y-74851260D03*
X98313200Y-77802740D03*
X100213200Y-77802740D03*
X99263200Y-74800460D03*
D27*
X74112300Y-54457600D03*
X71912300Y-54457600D03*
X144229000Y-56642000D03*
X142029000Y-56642000D03*
D11*
X111201200Y-57665800D03*
X111201200Y-55465800D03*
X113157000Y-73576000D03*
X113157000Y-75776000D03*
D27*
X98722000Y-70358000D03*
X100922000Y-70358000D03*
X102573000Y-94615000D03*
X100373000Y-94615000D03*
D11*
X100711000Y-98849000D03*
X100711000Y-101049000D03*
X100647500Y-105240000D03*
X100647500Y-103040000D03*
D27*
X95674000Y-97663000D03*
X97874000Y-97663000D03*
X87495200Y-106794300D03*
X89695200Y-106794300D03*
D11*
X97917000Y-99801500D03*
X97917000Y-102001500D03*
X85394800Y-104475100D03*
X85394800Y-106675100D03*
D27*
X87764800Y-98399600D03*
X85564800Y-98399600D03*
X80475000Y-109093000D03*
X78275000Y-109093000D03*
D11*
X83921600Y-100601600D03*
X83921600Y-102801600D03*
D27*
X98445500Y-106172000D03*
X96245500Y-106172000D03*
X96182000Y-103949500D03*
X98382000Y-103949500D03*
D11*
X89204800Y-73677600D03*
X89204800Y-75877600D03*
X96520000Y-87206000D03*
X96520000Y-85006000D03*
X83947000Y-88984000D03*
X83947000Y-86784000D03*
X147955000Y-87800000D03*
X147955000Y-90000000D03*
X147955000Y-94150000D03*
X147955000Y-96350000D03*
X104140000Y-72814000D03*
X104140000Y-75014000D03*
X101981000Y-72814000D03*
X101981000Y-75014000D03*
X95885000Y-63924000D03*
X95885000Y-66124000D03*
X93726000Y-63924000D03*
X93726000Y-66124000D03*
D28*
X109982000Y-97739200D03*
D29*
X109982000Y-104343200D03*
X112268000Y-104343200D03*
X107696000Y-104343200D03*
D30*
X115283000Y-72009000D03*
X115283000Y-73279000D03*
X115283000Y-74549000D03*
X115283000Y-75819000D03*
X120683000Y-75819000D03*
X120683000Y-74549000D03*
X120683000Y-73279000D03*
X120683000Y-72009000D03*
D31*
X102739000Y-59973000D03*
X103389000Y-59973000D03*
X104039000Y-59973000D03*
X104689000Y-59973000D03*
X105339000Y-59973000D03*
X105989000Y-59973000D03*
X106639000Y-59973000D03*
X107289000Y-59973000D03*
X107939000Y-59973000D03*
X108589000Y-59973000D03*
X108589000Y-54073000D03*
X107939000Y-54073000D03*
X107289000Y-54073000D03*
X106639000Y-54073000D03*
X105989000Y-54073000D03*
X105339000Y-54073000D03*
X104689000Y-54073000D03*
X104039000Y-54073000D03*
X103389000Y-54073000D03*
X102739000Y-54073000D03*
D30*
X87927200Y-101130100D03*
X87927200Y-102400100D03*
X87927200Y-103670100D03*
X87927200Y-104940100D03*
X93327200Y-104940100D03*
X93327200Y-103670100D03*
X93327200Y-102400100D03*
X93327200Y-101130100D03*
D32*
X111252000Y-82009000D03*
X109982000Y-82009000D03*
X108712000Y-82009000D03*
X107442000Y-82009000D03*
X106172000Y-82009000D03*
X104902000Y-82009000D03*
X103632000Y-82009000D03*
X102362000Y-82009000D03*
X102362000Y-87409000D03*
X103632000Y-87409000D03*
X104902000Y-87409000D03*
X106172000Y-87409000D03*
X107442000Y-87409000D03*
X108712000Y-87409000D03*
X109982000Y-87409000D03*
X111252000Y-87409000D03*
D30*
X86073000Y-86741000D03*
X86073000Y-88011000D03*
X86073000Y-89281000D03*
X86073000Y-90551000D03*
X91473000Y-90551000D03*
X91473000Y-89281000D03*
X91473000Y-88011000D03*
X91473000Y-86741000D03*
D33*
X79723000Y-68453000D03*
X79723000Y-69723000D03*
X79723000Y-70993000D03*
X79723000Y-72263000D03*
X79723000Y-73533000D03*
X79723000Y-74803000D03*
X79723000Y-76073000D03*
X79723000Y-77343000D03*
X85123000Y-77343000D03*
X85123000Y-76073000D03*
X85123000Y-74803000D03*
X85123000Y-73533000D03*
X85123000Y-72263000D03*
X85123000Y-70993000D03*
X85123000Y-69723000D03*
X85123000Y-68453000D03*
D11*
X96266000Y-92794000D03*
X96266000Y-90594000D03*
D27*
X89832000Y-94932500D03*
X92032000Y-94932500D03*
X92032000Y-92646500D03*
X89832000Y-92646500D03*
X87714000Y-94932500D03*
X85514000Y-94932500D03*
X85514000Y-92646500D03*
X87714000Y-92646500D03*
X87904500Y-82042000D03*
X85704500Y-82042000D03*
X106240400Y-72694800D03*
X108440400Y-72694800D03*
X101719200Y-77825600D03*
X103919200Y-77825600D03*
D10*
G36*
X119710017Y-112139421D02*
X120360579Y-113710017D01*
X118789983Y-114360579D01*
X118139421Y-112789983D01*
X119710017Y-112139421D01*
X119710017Y-112139421D01*
G37*
D34*
X114630602Y-115163417D03*
D35*
X50927000Y-96012000D03*
D34*
X50927000Y-91012000D03*
D36*
X112649000Y-109855000D03*
D37*
X112649000Y-117475000D03*
D38*
X144302430Y-60200320D03*
X135097570Y-60195680D03*
X83367830Y-51475420D03*
X74162970Y-51470780D03*
D39*
X124500000Y-114250000D03*
X129500000Y-114250000D03*
X124500000Y-94500000D03*
X129500000Y-94500000D03*
D40*
X145161000Y-117475000D03*
X145161000Y-48260000D03*
X52750000Y-48250000D03*
X52750000Y-117500000D03*
D41*
X118110000Y-104775000D03*
D42*
X120650000Y-104775000D03*
X123190000Y-104775000D03*
X125730000Y-104775000D03*
X128270000Y-104775000D03*
X130810000Y-104775000D03*
X125730000Y-120015000D03*
X128270000Y-120015000D03*
X118110000Y-120015000D03*
X120650000Y-120015000D03*
X130810000Y-120015000D03*
X123190000Y-120015000D03*
D41*
X118110000Y-85090000D03*
D42*
X120650000Y-85090000D03*
X123190000Y-85090000D03*
X125730000Y-85090000D03*
X128270000Y-85090000D03*
X130810000Y-85090000D03*
X125730000Y-100330000D03*
X128270000Y-100330000D03*
X118110000Y-100330000D03*
X120650000Y-100330000D03*
X130810000Y-100330000D03*
X123190000Y-100330000D03*
D41*
X118110000Y-65405000D03*
D42*
X120650000Y-65405000D03*
X123190000Y-65405000D03*
X125730000Y-65405000D03*
X128270000Y-65405000D03*
X130810000Y-65405000D03*
X125730000Y-80645000D03*
X128270000Y-80645000D03*
X118110000Y-80645000D03*
X120650000Y-80645000D03*
X130810000Y-80645000D03*
X123190000Y-80645000D03*
D41*
X118110000Y-45720000D03*
D42*
X120650000Y-45720000D03*
X123190000Y-45720000D03*
X125730000Y-45720000D03*
X128270000Y-45720000D03*
X130810000Y-45720000D03*
X125730000Y-60960000D03*
X128270000Y-60960000D03*
X118110000Y-60960000D03*
X120650000Y-60960000D03*
X130810000Y-60960000D03*
X123190000Y-60960000D03*
D41*
X67310000Y-45720000D03*
D42*
X69850000Y-45720000D03*
X72390000Y-45720000D03*
X74930000Y-45720000D03*
X77470000Y-45720000D03*
X80010000Y-45720000D03*
X74930000Y-60960000D03*
X77470000Y-60960000D03*
X67310000Y-60960000D03*
X69850000Y-60960000D03*
X80010000Y-60960000D03*
X72390000Y-60960000D03*
D41*
X67310000Y-65405000D03*
D42*
X69850000Y-65405000D03*
X72390000Y-65405000D03*
X74930000Y-65405000D03*
X77470000Y-65405000D03*
X80010000Y-65405000D03*
X74930000Y-80645000D03*
X77470000Y-80645000D03*
X67310000Y-80645000D03*
X69850000Y-80645000D03*
X80010000Y-80645000D03*
X72390000Y-80645000D03*
D41*
X67310000Y-85090000D03*
D42*
X69850000Y-85090000D03*
X72390000Y-85090000D03*
X74930000Y-85090000D03*
X77470000Y-85090000D03*
X80010000Y-85090000D03*
X74930000Y-100330000D03*
X77470000Y-100330000D03*
X67310000Y-100330000D03*
X69850000Y-100330000D03*
X80010000Y-100330000D03*
X72390000Y-100330000D03*
D41*
X67310000Y-104775000D03*
D42*
X69850000Y-104775000D03*
X72390000Y-104775000D03*
X74930000Y-104775000D03*
X77470000Y-104775000D03*
X80010000Y-104775000D03*
X74930000Y-120015000D03*
X77470000Y-120015000D03*
X67310000Y-120015000D03*
X69850000Y-120015000D03*
X80010000Y-120015000D03*
X72390000Y-120015000D03*
M02*
