<?xml version="1.0" encoding="UTF-8" standalone="no"?>
<!-- Created with Inkscape (http://www.inkscape.org/) -->

<svg
   xmlns:dc="http://purl.org/dc/elements/1.1/"
   xmlns:cc="http://creativecommons.org/ns#"
   xmlns:rdf="http://www.w3.org/1999/02/22-rdf-syntax-ns#"
   xmlns:svg="http://www.w3.org/2000/svg"
   xmlns="http://www.w3.org/2000/svg"
   xmlns:sodipodi="http://sodipodi.sourceforge.net/DTD/sodipodi-0.dtd"
   xmlns:inkscape="http://www.inkscape.org/namespaces/inkscape"
   inkscape:export-ydpi="10160"
   inkscape:export-xdpi="10160"
   inkscape:export-filename="/home/mike/git/keyboard-pcbs/amoeba/dt.copper.png"
   sodipodi:docname="label_data.svg"
   inkscape:version="0.91 r13725"
   version="1.1"
   id="svg3350"
   height="12.5mm"
   width="25mm">
  <sodipodi:namedview
     id="base"
     pagecolor="#cc0000"
     bordercolor="#666666"
     borderopacity="1.0"
     inkscape:pageopacity="0"
     inkscape:pageshadow="2"
     inkscape:zoom="0.5"
     inkscape:cx="-263.29656"
     inkscape:cy="-12.299364"
     inkscape:document-units="mm"
     inkscape:current-layer="layer6"
     showgrid="false"
     fit-margin-top="0"
     fit-margin-left="0"
     fit-margin-right="0"
     fit-margin-bottom="0"
     inkscape:window-width="1366"
     inkscape:window-height="724"
     inkscape:window-x="3"
     inkscape:window-y="44"
     inkscape:window-maximized="0"
     inkscape:snap-bbox="true"
     inkscape:snap-page="true"
     inkscape:snap-global="true"
     inkscape:object-paths="true"
     units="mm"
     inkscape:snap-bbox-midpoints="true" />
  <defs
     id="defs3352">
    <clipPath
       id="clipPath3442"
       clipPathUnits="userSpaceOnUse">
      <rect
         y="239.1203"
         x="171.99832"
         height="12.483703"
         width="20.614058"
         id="rect3444"
         style="fill:#000000;fill-opacity:1;stroke:none;stroke-width:0.92243534;stroke-miterlimit:4;stroke-dasharray:none;stroke-opacity:1" />
    </clipPath>
  </defs>
  <metadata
     id="metadata3355">
    <rdf:RDF>
      <cc:Work
         rdf:about="">
        <dc:format>image/svg+xml</dc:format>
        <dc:type
           rdf:resource="http://purl.org/dc/dcmitype/StillImage" />
        <dc:title />
      </cc:Work>
    </rdf:RDF>
  </metadata>
  <g
     style="display:none"
     transform="translate(11.135153,37.84311)"
     inkscape:label="Pretty"
     id="layer24"
     inkscape:groupmode="layer">
    <g
       inkscape:label="Fab"
       id="layer25"
       inkscape:groupmode="layer" />
    <g
       inkscape:label="CrtYd"
       id="layer26"
       inkscape:groupmode="layer" />
  </g>
  <g
     style="display:none"
     transform="translate(11.135153,37.84311)"
     inkscape:label="Legacy"
     id="layer17"
     inkscape:groupmode="layer">
    <g
       inkscape:label="Edge.Cuts"
       id="layer23"
       inkscape:groupmode="layer" />
    <g
       inkscape:label="User"
       id="layer18"
       inkscape:groupmode="layer">
      <g
         inkscape:label="Eco2.User"
         id="layer19"
         inkscape:groupmode="layer" />
      <g
         inkscape:label="Eco1.User"
         id="layer20"
         inkscape:groupmode="layer" />
      <g
         inkscape:label="Cmts.User"
         id="layer21"
         inkscape:groupmode="layer" />
      <g
         inkscape:label="Dwgs.User"
         id="layer22"
         inkscape:groupmode="layer" />
    </g>
  </g>
  <g
     transform="translate(11.135153,37.84311)"
     style="display:inline"
     inkscape:label="Mask"
     id="layer1"
     inkscape:groupmode="layer">
    <path
       sodipodi:nodetypes="cccscc"
       id="path3753"
       d="m -0.222753,-9.1208684 0,12.514489 22.436956,0 c 1.443935,-1.825353 2.418362,-3.94673602 2.418362,-6.257244 0,-2.295095 -0.957655,-4.439672 -2.383882,-6.257245 l -22.471436,0 z"
       style="display:inline;fill:#ffcc00;fill-opacity:1;stroke:none;stroke-width:1;stroke-miterlimit:4;stroke-dasharray:none;stroke-opacity:0.46913578"
       inkscape:connector-curvature="0" />
  </g>
  <g
     transform="translate(11.135153,37.84311)"
     style="display:inline"
     inkscape:label="SilkS"
     id="layer6"
     inkscape:groupmode="layer">
    <flowRoot
       xml:space="preserve"
       id="flowRoot10713-9"
       style="font-style:normal;font-weight:normal;font-size:13.44865322px;line-height:125%;font-family:sans-serif;letter-spacing:0px;word-spacing:0px;display:inline;fill:#ffffff;fill-opacity:1;stroke:none;stroke-width:1px;stroke-linecap:butt;stroke-linejoin:miter;stroke-opacity:1"
       transform="matrix(1.117343,0,0,1.117343,5.8992553,4.4004009)"><flowRegion
         id="flowRegion10715-0"><rect
           id="rect10717-8"
           width="69.235962"
           height="30.10586"
           x="1.1544319"
           y="-27.699656"
           style="fill:#ffffff" /></flowRegion><flowPara
         id="flowPara10719-9"
         style="font-style:normal;font-variant:normal;font-weight:bold;font-stretch:normal;font-size:8.96576881px;font-family:'Droid Sans';-inkscape-font-specification:'Droid Sans Bold';fill:#ffffff">© 2017 jaseg</flowPara></flowRoot>    <g
       id="g10908"
       transform="matrix(1.117343,0,0,1.117343,16.342832,-19.10993)">
      <path
         id="rect3749"
         d="m -15.932028,7.52883 0,14 61.766301,0 0,-14 -61.766301,0 z m 1.159034,1.398437 59.44976,0 0,11.201172 -59.44976,0 0,-11.201172 z"
         style="fill:#ffffff;fill-opacity:1;stroke:none;stroke-width:0.99999994;stroke-miterlimit:4;stroke-dasharray:none;stroke-opacity:1"
         inkscape:connector-curvature="0" />
      <path
         inkscape:connector-curvature="0"
         id="path3757"
         cx="296.35416"
         ry="22.939548"
         cy="264.3577"
         type="arc"
         rx="22.939548"
         d="m 2.8646401,14.528033 c 0.0019,3.491845 -2.99096811,6.32397 -6.6851518,6.326222 -3.6941932,0.0018 -6.6911033,-2.826742 -6.6932483,-6.31856 0,-0.0027 0,-0.0054 0,-0.0081 -0.0019,-3.491845 2.9909581,-6.3239701 6.6851513,-6.3260068 3.69466779,-0.00179 6.6911035,2.8267508 6.6932488,6.3185958 0,0.0018 0,0.0045 0,0.0072 z"
         style="opacity:1;fill:#ffffff" />
      <path
         inkscape:connector-curvature="0"
         d="m 1.6131533,9.3783564 c 1.483348,1.4019986 2.2251312,3.1190096 2.2251312,5.1496766 0,2.031107 -0.7289305,3.729671 -2.1867914,5.095657 -1.54714643,1.438694 -3.3756854,2.157799 -5.4855884,2.157799 -2.0844349,0 -3.8812978,-0.713264 -5.3901139,-2.139774 -1.5090538,-1.426313 -2.2634708,-3.130718 -2.2634708,-5.113682 0,-1.982524 0.754417,-3.699086 2.2634708,-5.1496766 1.4704858,-1.4024476 3.2673487,-2.1035638 5.3901139,-2.1035638 2.1484896,0 3.96392905,0.7011072 5.4472486,2.1035638 z m -9.8387056,0.9432046 c -1.2540877,1.197251 -1.8808987,2.599699 -1.8808987,4.208473 0,1.608343 0.6206219,2.998876 1.8616196,4.171599 1.2412255,1.173162 2.7188591,1.759528 4.4333565,1.759528 1.7145068,0 3.2047368,-0.592206 4.4714494,-1.777301 1.2026769,-1.100733 1.8042479,-2.484716 1.8042479,-4.153826 0,-1.656477 -0.6113387,-3.062505 -1.83329463,-4.217454 C -0.59079088,9.1578546 -2.0715095,8.5802543 -3.8114749,8.5802543 c -1.7399655,9e-6 -3.2116378,0.5805252 -4.4140774,1.7413067 z m 3.3002018,3.500861 c -0.1916324,-0.394888 -0.4784831,-0.592449 -0.8610551,-0.592449 -0.6763236,0 -1.0143668,0.430435 -1.0143668,1.290865 0,0.860618 0.3380432,1.290613 1.0143668,1.290613 0.4466077,0 0.7655996,-0.209466 0.9570042,-0.629323 l 0.9374689,0.471831 c -0.446845,0.750389 -1.1172074,1.125674 -2.0111156,1.125674 -0.6894042,0 -1.2417002,-0.199795 -1.6564039,-0.598954 -0.4154157,-0.399598 -0.6225207,-0.950408 -0.6225207,-1.652646 0,-0.689874 0.2137687,-1.237535 0.6415624,-1.643199 0.4277938,-0.40569 0.9605544,-0.608436 1.5992692,-0.608436 0.9448539,0 1.6214054,0.351921 2.0303947,1.055047 l -1.0146041,0.490977 z m 4.41051776,0 C -0.706712,13.427534 -0.98784825,13.229973 -1.3585263,13.229973 c -0.6898882,0 -1.0350791,0.430435 -1.0350791,1.290865 0,0.860618 0.3451909,1.290613 1.0350791,1.290613 0.44732913,0 0.76059714,-0.209466 0.93939589,-0.629323 l 0.9584186,0.471831 c -0.44613305,0.750389 -1.1155557,1.125674 -2.00779329,1.125674 -0.6884644,0 -1.2395644,-0.199795 -1.6540308,-0.598954 -0.413745,-0.399598 -0.6210779,-0.950408 -0.6210779,-1.652646 0,-0.689874 0.2104274,-1.237535 0.6310829,-1.643199 0.4204086,-0.40569 0.9555709,-0.608436 1.6059518,-0.608436 0.94318327,0 1.61878547,0.351921 2.02634144,1.055047 l -1.03459508,0.490977 z"
         id="path3759"
         style="opacity:1;fill:#cc0000" />
      <path
         inkscape:connector-curvature="0"
         id="text3761"
         d="m 12.626823,13.896085 c 0.242412,0 0.426216,-0.05003 0.551421,-0.150036 0.125195,-0.100028 0.187793,-0.247553 0.187803,-0.442615 -10e-6,-0.192541 -0.06261,-0.338825 -0.187803,-0.438852 -0.125205,-0.10252 -0.309009,-0.153779 -0.551421,-0.153789 l -0.851089,0 0,1.185292 0.851089,0 m 0.05194,2.449339 c 0.30901,0 0.540756,-0.06123 0.695271,-0.183786 0.157161,-0.122531 0.235746,-0.307577 0.235746,-0.555149 0,-0.24255 -0.07722,-0.423844 -0.231757,-0.543873 -0.154494,-0.12253 -0.387584,-0.183796 -0.69926,-0.183796 l -0.903031,0 0,1.466604 0.903031,0 m 1.430486,-2.014239 c 0.330309,0.09007 0.586033,0.256318 0.76719,0.498868 0.181128,0.242568 0.271701,0.54014 0.271711,0.892723 -10e-6,0.54014 -0.194478,0.942732 -0.583386,1.207794 -0.388918,0.265063 -0.980293,0.397599 -1.774117,0.397599 l -2.553275,0 0,-5.600111 2.30954,0 c 0.828445,0 1.427809,0.117528 1.798083,0.352583 0.37293,0.235055 0.5594,0.611401 0.5594,1.129029 0,0.272567 -0.06794,0.505121 -0.203771,0.697671 -0.13586,0.19004 -0.332985,0.331321 -0.591375,0.423844 m 0.905114,-2.603127 1.68221,0 1.358556,1.995478 1.358546,-1.995478 1.686208,0 -2.273584,3.240784 0,2.359327 -1.538351,0 0,-2.359327 -2.273585,-3.240784 m 5.254409,2.843186 2.509331,0 0,1.091517 -2.509331,0 0,-1.091517 m 7.863636,-2.666904 0,1.185301 c -0.327653,-0.137539 -0.647318,-0.241309 -0.958973,-0.311329 -0.311676,-0.07 -0.60604,-0.10503 -0.883064,-0.10503 -0.367617,0 -0.639318,0.04751 -0.815133,0.142532 -0.175825,0.09503 -0.263723,0.242569 -0.263723,0.442614 0,0.150046 0.05856,0.267574 0.175805,0.352583 0.119883,0.08251 0.335642,0.153789 0.647318,0.213803 l 0.655306,0.123772 c 0.663285,0.125041 1.134788,0.31509 1.414488,0.570147 0.2797,0.255067 0.41955,0.617655 0.41956,1.087756 -10e-6,0.617665 -0.195792,1.07777 -0.587376,1.380344 -0.388928,0.300072 -0.984293,0.450109 -1.786105,0.450109 -0.378262,0 -0.757858,-0.03379 -1.138777,-0.101278 -0.380939,-0.06748 -0.761868,-0.167546 -1.142787,-0.300073 l 0,-1.219041 c 0.380919,0.190049 0.748527,0.333831 1.102823,0.431348 0.356952,0.09502 0.700583,0.142542 1.030902,0.142542 0.335642,0 0.592699,-0.05255 0.77118,-0.157541 0.178471,-0.105021 0.267712,-0.255066 0.267712,-0.450109 0,-0.175041 -0.06123,-0.310078 -0.183794,-0.405103 -0.119883,-0.09502 -0.360962,-0.180043 -0.723237,-0.255057 l -0.595364,-0.123781 c -0.596698,-0.120029 -1.033569,-0.311328 -1.310613,-0.57389 -0.274377,-0.262561 -0.411561,-0.616395 -0.411561,-1.06151 0,-0.557622 0.191792,-0.986478 0.575397,-1.28656 0.383586,-0.300073 0.934997,-0.450109 1.654234,-0.450109 0.327653,0 0.664618,0.02371 1.010925,0.07131 0.346288,0.04499 0.704573,0.113776 1.074857,0.206289 m 5.366283,4.403573 -2.405436,0 -0.379596,1.020256 -1.546349,0 2.209644,-5.600111 1.834048,0 2.209644,5.600111 -1.546349,0 -0.375606,-1.020256 m -2.021841,-1.038998 1.634256,0 -0.815124,-2.228041 -0.819132,2.228041"
         style="font-style:normal;font-weight:bold;font-size:8.25858784px;font-family:'Bitstream Vera Sans';fill:#ffffff;fill-opacity:1;stroke:none;stroke-width:1px;stroke-linecap:butt;stroke-linejoin:miter;stroke-opacity:1" />
    </g>
    <g
       transform="matrix(1.117343,0,0,1.117343,0.89833547,-36.46275)"
       style="font-style:normal;font-weight:normal;font-size:13.44865322px;line-height:125%;font-family:sans-serif;letter-spacing:0px;word-spacing:0px;display:inline;fill:#ffffff;fill-opacity:1;stroke:none;stroke-width:1px;stroke-linecap:butt;stroke-linejoin:miter;stroke-opacity:1;opacity:0.98"
       id="flowRoot10713-9-7">
      <path
         d="m 2.9421746,6.8116225 -1.4052792,-5.0213558 -0.0394,0 q 0.026267,0.4027591 0.043778,0.7792514 0.00876,0.1619792 0.013133,0.332714 0.00876,0.1707349 0.013133,0.3370919 0.00876,0.1663571 0.00876,0.3195807 0.00438,0.1532235 0.00438,0.2758024 l 0,2.9769154 -1.21265521,0 0,-6.40036812 1.84743871,0 1.3833901,4.89439922 0.026267,0 1.4709464,-4.89439922 1.8474387,0 0,6.40036812 -1.265189,0 0,-3.0294492 q 0,-0.1138232 0,-0.2582912 0.00438,-0.1444679 0.00876,-0.3064472 0.00438,-0.1619792 0.00876,-0.3283362 0.00876,-0.1663571 0.013133,-0.3239585 0.017511,-0.3677366 0.030645,-0.7661179 l -0.035023,0 -1.5147246,5.0126002 -1.2476778,0 z"
         style="font-style:normal;font-variant:normal;font-weight:bold;font-stretch:normal;font-size:8.96576881px;font-family:'Droid Sans';-inkscape-font-specification:'Droid Sans Bold';fill:#ffffff"
         id="path4938" />
      <path
         d="m 10.436997,2.7752755 q -0.354603,0 -0.591005,0.2495355 -0.2320243,0.2495356 -0.2670468,0.7836292 l 1.7029708,0 Q 11.277538,3.5851716 11.225004,3.3969254 11.172471,3.2086793 11.067403,3.072967 10.962335,2.9328769 10.804734,2.8540762 10.647132,2.7752755 10.436997,2.7752755 Z m 0.170735,4.1239034 q -0.525338,0 -0.9674974,-0.1532236 Q 9.1980751,6.5927317 8.8784945,6.2862845 8.5589139,5.9754595 8.3794234,5.5070331 8.2043107,5.0342289 8.2043107,4.3994455 q 0,-0.6435391 0.1619792,-1.1250989 Q 8.5282692,2.7927867 8.8172051,2.4732061 9.1105188,2.1492476 9.5176558,1.9872684 9.9291705,1.8252892 10.428242,1.8252892 q 0.485937,0 0.875563,0.1488458 0.394004,0.1444679 0.665428,0.429026 0.275803,0.2845581 0.420271,0.7004507 0.148845,0.4115148 0.148845,0.9456084 l 0,0.6479169 -2.9856707,0 q 0.00876,0.2801803 0.087556,0.5078268 0.083179,0.2232686 0.2276465,0.38087 0.1488459,0.1532236 0.3546029,0.2364021 0.210135,0.083179 0.477182,0.083179 0.223269,0 0.420271,-0.021889 0.201379,-0.026267 0.389625,-0.074423 0.188247,-0.048156 0.372115,-0.1182011 0.183868,-0.074423 0.376492,-0.1707348 l 0,1.0331648 q -0.175113,0.091934 -0.354603,0.1576014 -0.175113,0.061289 -0.372115,0.1050676 -0.197001,0.043778 -0.424648,0.061289 -0.227646,0.021889 -0.499071,0.021889 z"
         style="font-style:normal;font-variant:normal;font-weight:bold;font-stretch:normal;font-size:8.96576881px;font-family:'Droid Sans';-inkscape-font-specification:'Droid Sans Bold';fill:#ffffff"
         id="path4940" />
      <path
         d="m 17.726063,1.925979 0,0.7267176 -0.713584,0.2232686 q 0.08756,0.1488458 0.122578,0.310825 0.03502,0.1576014 0.03502,0.3414697 0,0.3721145 -0.118201,0.6829395 -0.118201,0.3064471 -0.350225,0.525338 -0.232025,0.2188908 -0.58225,0.3414697 -0.350225,0.118201 -0.814274,0.118201 -0.10069,0 -0.218891,-0.00876 -0.118201,-0.013133 -0.175113,-0.026267 -0.08756,0.074423 -0.14009,0.1576014 -0.04816,0.078801 -0.04816,0.192624 0,0.091934 0.05691,0.1488457 0.05691,0.052534 0.148846,0.087556 0.09193,0.030645 0.214513,0.043778 0.122579,0.00876 0.253913,0.00876 l 0.76174,0 q 0.354603,0 0.634784,0.083178 0.28018,0.078801 0.472804,0.2451577 0.197002,0.1663571 0.302069,0.4246483 0.105068,0.2539133 0.105068,0.6085165 0,0.4158926 -0.166357,0.7486067 -0.166357,0.3370919 -0.499071,0.5691161 -0.328337,0.2364022 -0.818652,0.358981 -0.490316,0.1269567 -1.133855,0.1269567 -0.499071,0 -0.871185,-0.096312 Q 13.812294,8.7772623 13.562759,8.5977718 13.313223,8.4226591 13.186267,8.1731236 13.063688,7.923588 13.063688,7.6083852 q 0,-0.2670468 0.09193,-0.4640486 0.09193,-0.1970017 0.245158,-0.3370919 0.153223,-0.1400901 0.345847,-0.2276464 0.197002,-0.087556 0.402759,-0.1357124 -0.09193,-0.0394 -0.183868,-0.1094454 -0.08756,-0.070045 -0.161979,-0.1619792 -0.07005,-0.091934 -0.118201,-0.2013796 -0.04378,-0.1138232 -0.04378,-0.2364021 0,-0.1400901 0.0394,-0.2539134 0.04378,-0.1138232 0.122579,-0.2101352 0.0788,-0.1006898 0.197002,-0.1882461 0.118201,-0.087556 0.267046,-0.1794905 Q 13.88234,4.7365374 13.654693,4.3688008 13.431424,4.0010642 13.431424,3.501993 q 0,-0.3940035 0.122579,-0.7048285 0.122579,-0.310825 0.358981,-0.525338 0.236402,-0.2188908 0.586628,-0.3327141 0.350225,-0.1138232 0.805518,-0.1138232 0.08756,0 0.197002,0.013133 0.109445,0.00876 0.214513,0.026267 0.109445,0.013133 0.201379,0.030645 0.09193,0.017511 0.144468,0.030645 l 1.663571,0 z m -3.502254,5.5773386 q 0,0.1094454 0.04378,0.2101352 0.04816,0.1050676 0.153224,0.1838683 0.105068,0.078801 0.275802,0.1225789 0.170735,0.048156 0.420271,0.048156 0.682939,0 1.028787,-0.192624 0.345847,-0.1926239 0.345847,-0.5165824 0,-0.2758024 -0.214513,-0.3677366 -0.214513,-0.091934 -0.665428,-0.091934 l -0.617272,0 q -0.118201,0 -0.253913,0.026267 -0.135713,0.030645 -0.249536,0.1006898 -0.113823,0.070045 -0.192624,0.1838683 -0.07442,0.118201 -0.07442,0.2933137 z m 0.48156,-3.9838133 q 0,0.3983813 0.148846,0.6172722 0.148846,0.2188908 0.450915,0.2188908 0.315203,0 0.455293,-0.2188908 0.14009,-0.2188909 0.14009,-0.6172722 0,-0.3940035 -0.14009,-0.6260278 -0.135712,-0.2320243 -0.455293,-0.2320243 -0.599761,0 -0.599761,0.8580521 z"
         style="font-style:normal;font-variant:normal;font-weight:bold;font-stretch:normal;font-size:8.96576881px;font-family:'Droid Sans';-inkscape-font-specification:'Droid Sans Bold';fill:#ffffff"
         id="path4942" />
      <path
         d="m 21.832455,6.8116225 -0.179491,-0.6260278 -0.07005,0 q -0.109445,0.1882462 -0.262669,0.3239585 -0.148846,0.1313345 -0.328336,0.2188908 -0.179491,0.087556 -0.38087,0.1269567 -0.20138,0.043778 -0.411515,0.043778 -0.358981,0 -0.652295,-0.1006898 Q 19.253921,6.6934215 19.043785,6.4745306 18.83365,6.2556398 18.719827,5.9185479 18.606004,5.581456 18.606004,5.1086518 l 0,-3.1914284 1.335234,0 0,2.8587143 q 0,0.5297159 0.157601,0.7967627 0.161979,0.262669 0.512205,0.262669 0.262669,0 0.437781,-0.1050676 0.175113,-0.1050676 0.275803,-0.310825 0.105068,-0.2057574 0.148846,-0.5078267 0.04378,-0.3020694 0.04378,-0.6916951 l 0,-2.3027316 1.335234,0 0,4.8943991 -1.020031,0 z"
         style="font-style:normal;font-variant:normal;font-weight:bold;font-stretch:normal;font-size:8.96576881px;font-family:'Droid Sans';-inkscape-font-specification:'Droid Sans Bold';fill:#ffffff"
         id="path4944" />
      <path
         d="m 28.456091,6.8116225 -1.335234,0 0,-2.8587143 q 0,-0.5297159 -0.157601,-0.7923849 -0.157602,-0.2670468 -0.494693,-0.2670468 -0.253914,0 -0.424649,0.1050676 -0.166357,0.1050676 -0.267047,0.310825 -0.100689,0.2057574 -0.144467,0.5078268 -0.04378,0.3020693 -0.04378,0.691695 l 0,2.3027316 -1.335234,0 0,-4.8943991 1.020032,0 0.17949,0.6260278 0.07442,0 Q 25.6324,2.355005 25.776867,2.2192927 q 0.148846,-0.1357123 0.323959,-0.2232686 0.175113,-0.087556 0.372114,-0.1269567 0.197002,-0.043778 0.398382,-0.043778 0.503449,0 0.853674,0.1751127 0.354603,0.1707348 0.542849,0.5428493 l 0.109446,0 Q 28.482358,2.355005 28.631204,2.2192927 28.78005,2.0835804 28.95954,1.9960241 q 0.179491,-0.087556 0.376493,-0.1269567 0.201379,-0.043778 0.402759,-0.043778 0.788007,0 1.186388,0.4290261 0.402759,0.4246482 0.402759,1.3658788 l 0,3.1914284 -1.339612,0 0,-2.8587143 q 0,-0.5297159 -0.157601,-0.7923849 -0.157602,-0.2670468 -0.494693,-0.2670468 -0.477182,0 -0.678562,0.3808701 -0.20138,0.3764922 -0.20138,1.0813207 l 0,2.4559552 z"
         style="font-style:normal;font-variant:normal;font-weight:bold;font-stretch:normal;font-size:8.96576881px;font-family:'Droid Sans';-inkscape-font-specification:'Droid Sans Bold';fill:#ffffff"
         id="path4946" />
      <path
         d="m 32.636905,0.6520343 q 0,-0.18824612 0.05691,-0.31082499 0.05691,-0.12695669 0.153224,-0.20137958 0.100689,-0.0788007 0.232024,-0.10944542 0.135712,-0.0306447128 0.284558,-0.0306447128 0.148846,0 0.28018,0.0306447128 0.131335,0.03064472 0.227647,0.10944542 0.100689,0.0744229 0.157601,0.20137958 0.06129,0.12257887 0.06129,0.31082499 0,0.18386831 -0.06129,0.31082499 -0.05691,0.12695671 -0.157601,0.20575741 -0.09631,0.074423 -0.227647,0.1094454 -0.131334,0.030645 -0.28018,0.030645 -0.148846,0 -0.284558,-0.030645 Q 32.94773,1.2430396 32.847041,1.1686167 32.750729,1.089816 32.693817,0.96285929 32.636905,0.83590261 32.636905,0.6520343 Z m 1.392146,6.1595882 -1.335234,0 0,-4.8943991 1.335234,0 0,4.8943991 z"
         style="font-style:normal;font-variant:normal;font-weight:bold;font-stretch:normal;font-size:8.96576881px;font-family:'Droid Sans';-inkscape-font-specification:'Droid Sans Bold';fill:#ffffff"
         id="path4948" />
      <path
         d="m 39.672057,6.8116225 -1.335234,0 0,-2.8587143 q 0,-0.5297159 -0.161979,-0.7923849 -0.157601,-0.2670468 -0.507827,-0.2670468 -0.262669,0 -0.437781,0.1050676 -0.175113,0.1050676 -0.280181,0.310825 -0.100689,0.2057574 -0.144468,0.5078268 -0.04378,0.3020693 -0.04378,0.691695 l 0,2.3027316 -1.335234,0 0,-4.8943991 1.020031,0 0.179491,0.6260278 0.07442,0 q 0.105067,-0.1882462 0.253913,-0.3239585 0.153224,-0.1357123 0.332714,-0.2232686 0.179491,-0.087556 0.38087,-0.1269567 0.20138,-0.043778 0.411515,-0.043778 0.358981,0 0.652295,0.1050676 0.293313,0.1006898 0.503449,0.3195806 0.210135,0.2188909 0.323958,0.5603606 0.113823,0.3370919 0.113823,0.8098961 l 0,3.1914284 z"
         style="font-style:normal;font-variant:normal;font-weight:bold;font-stretch:normal;font-size:8.96576881px;font-family:'Droid Sans';-inkscape-font-specification:'Droid Sans Bold';fill:#ffffff"
         id="path4950" />
      <path
         d="m 44.404477,6.8116225 -1.729237,-4.8943991 1.396523,0 0.809896,2.7886693 q 0.07442,0.2495355 0.126957,0.5209602 0.05691,0.2670468 0.07004,0.4815598 l 0.02627,0 q 0.01313,-0.2320243 0.06567,-0.4903155 0.05691,-0.262669 0.131335,-0.5122045 l 0.805518,-2.7886693 1.400901,0 -1.729237,4.8943991 -1.374635,0 z"
         style="font-style:normal;font-variant:normal;font-weight:bold;font-stretch:normal;font-size:8.96576881px;font-family:'Droid Sans';-inkscape-font-specification:'Droid Sans Bold';fill:#ffffff"
         id="path4952" />
      <path
         d="m 52.170725,3.6114385 q 0,0.7748735 -0.122579,1.3833901 -0.118201,0.6085165 -0.385247,1.0331647 -0.262669,0.4246483 -0.68294,0.6479169 -0.415892,0.2232687 -1.006898,0.2232687 -0.555983,0 -0.967497,-0.2232687 Q 48.594049,6.4526416 48.322624,6.0279933 48.0512,5.6033451 47.915487,4.9948286 47.784153,4.386312 47.784153,3.6114385 q 0,-0.7748736 0.118201,-1.387768 0.122579,-0.6128943 0.385248,-1.0375425 0.262669,-0.42464828 0.678561,-0.64791694 0.415893,-0.22764647 1.006898,-0.22764647 0.551605,0 0.96312,0.22326866 0.411515,0.22326865 0.687317,0.64791685 0.275803,0.4246483 0.411515,1.0375426 0.135712,0.6128944 0.135712,1.3921458 z m -3.038205,0 q 0,1.0944542 0.188247,1.6460591 0.188246,0.5516049 0.652294,0.5516049 0.455293,0 0.652295,-0.5472271 0.20138,-0.5472271 0.20138,-1.6504369 0,-1.0988321 -0.20138,-1.650437 -0.197002,-0.5559827 -0.652295,-0.5559827 -0.232024,0 -0.394003,0.1400901 -0.157602,0.1400902 -0.258291,0.4158926 -0.10069,0.2758025 -0.144468,0.6916951 -0.04378,0.4115148 -0.04378,0.9587419 z"
         style="font-style:normal;font-variant:normal;font-weight:bold;font-stretch:normal;font-size:8.96576881px;font-family:'Droid Sans';-inkscape-font-specification:'Droid Sans Bold';fill:#ffffff"
         id="path4954" />
      <path
         d="m 52.95873,6.1855947 q 0,-0.2057573 0.05691,-0.3458475 0.06129,-0.1444679 0.166357,-0.2320243 0.105067,-0.087556 0.245158,-0.1269567 0.14009,-0.0394 0.302069,-0.0394 0.153223,0 0.288936,0.0394 0.14009,0.0394 0.245158,0.1269567 0.105067,0.087556 0.166357,0.2320243 0.06129,0.1400902 0.06129,0.3458475 0,0.1970018 -0.06129,0.3370919 -0.06129,0.1400902 -0.166357,0.2320243 -0.105068,0.091934 -0.245158,0.1313345 -0.135713,0.043778 -0.288936,0.043778 -0.161979,0 -0.302069,-0.043778 -0.140091,-0.0394 -0.245158,-0.1313345 Q 53.076931,6.6627768 53.015642,6.5226866 52.95873,6.3825965 52.95873,6.1855947 Z"
         style="font-style:normal;font-variant:normal;font-weight:bold;font-stretch:normal;font-size:8.96576881px;font-family:'Droid Sans';-inkscape-font-specification:'Droid Sans Bold';fill:#ffffff"
         id="path4956" />
      <path
         d="m 59.407258,1.8428005 q 0,0.332714 -0.109446,0.5997609 -0.105067,0.262669 -0.293314,0.4640486 -0.183868,0.1970017 -0.437781,0.332714 -0.249536,0.1313345 -0.54285,0.2013796 l 0,0.026267 q 0.774874,0.096312 1.173255,0.4728042 0.398382,0.3721144 0.398382,1.0068979 0,0.4202704 -0.153224,0.7792514 -0.148846,0.3546031 -0.464049,0.6172721 -0.310825,0.2626691 -0.788007,0.4115148 -0.472804,0.144468 -1.116343,0.144468 -0.516582,0 -0.971875,-0.087556 -0.455293,-0.083179 -0.849297,-0.2582911 l 0,-1.1513659 q 0.197002,0.1050676 0.415893,0.1838683 0.218891,0.078801 0.437782,0.1357124 0.218891,0.052534 0.429026,0.078801 0.214513,0.026267 0.402759,0.026267 0.376492,0 0.626028,-0.070045 0.249535,-0.070045 0.398381,-0.1970018 0.148846,-0.1269566 0.210135,-0.3020693 0.06567,-0.1794905 0.06567,-0.3896257 0,-0.1970018 -0.08318,-0.3546032 Q 58.076401,4.3512895 57.892533,4.2418441 57.713042,4.1280208 57.419729,4.0667314 57.126415,4.005442 56.697389,4.005442 l -0.455293,0 0,-0.9499863 0.446537,0 q 0.402759,0 0.669806,-0.070045 0.267047,-0.074423 0.424648,-0.1970018 0.16198,-0.1269567 0.227647,-0.2933137 0.06567,-0.1663571 0.06567,-0.3546032 0,-0.3414697 -0.214513,-0.5340936 -0.210135,-0.192624 -0.669806,-0.192624 -0.210135,0 -0.394003,0.043778 -0.179491,0.0394 -0.337092,0.1050676 -0.153224,0.061289 -0.284558,0.1400901 -0.126957,0.074423 -0.232025,0.1488458 L 55.261465,0.94972584 q 0.183868,-0.13571232 0.398381,-0.24953555 0.218891,-0.11382324 0.472805,-0.19700176 0.253913,-0.0875563 0.547227,-0.13571232 0.293313,-0.048156 0.626027,-0.048156 0.472805,0 0.858053,0.10506761 0.389625,0.10068978 0.665428,0.29769154 0.275802,0.19262394 0.424648,0.47718203 0.153224,0.2801803 0.153224,0.6435391 z"
         style="font-style:normal;font-variant:normal;font-weight:bold;font-stretch:normal;font-size:8.96576881px;font-family:'Droid Sans';-inkscape-font-specification:'Droid Sans Bold';fill:#ffffff"
         id="path4958" />
    </g>
  </g>
  <g
     style="display:none"
     transform="translate(11.135153,37.84311)"
     inkscape:label="Paste"
     id="layer10"
     inkscape:groupmode="layer" />
  <g
     transform="translate(11.135153,37.84311)"
     style="display:none"
     inkscape:label="Adhes"
     id="layer5"
     inkscape:groupmode="layer" />
  <g
     style="display:inline"
     transform="translate(12.906809,39.299491)"
     inkscape:label="Cu"
     id="layer2"
     inkscape:groupmode="layer" />
</svg>
