<?xml version="1.0" encoding="UTF-8" standalone="no"?>
<!-- Created with Inkscape (http://www.inkscape.org/) -->

<svg
   xmlns:dc="http://purl.org/dc/elements/1.1/"
   xmlns:cc="http://creativecommons.org/ns#"
   xmlns:rdf="http://www.w3.org/1999/02/22-rdf-syntax-ns#"
   xmlns:svg="http://www.w3.org/2000/svg"
   xmlns="http://www.w3.org/2000/svg"
   xmlns:sodipodi="http://sodipodi.sourceforge.net/DTD/sodipodi-0.dtd"
   xmlns:inkscape="http://www.inkscape.org/namespaces/inkscape"
   width="25mm"
   height="12.5mm"
   id="svg3350"
   version="1.1"
   inkscape:version="0.91 r13725"
   sodipodi:docname="label_data_exp.svg"
   inkscape:export-filename="/home/mike/git/keyboard-pcbs/amoeba/dt.copper.png"
   inkscape:export-xdpi="10160"
   inkscape:export-ydpi="10160">
  <sodipodi:namedview
     units="mm"
     inkscape:object-paths="true"
     inkscape:snap-global="true"
     inkscape:snap-page="true"
     inkscape:snap-bbox="true"
     inkscape:window-maximized="0"
     inkscape:window-y="44"
     inkscape:window-x="0"
     inkscape:window-height="724"
     inkscape:window-width="1366"
     fit-margin-bottom="0"
     fit-margin-right="0"
     fit-margin-left="0"
     fit-margin-top="0"
     showgrid="false"
     inkscape:current-layer="layer6"
     inkscape:document-units="mm"
     inkscape:cy="3.6295197"
     inkscape:cx="5.5346772"
     inkscape:zoom="11.313708"
     inkscape:pageshadow="2"
     inkscape:pageopacity="0"
     borderopacity="1.0"
     bordercolor="#666666"
     pagecolor="#cc0000"
     id="base" />
  <defs
     id="defs3352">
    <clipPath
       id="clipPath3442"
       clipPathUnits="userSpaceOnUse">
      <rect
         y="239.1203"
         x="171.99832"
         height="12.483703"
         width="20.614058"
         id="rect3444"
         style="fill:#000000;fill-opacity:1;stroke:none;stroke-width:0.92243534;stroke-miterlimit:4;stroke-dasharray:none;stroke-opacity:1" />
    </clipPath>
  </defs>
  <metadata
     id="metadata3355">
    <rdf:RDF>
      <cc:Work
         rdf:about="">
        <dc:format>image/svg+xml</dc:format>
        <dc:type
           rdf:resource="http://purl.org/dc/dcmitype/StillImage" />
        <dc:title></dc:title>
      </cc:Work>
    </rdf:RDF>
  </metadata>
  <g
     style="display:none"
     transform="translate(11.135153,37.84311)"
     inkscape:label="Pretty"
     id="layer24"
     inkscape:groupmode="layer">
    <g
       inkscape:label="Fab"
       id="layer25"
       inkscape:groupmode="layer" />
    <g
       inkscape:label="CrtYd"
       id="layer26"
       inkscape:groupmode="layer" />
  </g>
  <g
     style="display:none"
     transform="translate(11.135153,37.84311)"
     inkscape:label="Legacy"
     id="layer17"
     inkscape:groupmode="layer">
    <g
       inkscape:label="Edge.Cuts"
       id="layer23"
       inkscape:groupmode="layer" />
    <g
       inkscape:label="User"
       id="layer18"
       inkscape:groupmode="layer">
      <g
         inkscape:label="Eco2.User"
         id="layer19"
         inkscape:groupmode="layer" />
      <g
         inkscape:label="Eco1.User"
         id="layer20"
         inkscape:groupmode="layer" />
      <g
         inkscape:label="Cmts.User"
         id="layer21"
         inkscape:groupmode="layer" />
      <g
         inkscape:label="Dwgs.User"
         id="layer22"
         inkscape:groupmode="layer" />
    </g>
  </g>
  <g
     transform="translate(11.135153,37.84311)"
     style="display:inline"
     inkscape:label="Mask"
     id="layer1"
     inkscape:groupmode="layer">
    <path
       style="display:inline;fill:#ffcc00;fill-opacity:1;stroke:none;stroke-width:1;stroke-miterlimit:4;stroke-dasharray:none;stroke-opacity:0.46913578"
       d="M 10.912109 28.722656 L 10.912109 41.236328 L 17.814453 41.236328 C 17.59518 41.062965 17.381251 40.877642 17.171875 40.679688 C 15.485744 39.086006 14.642578 37.182448 14.642578 34.966797 C 14.642578 32.751638 15.485744 30.833698 17.171875 29.212891 C 17.354539 29.038678 17.542721 28.877524 17.734375 28.722656 L 10.912109 28.722656 z M 28.712891 28.722656 C 28.906488 28.877613 29.096871 29.038564 29.28125 29.212891 C 30.938658 30.779404 31.767578 32.697845 31.767578 34.966797 C 31.767578 37.23624 30.95315 39.133881 29.324219 40.660156 C 29.103164 40.865715 28.877866 41.057086 28.646484 41.236328 L 33.349609 41.236328 C 34.793544 39.410975 35.767578 37.289024 35.767578 34.978516 C 35.767578 32.683421 34.810993 30.540229 33.384766 28.722656 L 28.712891 28.722656 z "
       id="path3753"
       transform="translate(-11.135153,-37.84311)" />
  </g>
  <g
     transform="translate(11.135153,37.84311)"
     style="display:inline"
     inkscape:label="SilkS"
     id="layer6"
     inkscape:groupmode="layer">
    <path
       style="fill:#ffffff;fill-opacity:1;stroke:none;stroke-width:0.99999994;stroke-miterlimit:4;stroke-dasharray:none;stroke-opacity:1"
       d="M 9.6757812 27.144531 L 9.6757812 42.789062 L 20.941406 42.789062 C 19.801098 42.497545 18.751551 41.979348 17.798828 41.222656 L 10.970703 41.222656 L 10.970703 28.707031 L 17.753906 28.707031 C 18.689786 27.955132 19.734873 27.436178 20.884766 27.144531 L 9.6757812 27.144531 z M 25.53125 27.144531 C 26.694448 27.436313 27.75061 27.954969 28.695312 28.707031 L 77.396484 28.707031 L 77.396484 41.222656 L 28.664062 41.222656 C 27.691593 41.979678 26.623451 42.497553 25.46875 42.789062 L 78.691406 42.789062 L 78.691406 27.144531 L 25.53125 27.144531 z "
       id="rect3749"
       transform="translate(-11.135153,-37.84311)" />
    <g
       id="g11299">
      <path
         style="font-style:normal;font-weight:bold;font-size:8.25858784px;font-family:'Bitstream Vera Sans';fill:#ffffff;fill-opacity:1;stroke:none;stroke-width:1px;stroke-linecap:butt;stroke-linejoin:miter;stroke-opacity:1"
         d="M 38.916016 34.878906 L 38.916016 38.09375 L 41.769531 38.09375 C 42.656505 38.09375 43.317398 37.946557 43.751953 37.650391 C 44.186497 37.354225 44.404286 36.904303 44.404297 36.300781 C 44.404286 35.906825 44.301991 35.573766 44.099609 35.302734 C 43.959833 35.115589 43.766118 34.984789 43.546875 34.878906 L 38.916016 34.878906 z M 40.634766 35.357422 L 41.644531 35.357422 C 41.99278 35.357422 42.253159 35.425592 42.425781 35.5625 C 42.598453 35.696614 42.685547 35.900863 42.685547 36.171875 C 42.685547 36.448498 42.597478 36.654106 42.421875 36.791016 C 42.249229 36.927953 41.989801 36.996094 41.644531 36.996094 L 40.634766 36.996094 L 40.634766 35.357422 z "
         id="path11250"
         transform="translate(-11.135153,-37.84311)" />
      <path
         style="font-style:normal;font-weight:bold;font-size:8.25858784px;font-family:'Bitstream Vera Sans';fill:#ffffff;fill-opacity:1;stroke:none;stroke-width:1px;stroke-linecap:butt;stroke-linejoin:miter;stroke-opacity:1"
         d="m 33.119025,-6.0056665 1.879606,0 1.517973,2.2296334 1.517962,-2.2296334 1.884073,0 -2.540374,3.6210673 0,2.63617753 -1.718865,0 0,-2.63617753 -2.540375,-3.6210673"
         id="path11248"
         inkscape:connector-curvature="0" />
      <path
         style="font-style:normal;font-weight:bold;font-size:8.25858784px;font-family:'Bitstream Vera Sans';fill:#ffffff;fill-opacity:1;stroke:none;stroke-width:1px;stroke-linecap:butt;stroke-linejoin:miter;stroke-opacity:1"
         d="m 38.990003,-2.8288525 2.803783,0 0,1.2195989 -2.803783,0 0,-1.2195989"
         id="path11246"
         inkscape:connector-curvature="0" />
      <path
         style="font-style:normal;font-weight:bold;font-size:8.25858784px;font-family:'Bitstream Vera Sans';fill:#ffffff;fill-opacity:1;stroke:none;stroke-width:1px;stroke-linecap:butt;stroke-linejoin:miter;stroke-opacity:1"
         d="m 47.776381,-5.808699 0,1.3243877 c -0.366101,-0.1536782 -0.723276,-0.2696249 -1.071502,-0.3478612 -0.348249,-0.078214 -0.677154,-0.1173546 -0.986685,-0.1173546 -0.410754,0 -0.714337,0.053085 -0.910783,0.1592572 -0.196457,0.1061811 -0.294669,0.2710327 -0.294669,0.4945516 0,0.1676529 0.06543,0.298972 0.196434,0.3939562 0.133951,0.092192 0.375028,0.171835 0.723277,0.2388912 l 0.732201,0.1382958 c 0.741117,0.1397137 1.267948,0.3520636 1.580468,0.6370498 0.312521,0.2849973 0.468782,0.6901325 0.468793,1.2153965 -1.1e-5,0.6901437 -0.218767,1.2042388 -0.656301,1.54231774 -0.434566,0.33528335 -1.099793,0.50292615 -1.995692,0.50292615 -0.422648,0 -0.846787,-0.037755 -1.272404,-0.11316227 -0.42564,-0.0753983 -0.851268,-0.18720635 -1.276885,-0.33528447 l 0,-1.36208695 c 0.425617,0.2123499 0.836361,0.3730038 1.232231,0.4819637 0.398838,0.10616993 0.782792,0.1592683 1.151872,0.1592683 0.375027,0 0.662248,-0.0587164 0.861672,-0.17602733 0.199413,-0.11734447 0.299126,-0.28499617 0.299126,-0.50292617 0,-0.1955808 -0.06841,-0.3464635 -0.205361,-0.452639 -0.13395,-0.1061699 -0.403318,-0.2011698 -0.808103,-0.2849861 l -0.665226,-0.1383059 c -0.666717,-0.1341135 -1.154851,-0.3478601 -1.464405,-0.6412319 -0.306573,-0.2933707 -0.459854,-0.6887247 -0.459854,-1.1860708 0,-0.623055 0.214297,-1.1022343 0.642915,-1.4375288 0.428598,-0.3352845 1.044713,-0.5029262 1.848347,-0.5029262 0.366101,0 0.742607,0.026492 1.12955,0.079678 0.386923,0.050269 0.78725,0.1271268 1.200984,0.2304955"
         id="path11244"
         inkscape:connector-curvature="0" />
      <path
         d="m 51.51327,-2.0492711 1.826025,0 -0.910774,-2.489486 -0.915251,2.489486 m 2.25909,1.16091711 -2.687697,0 -0.424139,1.1399759 -1.727802,0 2.46893,-6.25724481 2.049261,0 2.46893,6.25724481 -1.727802,0 -0.419681,-1.1399759"
         style="font-style:normal;font-weight:bold;font-size:8.25858784px;font-family:'Bitstream Vera Sans';fill:#ffffff;fill-opacity:1;stroke:none;stroke-width:1px;stroke-linecap:butt;stroke-linejoin:miter;stroke-opacity:1"
         id="text3761" />
    </g>
    <g
       id="g11270">
      <path
         id="path11225"
         d="m 67.555436,-28.851831 -4.798584,0 0,-1.051678 1.682684,-1.814755 q 0.317949,-0.342406 0.577199,-0.631006 0.25925,-0.2886 0.445128,-0.562525 0.185879,-0.273926 0.288601,-0.557634 0.102717,-0.283708 0.102717,-0.61144 0,-0.361973 -0.220118,-0.562525 -0.215228,-0.200553 -0.582091,-0.200553 -0.386431,0 -0.743512,0.19077 -0.357081,0.190769 -0.748403,0.542959 l -0.821771,-0.973414 q 0.220118,-0.200552 0.459802,-0.381538 0.239685,-0.185878 0.528286,-0.327732 0.288599,-0.141854 0.635897,-0.22501 0.347299,-0.08805 0.777753,-0.08805 0.513609,0 0.919605,0.141854 0.410889,0.141855 0.699488,0.405997 0.2886,0.259251 0.440237,0.631006 0.15653,0.371756 0.15653,0.836451 0,0.420671 -0.146747,0.807101 -0.146745,0.381539 -0.401105,0.753294 -0.254358,0.366865 -0.591874,0.733729 -0.332623,0.361973 -0.714162,0.73862 l -0.860908,0.865799 0,0.06848 2.915348,0 0,1.271796 z"
         style="font-style:normal;font-variant:normal;font-weight:bold;font-stretch:normal;font-size:8.96576881px;line-height:125%;font-family:'Droid Sans';-inkscape-font-specification:'Droid Sans Bold';letter-spacing:0px;word-spacing:0px;fill:#ffffff;fill-opacity:1;stroke:none;stroke-width:1px;stroke-linecap:butt;stroke-linejoin:miter;stroke-opacity:1" />
      <path
         id="path11223"
         d="m 60.071402,-29.551319 q 0,-0.229902 0.06359,-0.38643 0.06848,-0.161421 0.185878,-0.259251 0.117395,-0.09783 0.273925,-0.141854 0.156529,-0.04402 0.337515,-0.04402 0.171202,0 0.32284,0.04402 0.156529,0.04402 0.273926,0.141854 0.117396,0.09783 0.185878,0.259251 0.06848,0.156528 0.06848,0.38643 0,0.220119 -0.06848,0.376647 -0.06848,0.156529 -0.185878,0.259251 -0.117397,0.102722 -0.273926,0.146746 -0.151638,0.04892 -0.32284,0.04892 -0.180986,0 -0.337515,-0.04892 -0.15653,-0.04402 -0.273925,-0.146746 -0.117395,-0.102722 -0.185876,-0.259251 -0.06359,-0.156528 -0.06359,-0.376647 z"
         style="font-style:normal;font-variant:normal;font-weight:bold;font-stretch:normal;font-size:8.96576881px;line-height:125%;font-family:'Droid Sans';-inkscape-font-specification:'Droid Sans Bold';letter-spacing:0px;word-spacing:0px;fill:#ffffff;fill-opacity:1;stroke:none;stroke-width:1px;stroke-linecap:butt;stroke-linejoin:miter;stroke-opacity:1" />
      <path
         d="m 55.796213,-32.427534 q 0,1.22288 0.210336,1.839212 0.210336,0.616332 0.728836,0.616332 0.508719,0 0.728838,-0.61144 0.22501,-0.611441 0.22501,-1.844104 0,-1.227773 -0.22501,-1.844105 -0.220119,-0.621223 -0.728838,-0.621223 -0.25925,0 -0.440236,0.156529 -0.176096,0.156528 -0.2886,0.464694 -0.112505,0.308166 -0.16142,0.772861 -0.04892,0.459803 -0.04892,1.071244 z m 3.394717,0 q 0,0.865799 -0.136963,1.545721 -0.132071,0.679921 -0.430453,1.154399 -0.293491,0.474478 -0.763078,0.723946 -0.464694,0.249467 -1.125051,0.249467 -0.621223,0 -1.081026,-0.249467 -0.459803,-0.249468 -0.763078,-0.723946 -0.303274,-0.474478 -0.454912,-1.154399 -0.146745,-0.679922 -0.146745,-1.545721 0,-0.8658 0.132071,-1.550613 0.136963,-0.684813 0.430455,-1.159291 0.293491,-0.474478 0.758185,-0.723946 0.464695,-0.254359 1.12505,-0.254359 0.616332,0 1.076136,0.249468 0.459803,0.249468 0.767969,0.723945 0.308166,0.474478 0.459803,1.159291 0.151637,0.684813 0.151637,1.555505 z"
         style="font-style:normal;font-variant:normal;font-weight:bold;font-stretch:normal;font-size:8.96576881px;line-height:125%;font-family:'Droid Sans';-inkscape-font-specification:'Droid Sans Bold';letter-spacing:0px;word-spacing:0px;fill:#ffffff;fill-opacity:1;stroke:none;stroke-width:1px;stroke-linecap:butt;stroke-linejoin:miter;stroke-opacity:1"
         id="path11219" />
      <path
         id="path11217"
         d="m 50.513367,-28.851831 -1.932151,-5.468723 1.560395,0 0.904932,3.1159 q 0.08315,0.278817 0.141854,0.582091 0.06359,0.298383 0.07826,0.538068 l 0.02935,0 q 0.01467,-0.259251 0.07338,-0.547851 0.06359,-0.293491 0.146746,-0.572308 l 0.90004,-3.1159 1.565287,0 -1.932151,5.468723 -1.535939,0 z"
         style="font-style:normal;font-variant:normal;font-weight:bold;font-stretch:normal;font-size:8.96576881px;line-height:125%;font-family:'Droid Sans';-inkscape-font-specification:'Droid Sans Bold';letter-spacing:0px;word-spacing:0px;fill:#ffffff;fill-opacity:1;stroke:none;stroke-width:1px;stroke-linecap:butt;stroke-linejoin:miter;stroke-opacity:1" />
      <path
         id="path11215"
         d="m 45.225631,-28.851831 -1.491915,0 0,-3.194165 q 0,-0.591874 -0.180986,-0.885365 -0.176094,-0.298383 -0.567417,-0.298383 -0.293491,0 -0.489151,0.117396 -0.195662,0.117397 -0.313059,0.347298 -0.112504,0.229902 -0.16142,0.567417 -0.04892,0.337515 -0.04892,0.772861 l 0,2.572941 -1.491915,0 0,-5.468723 1.139725,0 0.200553,0.699488 0.08315,0 q 0.117396,-0.210336 0.283708,-0.361973 0.171203,-0.151637 0.371755,-0.249467 0.200553,-0.09783 0.425563,-0.141855 0.22501,-0.04892 0.459803,-0.04892 0.401105,0 0.728837,0.117397 0.327732,0.112505 0.562526,0.357081 0.234792,0.244576 0.361972,0.626115 0.127179,0.376647 0.127179,0.904932 l 0,3.56592 z"
         style="font-style:normal;font-variant:normal;font-weight:bold;font-stretch:normal;font-size:8.96576881px;line-height:125%;font-family:'Droid Sans';-inkscape-font-specification:'Droid Sans Bold';letter-spacing:0px;word-spacing:0px;fill:#ffffff;fill-opacity:1;stroke:none;stroke-width:1px;stroke-linecap:butt;stroke-linejoin:miter;stroke-opacity:1" />
      <path
         id="path11213"
         d="m 37.364953,-35.734204 q 0,-0.210336 0.06359,-0.347298 0.06359,-0.141854 0.171204,-0.22501 0.112504,-0.08805 0.25925,-0.122288 0.151637,-0.03424 0.317949,-0.03424 0.166312,0 0.313057,0.03424 0.146746,0.03424 0.25436,0.122288 0.112504,0.08316 0.176094,0.22501 0.06848,0.136962 0.06848,0.347298 0,0.205444 -0.06848,0.347298 -0.06359,0.141854 -0.176094,0.229902 -0.107612,0.08316 -0.25436,0.122288 -0.146745,0.03424 -0.313057,0.03424 -0.166312,0 -0.317949,-0.03424 -0.146744,-0.03913 -0.259248,-0.122288 -0.107614,-0.08805 -0.171204,-0.229902 -0.06359,-0.141854 -0.06359,-0.347298 z"
         style="font-style:normal;font-variant:normal;font-weight:bold;font-stretch:normal;font-size:8.96576881px;line-height:125%;font-family:'Droid Sans';-inkscape-font-specification:'Droid Sans Bold';letter-spacing:0px;word-spacing:0px;fill:#ffffff;fill-opacity:1;stroke:none;stroke-width:1px;stroke-linecap:butt;stroke-linejoin:miter;stroke-opacity:1" />
      <path
         id="path11211"
         d="m 38.920457,-28.851831 -1.491914,0 0,-5.468723 1.491914,0 0,5.468723 z"
         style="font-style:normal;font-variant:normal;font-weight:bold;font-stretch:normal;font-size:8.96576881px;line-height:125%;font-family:'Droid Sans';-inkscape-font-specification:'Droid Sans Bold';letter-spacing:0px;word-spacing:0px;fill:#ffffff;fill-opacity:1;stroke:none;stroke-width:1px;stroke-linecap:butt;stroke-linejoin:miter;stroke-opacity:1" />
      <path
         id="path11209"
         d="m 32.69355,-28.851831 -1.491915,0 0,-3.194165 q 0,-0.591874 -0.176094,-0.885365 -0.176096,-0.298383 -0.552742,-0.298383 -0.283709,0 -0.474479,0.117396 -0.185877,0.117397 -0.298383,0.347298 -0.112504,0.229902 -0.161419,0.567417 -0.04892,0.337515 -0.04892,0.772861 l 0,2.572941 -1.491914,0 0,-5.468723 1.139725,0 0.200552,0.699488 0.08315,0 q 0.117401,-0.210336 0.27882,-0.361973 0.166312,-0.151637 0.361974,-0.249467 0.195661,-0.09783 0.415779,-0.141855 0.220118,-0.04892 0.445129,-0.04892 0.562525,0 0.953847,0.195661 0.396213,0.19077 0.606548,0.606549 l 0.122289,0 q 0.117396,-0.210336 0.283708,-0.361973 0.166312,-0.151637 0.366864,-0.249467 0.200553,-0.09783 0.420672,-0.141855 0.225009,-0.04892 0.45002,-0.04892 0.880474,0 1.325602,0.47937 0.45002,0.474477 0.45002,1.526155 l 0,3.56592 -1.496806,0 0,-3.194164 q 0,-0.591875 -0.176095,-0.885366 -0.176095,-0.298383 -0.552741,-0.298383 -0.533176,0 -0.758187,0.425562 -0.22501,0.420671 -0.22501,1.208207 l 0,2.744144 z"
         style="font-style:normal;font-variant:normal;font-weight:bold;font-stretch:normal;font-size:8.96576881px;line-height:125%;font-family:'Droid Sans';-inkscape-font-specification:'Droid Sans Bold';letter-spacing:0px;word-spacing:0px;fill:#ffffff;fill-opacity:1;stroke:none;stroke-width:1px;stroke-linecap:butt;stroke-linejoin:miter;stroke-opacity:1" />
      <path
         id="path11207"
         d="m 25.292676,-28.851831 -0.200553,-0.699488 -0.07827,0 q -0.122287,0.210336 -0.293491,0.361973 -0.166312,0.146745 -0.366864,0.244576 -0.200553,0.09783 -0.425562,0.141854 -0.225011,0.04892 -0.459804,0.04892 -0.401105,0 -0.728837,-0.112505 -0.327726,-0.117396 -0.56252,-0.361973 -0.234793,-0.244576 -0.361972,-0.621223 -0.127179,-0.376647 -0.127179,-0.904932 l 0,-3.56592 1.491914,0 0,3.194165 q 0,0.591874 0.176095,0.890257 0.180986,0.293491 0.572308,0.293491 0.293492,0 0.489152,-0.117396 0.195661,-0.117397 0.308166,-0.347299 0.117397,-0.229901 0.166312,-0.567416 0.04892,-0.337515 0.04892,-0.772861 l 0,-2.572941 1.491914,0 0,5.468723 -1.139725,0 z"
         style="font-style:normal;font-variant:normal;font-weight:bold;font-stretch:normal;font-size:8.96576881px;line-height:125%;font-family:'Droid Sans';-inkscape-font-specification:'Droid Sans Bold';letter-spacing:0px;word-spacing:0px;fill:#ffffff;fill-opacity:1;stroke:none;stroke-width:1px;stroke-linecap:butt;stroke-linejoin:miter;stroke-opacity:1" />
      <path
         style="font-style:normal;font-variant:normal;font-weight:bold;font-stretch:normal;font-size:8.96576881px;line-height:125%;font-family:'Droid Sans';-inkscape-font-specification:'Droid Sans Bold';letter-spacing:0px;word-spacing:0px;fill:#ffffff;fill-opacity:1;stroke:none;stroke-width:1px;stroke-linecap:butt;stroke-linejoin:miter;stroke-opacity:1"
         d="M 27.310547 7.5644531 C 27.292411 7.6343948 27.275391 7.7050758 27.275391 7.7871094 C 27.275391 7.878418 27.291605 7.9679484 27.324219 8.0527344 C 27.360086 8.1342604 27.404851 8.2088631 27.457031 8.2773438 C 27.512469 8.3458284 27.573452 8.406811 27.638672 8.4589844 C 27.707156 8.511163 27.775272 8.5507315 27.84375 8.5800781 C 27.690483 8.6159495 27.539324 8.6672019 27.392578 8.7324219 C 27.249093 8.7976425 27.119994 8.8819761 27.005859 8.9863281 C 26.89172 9.0906808 26.8009 9.2165359 26.732422 9.3632812 C 26.663944 9.5100273 26.630859 9.6819374 26.630859 9.8808594 C 26.630859 10.115653 26.676269 10.325841 26.767578 10.511719 C 26.862147 10.697597 27.001622 10.855887 27.1875 10.986328 C 27.373377 11.12003 27.605632 11.222536 27.882812 11.291016 C 28.159998 11.362758 28.483713 11.398438 28.855469 11.398438 C 29.334838 11.398438 29.757813 11.350429 30.123047 11.255859 C 30.48828 11.164551 30.792533 11.031563 31.037109 10.855469 C 31.284947 10.682635 31.471785 10.469848 31.595703 10.21875 C 31.719622 9.9709127 31.78125 9.6926092 31.78125 9.3828125 C 31.78125 9.1186705 31.742327 8.8922637 31.664062 8.703125 C 31.585798 8.510725 31.472917 8.3524343 31.326172 8.2285156 C 31.182687 8.104599 31.00558 8.0137781 30.796875 7.9550781 C 30.58817 7.8931181 30.352033 7.8613281 30.087891 7.8613281 L 29.236328 7.8613281 C 29.138498 7.8613281 29.044434 7.8580958 28.953125 7.8515625 C 28.861814 7.8417758 28.783322 7.825561 28.714844 7.8027344 C 28.646362 7.7766477 28.589268 7.7442115 28.546875 7.7050781 C 28.510983 7.6691859 28.499645 7.6190456 28.494141 7.5644531 L 27.310547 7.5644531 z M 28.787109 9.0898438 L 29.476562 9.0898438 C 29.812447 9.0898438 30.060914 9.1229249 30.220703 9.1914062 C 30.380493 9.2598876 30.460938 9.3980716 30.460938 9.6035156 C 30.460938 9.844831 30.331839 10.036203 30.074219 10.179688 C 29.816598 10.323172 29.432546 10.394531 28.923828 10.394531 C 28.73795 10.394531 28.582258 10.37767 28.455078 10.341797 C 28.327899 10.309188 28.224749 10.263778 28.146484 10.205078 C 28.068222 10.14638 28.010483 10.076312 27.974609 9.9980469 C 27.941996 9.9230435 27.925781 9.8451972 27.925781 9.7636719 C 27.925781 9.6332312 27.954332 9.5235942 28.009766 9.4355469 C 28.068464 9.3507575 28.139823 9.2826421 28.224609 9.2304688 C 28.309396 9.1782921 28.402814 9.1419673 28.503906 9.1191406 C 28.604997 9.099574 28.699062 9.0898438 28.787109 9.0898438 z "
         transform="translate(-11.135153,-37.84311)"
         id="path11201" />
      <path
         d="m 12.750811,-28.754001 q -0.586983,0 -1.081027,-0.171203 -0.494044,-0.171203 -0.851125,-0.51361 -0.357081,-0.347298 -0.557633,-0.870691 -0.195661,-0.528285 -0.195661,-1.237555 0,-0.719054 0.180986,-1.257122 0.180986,-0.538067 0.503827,-0.895148 0.327732,-0.361973 0.782644,-0.54296 0.459803,-0.180986 1.017437,-0.180986 0.542958,0 0.978304,0.166312 0.440237,0.16142 0.743511,0.479369 0.308167,0.317949 0.469587,0.782644 0.166311,0.459803 0.166311,1.056569 l 0,0.723945 -3.336018,0 q 0.0098,0.313058 0.09783,0.567417 0.09294,0.249467 0.254359,0.425562 0.166312,0.171204 0.396213,0.264143 0.234793,0.09294 0.533176,0.09294 0.249468,0 0.469587,-0.02446 0.22501,-0.02935 0.435345,-0.08316 0.210336,-0.05381 0.41578,-0.132071 0.205444,-0.08316 0.420671,-0.190769 l 0,1.154399 q -0.195661,0.102722 -0.396213,0.176095 -0.195662,0.06848 -0.41578,0.117397 -0.220118,0.04891 -0.474478,0.06848 -0.254359,0.02446 -0.557633,0.02446 z m -0.19077,-4.607814 q -0.396213,0 -0.660355,0.278816 -0.259251,0.278817 -0.298383,0.875583 l 1.902802,0 q -0.0049,-0.249468 -0.06359,-0.459803 -0.0587,-0.210336 -0.176094,-0.361973 -0.117397,-0.156529 -0.293492,-0.244576 -0.176095,-0.08805 -0.410888,-0.08805 z"
         style="font-style:normal;font-variant:normal;font-weight:bold;font-stretch:normal;font-size:8.96576881px;line-height:125%;font-family:'Droid Sans';-inkscape-font-specification:'Droid Sans Bold';letter-spacing:0px;word-spacing:0px;fill:#ffffff;fill-opacity:1;stroke:none;stroke-width:1px;stroke-linecap:butt;stroke-linejoin:miter;stroke-opacity:1"
         id="path11197" />
      <path
         id="path11195"
         d="m 4.1857537,-28.851831 -1.5701789,-5.610577 -0.044023,0 q 0.029349,0.45002 0.048915,0.870691 0.00979,0.180986 0.014674,0.371756 0.00979,0.190769 0.014674,0.376647 0.00979,0.185878 0.00979,0.357081 0.00489,0.171203 0.00489,0.308166 l 0,3.326236 -1.3549518,0 0,-7.151407 2.0642227,0 1.5457213,5.468723 0.029349,0 1.6435517,-5.468723 2.0642227,0 0,7.151407 -1.4136501,0 0,-3.384934 q 0,-0.12718 0,-0.2886 0.00489,-0.16142 0.00979,-0.342407 0.00489,-0.180986 0.00979,-0.366864 0.00979,-0.185878 0.014674,-0.361973 0.019566,-0.410887 0.034241,-0.856016 l -0.039133,0 -1.6924669,5.600794 -1.3940841,0 z"
         style="font-style:normal;font-variant:normal;font-weight:bold;font-stretch:normal;font-size:8.96576881px;line-height:125%;font-family:'Droid Sans';-inkscape-font-specification:'Droid Sans Bold';letter-spacing:0px;word-spacing:0px;fill:#ffffff;fill-opacity:1;stroke:none;stroke-width:1px;stroke-linecap:butt;stroke-linejoin:miter;stroke-opacity:1" />
    </g>
    <g
       id="g11284">
      <g
         id="flowRoot10713-9"
         style="font-style:normal;font-weight:normal;font-size:13.44865322px;line-height:125%;font-family:sans-serif;letter-spacing:0px;word-spacing:0px;display:inline;fill:#ffffff;fill-opacity:1;stroke:none;stroke-width:1px;stroke-linecap:butt;stroke-linejoin:miter;stroke-opacity:1"
         transform="matrix(1.117343,0,0,1.117343,5.8992553,4.4004009)" />
      <path
         style="font-style:normal;font-variant:normal;font-weight:bold;font-stretch:normal;font-size:8.96576881px;line-height:125%;font-family:'Droid Sans';-inkscape-font-specification:'Droid Sans Bold';letter-spacing:0px;word-spacing:0px;fill:#ffffff;fill-opacity:1;stroke:none;stroke-width:1px;stroke-linecap:butt;stroke-linejoin:miter;stroke-opacity:1"
         d="M 74.167969 19.808594 C 74.141759 19.889738 74.126953 19.977554 74.126953 20.076172 C 74.126953 20.167481 74.143168 20.255057 74.175781 20.339844 C 74.211649 20.421372 74.256414 20.495975 74.308594 20.564453 C 74.364031 20.63293 74.423061 20.693914 74.488281 20.746094 C 74.556765 20.798272 74.624881 20.839794 74.693359 20.869141 C 74.540091 20.905013 74.390886 20.954311 74.244141 21.019531 C 74.100655 21.084751 73.971557 21.169086 73.857422 21.273438 C 73.743283 21.37779 73.652463 21.503645 73.583984 21.650391 C 73.515506 21.797137 73.480469 21.971001 73.480469 22.169922 C 73.480469 22.404715 73.525879 22.614903 73.617188 22.800781 C 73.711756 22.986659 73.853185 23.14495 74.039062 23.275391 C 74.224941 23.409096 74.455236 23.509647 74.732422 23.578125 C 75.009608 23.649866 75.335275 23.685547 75.707031 23.685547 C 76.186401 23.685547 76.607423 23.639491 76.972656 23.544922 C 77.33789 23.453613 77.644096 23.318673 77.888672 23.142578 C 78.136509 22.969745 78.321394 22.758911 78.445312 22.507812 C 78.569231 22.259976 78.630859 21.979719 78.630859 21.669922 C 78.630859 21.40578 78.591937 21.179373 78.513672 20.990234 C 78.435409 20.797834 78.32448 20.639544 78.177734 20.515625 C 78.03425 20.391708 77.857142 20.300888 77.648438 20.242188 C 77.439732 20.180228 77.203596 20.148438 76.939453 20.148438 L 76.087891 20.148438 C 75.990061 20.148438 75.895996 20.145205 75.804688 20.138672 C 75.713376 20.128879 75.632931 20.112664 75.564453 20.089844 C 75.495972 20.06375 75.440831 20.031314 75.398438 19.992188 C 75.356044 19.949792 75.333984 19.894651 75.333984 19.826172 C 75.333984 19.819289 75.337654 19.815305 75.337891 19.808594 L 74.167969 19.808594 z M 75.638672 21.376953 L 76.328125 21.376953 C 76.66401 21.376953 76.912476 21.411991 77.072266 21.480469 C 77.232056 21.54895 77.310547 21.685181 77.310547 21.890625 C 77.310547 22.13194 77.181448 22.325265 76.923828 22.46875 C 76.666207 22.612235 76.284109 22.683594 75.775391 22.683594 C 75.589513 22.683594 75.431867 22.66478 75.304688 22.628906 C 75.177508 22.596298 75.076312 22.550887 74.998047 22.492188 C 74.919785 22.43349 74.862045 22.365374 74.826172 22.287109 C 74.793559 22.212106 74.777344 22.13426 74.777344 22.052734 C 74.777344 21.922294 74.805895 21.812657 74.861328 21.724609 C 74.920027 21.63982 74.991386 21.571705 75.076172 21.519531 C 75.160958 21.467355 75.252424 21.429077 75.353516 21.40625 C 75.454607 21.386683 75.550625 21.376953 75.638672 21.376953 z "
         transform="translate(-11.135153,-37.84311)"
         id="path11189" />
      <path
         d="m 59.601671,-16.466024 q -0.586983,0 -1.081026,-0.171203 -0.494045,-0.171204 -0.851125,-0.51361 -0.357082,-0.347298 -0.557635,-0.870692 -0.19566,-0.528284 -0.19566,-1.237555 0,-0.719053 0.180986,-1.257121 0.180986,-0.538068 0.503827,-0.895149 0.327732,-0.361973 0.782644,-0.542959 0.459803,-0.180987 1.017437,-0.180987 0.542958,0 0.978304,0.166312 0.440238,0.161421 0.743511,0.479369 0.308167,0.317949 0.469587,0.782644 0.166311,0.459804 0.166311,1.056569 l 0,0.723945 -3.336018,0 q 0.0098,0.313059 0.09783,0.567417 0.09294,0.249468 0.254359,0.425563 0.166312,0.171204 0.396213,0.264142 0.234794,0.09294 0.533176,0.09294 0.249468,0 0.469587,-0.02446 0.225009,-0.02935 0.435345,-0.08315 0.210336,-0.05381 0.41578,-0.132071 0.205443,-0.08315 0.42067,-0.190769 l 0,1.154399 q -0.195661,0.102718 -0.396213,0.176095 -0.195661,0.06848 -0.415779,0.117397 -0.220119,0.04892 -0.474478,0.06848 -0.254359,0.02446 -0.557634,0.02446 z m -0.19077,-4.607814 q -0.396213,0 -0.660355,0.278816 -0.259251,0.278817 -0.298383,0.875582 l 1.902803,0 q -0.0049,-0.249467 -0.06359,-0.459802 -0.0587,-0.210336 -0.176095,-0.361974 -0.117397,-0.156528 -0.293491,-0.244576 -0.176095,-0.08805 -0.410889,-0.08805 z"
         style="font-style:normal;font-variant:normal;font-weight:bold;font-stretch:normal;font-size:8.96576881px;line-height:125%;font-family:'Droid Sans';-inkscape-font-specification:'Droid Sans Bold';letter-spacing:0px;word-spacing:0px;fill:#ffffff;fill-opacity:1;stroke:none;stroke-width:1px;stroke-linecap:butt;stroke-linejoin:miter;stroke-opacity:1"
         id="path11185" />
      <path
         id="path11183"
         d="m 56.030857,-18.18784 q 0,0.430453 -0.156529,0.753294 -0.156528,0.32284 -0.445128,0.538067 -0.288601,0.215228 -0.699488,0.322841 -0.410888,0.107611 -0.919607,0.107611 -0.269033,0 -0.498935,-0.01956 -0.229901,-0.01467 -0.435345,-0.05381 -0.205444,-0.03913 -0.396214,-0.09783 -0.190769,-0.05869 -0.386429,-0.146746 l 0,-1.232664 q 0.205443,0.102717 0.430453,0.185878 0.229902,0.08315 0.454911,0.146746 0.225011,0.05869 0.435346,0.09294 0.215227,0.03424 0.396213,0.03424 0.200553,0 0.342407,-0.03424 0.141854,-0.03913 0.229902,-0.102717 0.09294,-0.06848 0.132071,-0.156529 0.04402,-0.09294 0.04402,-0.195661 0,-0.102717 -0.03424,-0.180986 -0.02935,-0.08315 -0.141854,-0.171204 -0.112506,-0.09294 -0.332625,-0.205443 -0.215227,-0.117396 -0.582091,-0.283708 -0.357081,-0.161421 -0.621223,-0.317949 -0.259251,-0.16142 -0.430454,-0.357082 -0.166311,-0.195661 -0.249467,-0.445128 -0.08315,-0.25436 -0.08315,-0.601658 0,-0.381538 0.146745,-0.665247 0.146746,-0.2886 0.41578,-0.479369 0.269034,-0.19077 0.645681,-0.283708 0.381538,-0.09783 0.846234,-0.09783 0.489152,0 0.929389,0.112506 0.440237,0.112505 0.904931,0.337516 l -0.45002,1.056568 q -0.371755,-0.176094 -0.70927,-0.2886 -0.337516,-0.112505 -0.67503,-0.112505 -0.303275,0 -0.440238,0.107611 -0.132071,0.107612 -0.132071,0.293492 0,0.09783 0.03424,0.176094 0.03424,0.07338 0.136963,0.15653 0.102717,0.07827 0.2886,0.176094 0.185878,0.09294 0.484261,0.229901 0.347298,0.151638 0.626115,0.303275 0.278816,0.146746 0.479369,0.337515 0.200552,0.190769 0.308166,0.445129 0.107611,0.254359 0.107611,0.616332 z"
         style="font-style:normal;font-variant:normal;font-weight:bold;font-stretch:normal;font-size:8.96576881px;line-height:125%;font-family:'Droid Sans';-inkscape-font-specification:'Droid Sans Bold';letter-spacing:0px;word-spacing:0px;fill:#ffffff;fill-opacity:1;stroke:none;stroke-width:1px;stroke-linecap:butt;stroke-linejoin:miter;stroke-opacity:1" />
      <path
         d="m 49.368604,-19.097663 -0.494044,0.01956 q -0.298383,0.0098 -0.503827,0.07827 -0.205443,0.06848 -0.332624,0.185878 -0.122287,0.112505 -0.180986,0.273926 -0.05381,0.156528 -0.05381,0.35219 0,0.342406 0.166312,0.489151 0.166312,0.141855 0.435346,0.141855 0.205443,0 0.381538,-0.06848 0.176095,-0.07338 0.303275,-0.210337 0.132071,-0.141853 0.205443,-0.342406 0.07338,-0.205444 0.07338,-0.469586 l 0,-0.45002 z m 0.440237,2.533809 -0.2886,-0.743512 -0.04402,0 q -0.16142,0.220118 -0.322841,0.381538 -0.16142,0.156529 -0.35219,0.259252 -0.190769,0.102717 -0.430454,0.151637 -0.234793,0.04892 -0.547851,0.04892 -0.332623,0 -0.616331,-0.102717 -0.283709,-0.107612 -0.494044,-0.317949 -0.205444,-0.215227 -0.322841,-0.538068 -0.117396,-0.327732 -0.117396,-0.772861 0,-0.87069 0.557634,-1.281579 0.557633,-0.415779 1.668009,-0.459803 l 0.870691,-0.02935 0,-0.410887 q 0,-0.337516 -0.195661,-0.498936 -0.195661,-0.16142 -0.547851,-0.16142 -0.352189,0 -0.689705,0.102717 -0.332623,0.102717 -0.670138,0.273925 l -0.484261,-0.988088 q 0.410888,-0.229901 0.909823,-0.361972 0.498936,-0.132071 1.046786,-0.132071 1.022329,0 1.565288,0.479369 0.54785,0.479369 0.54785,1.457673 l 0,3.644185 -1.041894,0 z"
         style="font-style:normal;font-variant:normal;font-weight:bold;font-stretch:normal;font-size:8.96576881px;line-height:125%;font-family:'Droid Sans';-inkscape-font-specification:'Droid Sans Bold';letter-spacing:0px;word-spacing:0px;fill:#ffffff;fill-opacity:1;stroke:none;stroke-width:1px;stroke-linecap:butt;stroke-linejoin:miter;stroke-opacity:1"
         id="path11179" />
      <path
         id="path11177"
         d="m 43.298223,-14.157225 q -0.234793,0 -0.48426,-0.03423 -0.249468,-0.03425 -0.41578,-0.08805 l 0,-1.173965 q 0.151638,0.04892 0.283709,0.06848 0.132071,0.02446 0.298382,0.02446 0.122289,0 0.229902,-0.03913 0.112506,-0.03424 0.19077,-0.132071 0.08315,-0.09294 0.132071,-0.254359 0.04892,-0.156529 0.04892,-0.405997 l 0,-5.840478 1.491915,0 0,6.060597 q 0,0.376648 -0.09784,0.704379 -0.09294,0.332624 -0.308167,0.5772 -0.210335,0.249467 -0.54785,0.391322 -0.337515,0.141854 -0.821776,0.141854 z"
         style="font-style:normal;font-variant:normal;font-weight:bold;font-stretch:normal;font-size:8.96576881px;line-height:125%;font-family:'Droid Sans';-inkscape-font-specification:'Droid Sans Bold';letter-spacing:0px;word-spacing:0px;fill:#ffffff;fill-opacity:1;stroke:none;stroke-width:1px;stroke-linecap:butt;stroke-linejoin:miter;stroke-opacity:1" />
      <path
         id="path11175"
         d="m 43.518342,-23.446227 q 0,-0.210336 0.06359,-0.347298 0.06359,-0.141855 0.171202,-0.225011 0.112506,-0.08805 0.259252,-0.122287 0.151637,-0.03424 0.317949,-0.03424 0.166312,0 0.313057,0.03424 0.146746,0.03424 0.25436,0.122287 0.112504,0.08315 0.176094,0.225011 0.06848,0.136962 0.06848,0.347298 0,0.205444 -0.06848,0.347298 -0.06359,0.141854 -0.176094,0.229901 -0.107612,0.08315 -0.25436,0.122288 -0.146745,0.03423 -0.313057,0.03423 -0.166312,0 -0.317949,-0.03423 -0.146746,-0.03913 -0.259252,-0.122288 -0.107611,-0.08805 -0.171202,-0.229901 -0.06359,-0.141854 -0.06359,-0.347298 z"
         style="font-style:normal;font-variant:normal;font-weight:bold;font-stretch:normal;font-size:8.96576881px;line-height:125%;font-family:'Droid Sans';-inkscape-font-specification:'Droid Sans Bold';letter-spacing:0px;word-spacing:0px;fill:#ffffff;fill-opacity:1;stroke:none;stroke-width:1px;stroke-linecap:butt;stroke-linejoin:miter;stroke-opacity:1" />
      <path
         id="path11173"
         d="m 35.691906,-16.563854 2.543591,-5.869828 -3.287103,0 0,-1.271796 4.930655,0 0,0.948956 -2.607182,6.192668 -1.579961,0 z"
         style="font-style:normal;font-variant:normal;font-weight:bold;font-stretch:normal;font-size:8.96576881px;line-height:125%;font-family:'Droid Sans';-inkscape-font-specification:'Droid Sans Bold';letter-spacing:0px;word-spacing:0px;fill:#ffffff;fill-opacity:1;stroke:none;stroke-width:1px;stroke-linecap:butt;stroke-linejoin:miter;stroke-opacity:1" />
      <path
         id="path11171"
         d="m 33.158097,-16.563854 -1.511481,0 0,-4.138229 q 0,-0.127179 0,-0.303275 0.0049,-0.180986 0.0098,-0.371755 0.0098,-0.195662 0.01467,-0.391322 0.0098,-0.195661 0.01467,-0.357081 -0.02446,0.02935 -0.08315,0.08805 -0.05869,0.05869 -0.132071,0.132071 -0.07338,0.06848 -0.151637,0.141855 -0.07827,0.07338 -0.151638,0.132071 l -0.821775,0.660355 -0.733728,-0.909823 2.303906,-1.834321 1.242448,0 0,7.151406 z"
         style="font-style:normal;font-variant:normal;font-weight:bold;font-stretch:normal;font-size:8.96576881px;line-height:125%;font-family:'Droid Sans';-inkscape-font-specification:'Droid Sans Bold';letter-spacing:0px;word-spacing:0px;fill:#ffffff;fill-opacity:1;stroke:none;stroke-width:1px;stroke-linecap:butt;stroke-linejoin:miter;stroke-opacity:1" />
      <path
         d="m 25.45884,-20.139558 q 0,1.222881 0.210335,1.839213 0.210336,0.616332 0.728837,0.616332 0.508719,0 0.728838,-0.61144 0.225009,-0.611441 0.225009,-1.844105 0,-1.227772 -0.225009,-1.844104 -0.220119,-0.621224 -0.728838,-0.621224 -0.25925,0 -0.440236,0.156529 -0.176096,0.156529 -0.288601,0.464695 -0.112504,0.308166 -0.16142,0.772861 -0.04892,0.459803 -0.04892,1.071243 z m 3.394717,0 q 0,0.865799 -0.136963,1.545722 -0.132071,0.679921 -0.430454,1.154399 -0.293492,0.474478 -0.763077,0.723945 -0.464695,0.249468 -1.125051,0.249468 -0.621223,0 -1.081026,-0.249468 -0.459803,-0.249467 -0.763078,-0.723945 -0.303274,-0.474478 -0.454912,-1.154399 -0.146745,-0.679923 -0.146745,-1.545722 0,-0.8658 0.132071,-1.550612 0.136963,-0.684814 0.430454,-1.159292 0.293492,-0.474477 0.758186,-0.723945 0.464695,-0.254359 1.12505,-0.254359 0.616332,0 1.076136,0.249467 0.459803,0.249468 0.767968,0.723945 0.308167,0.474479 0.459804,1.159292 0.151637,0.684813 0.151637,1.555504 z"
         style="font-style:normal;font-variant:normal;font-weight:bold;font-stretch:normal;font-size:8.96576881px;line-height:125%;font-family:'Droid Sans';-inkscape-font-specification:'Droid Sans Bold';letter-spacing:0px;word-spacing:0px;fill:#ffffff;fill-opacity:1;stroke:none;stroke-width:1px;stroke-linecap:butt;stroke-linejoin:miter;stroke-opacity:1"
         id="path11167" />
      <path
         id="path11165"
         d="m 23.326135,-16.563854 -4.798584,0 0,-1.051678 1.682684,-1.814755 q 0.317949,-0.342407 0.5772,-0.631006 0.259251,-0.2886 0.445129,-0.562526 0.185877,-0.273925 0.288599,-0.557633 0.102717,-0.283709 0.102717,-0.61144 0,-0.361974 -0.220118,-0.562526 -0.215226,-0.200553 -0.582091,-0.200553 -0.38643,0 -0.743512,0.19077 -0.357081,0.19077 -0.748403,0.542959 l -0.821775,-0.973413 q 0.220119,-0.200552 0.459803,-0.381539 0.239685,-0.185878 0.528284,-0.327731 0.2886,-0.141855 0.635898,-0.225011 0.347298,-0.08805 0.777752,-0.08805 0.513611,0 0.919607,0.141855 0.410887,0.141854 0.699487,0.405997 0.288601,0.25925 0.440238,0.631006 0.156528,0.371755 0.156528,0.83645 0,0.420671 -0.146746,0.807102 -0.146745,0.381538 -0.401105,0.753295 -0.254358,0.366864 -0.591873,0.733728 -0.332624,0.361973 -0.714163,0.738619 l -0.860908,0.8658 0,0.06848 2.915347,0 0,1.271797 z"
         style="font-style:normal;font-variant:normal;font-weight:bold;font-stretch:normal;font-size:8.96576881px;line-height:125%;font-family:'Droid Sans';-inkscape-font-specification:'Droid Sans Bold';letter-spacing:0px;word-spacing:0px;fill:#ffffff;fill-opacity:1;stroke:none;stroke-width:1px;stroke-linecap:butt;stroke-linejoin:miter;stroke-opacity:1" />
      <path
         id="path11163"
         d="m 11.566914,-21.504293 q -0.474478,0 -0.733729,0.361973 -0.25925,0.361973 -0.25925,1.002762 0,0.660356 0.234793,1.017437 0.234793,0.352189 0.758186,0.352189 0.278817,0 0.601657,-0.07338 0.322841,-0.07338 0.601658,-0.215227 l 0,0.934281 q -0.278817,0.132071 -0.567417,0.205445 -0.2886,0.07338 -0.665247,0.07338 -0.523393,0 -0.914715,-0.166312 -0.391322,-0.166313 -0.6554642,-0.469586 -0.2592507,-0.303275 -0.3913218,-0.723946 -0.1320712,-0.425562 -0.1320712,-0.944064 0,-0.503827 0.1271797,-0.919606 0.1271796,-0.420672 0.3815388,-0.719055 0.2592507,-0.303273 0.6456807,-0.469585 0.386431,-0.166312 0.900041,-0.166312 0.405996,0 0.782643,0.107611 0.376648,0.107611 0.709271,0.273925 l -0.361973,0.821776 q -0.552741,-0.283708 -1.06146,-0.283708 z"
         style="font-style:normal;font-variant:normal;font-weight:bold;font-stretch:normal;font-size:8.96576881px;line-height:125%;font-family:'Droid Sans';-inkscape-font-specification:'Droid Sans Bold';letter-spacing:0px;word-spacing:0px;fill:#ffffff;fill-opacity:1;stroke:none;stroke-width:1px;stroke-linecap:butt;stroke-linejoin:miter;stroke-opacity:1" />
      <path
         d="m 8.3727493,-20.139558 q 0,0.621223 0.2347931,1.164182 0.2347932,0.54296 0.635898,0.948956 0.4059964,0.401105 0.9489556,0.635898 0.542959,0.234793 1.164182,0.234793 0.621224,0 1.164183,-0.234793 0.542959,-0.234793 0.944064,-0.635898 0.405996,-0.405996 0.64079,-0.948956 0.234793,-0.542959 0.234793,-1.164182 0,-0.621223 -0.234793,-1.164183 -0.234794,-0.542958 -0.64079,-0.944063 -0.401105,-0.405997 -0.944064,-0.640789 -0.542959,-0.234794 -1.164183,-0.234794 -0.621223,0 -1.164182,0.234794 -0.5429592,0.234792 -0.9489556,0.640789 -0.4011048,0.401105 -0.635898,0.944063 -0.2347931,0.54296 -0.2347931,1.164183 z m -0.6945962,0 q 0,-0.508718 0.1320711,-0.978305 0.1320712,-0.469586 0.3668643,-0.875582 0.2396845,-0.410888 0.5771997,-0.748403 0.337515,-0.337515 0.7435114,-0.572308 0.4108879,-0.239685 0.8804744,-0.371756 0.469586,-0.132072 0.978304,-0.132072 0.508719,0 0.978305,0.132072 0.469586,0.132071 0.875582,0.371756 0.410889,0.234793 0.748403,0.572308 0.337516,0.337515 0.572309,0.748403 0.239685,0.405996 0.371756,0.875582 0.132071,0.469587 0.132071,0.978305 0,0.508719 -0.132071,0.978305 -0.132071,0.469585 -0.371756,0.880474 -0.234793,0.405996 -0.572309,0.743511 -0.337514,0.332624 -0.748403,0.572309 -0.405996,0.239684 -0.875582,0.371755 -0.469586,0.12718 -0.978305,0.12718 -0.508718,0 -0.978304,-0.12718 -0.4695865,-0.132071 -0.8804744,-0.371755 -0.4059964,-0.239685 -0.7435114,-0.572309 -0.3375152,-0.337515 -0.5771997,-0.743511 -0.2347931,-0.410889 -0.3668643,-0.880474 -0.1320711,-0.469586 -0.1320711,-0.978305 z"
         style="font-style:normal;font-variant:normal;font-weight:bold;font-stretch:normal;font-size:8.96576881px;line-height:125%;font-family:'Droid Sans';-inkscape-font-specification:'Droid Sans Bold';letter-spacing:0px;word-spacing:0px;fill:#ffffff;fill-opacity:1;stroke:none;stroke-width:1px;stroke-linecap:butt;stroke-linejoin:miter;stroke-opacity:1"
         id="path11087" />
    </g>
    <path
       style="fill:#ffffff;stroke:none;stroke-width:3;stroke-miterlimit:4;stroke-dasharray:none;stroke-opacity:1"
       d="M 29.134766 3.4199219 C 28.79562 3.4199219 28.495256 3.4620883 28.234375 3.546875 C 27.973494 3.631661 27.75422 3.7549181 27.578125 3.9179688 C 27.40203 4.0777587 27.269043 4.2743274 27.177734 4.5058594 C 27.086426 4.7373914 27.041016 4.9994774 27.041016 5.2929688 C 27.041016 5.6647247 27.124704 5.9877934 27.291016 6.2617188 C 27.460589 6.5356441 27.687645 6.7354563 27.974609 6.859375 C 27.863735 6.9278563 27.765782 6.9933738 27.677734 7.0585938 C 27.589688 7.1238144 27.515731 7.1945279 27.457031 7.2695312 C 27.398337 7.3412733 27.352926 7.4191196 27.320312 7.5039062 C 27.314036 7.5220404 27.315481 7.5454239 27.310547 7.5644531 L 28.494141 7.5644531 C 28.493144 7.5545649 28.484375 7.5495642 28.484375 7.5390625 C 28.484375 7.4542778 28.501236 7.3829187 28.537109 7.3242188 C 28.576241 7.2622628 28.628139 7.2019244 28.693359 7.1464844 C 28.735753 7.156271 28.802578 7.1660013 28.890625 7.1757812 C 28.978672 7.1823146 29.059762 7.1855469 29.134766 7.1855469 C 29.480434 7.1855469 29.784041 7.1427348 30.044922 7.0546875 C 30.305803 6.9633788 30.522478 6.8349257 30.695312 6.671875 C 30.868146 6.5088243 30.99789 6.3142088 31.085938 6.0859375 C 31.173985 5.8544055 31.21875 5.5994516 31.21875 5.3222656 C 31.21875 5.185303 31.205774 5.0588029 31.179688 4.9414062 C 31.1536 4.8207482 31.108189 4.704624 31.042969 4.59375 L 31.839844 4.34375 L 31.839844 3.5332031 L 29.980469 3.5332031 C 29.941334 3.5234231 29.888791 3.5110935 29.820312 3.4980469 C 29.751831 3.4850002 29.675275 3.4726706 29.59375 3.4628906 C 29.515485 3.4498573 29.436994 3.4401271 29.355469 3.4335938 C 29.273943 3.4238137 29.199986 3.4199219 29.134766 3.4199219 z M 29.134766 4.3535156 C 29.37282 4.3535156 29.541487 4.4404473 29.642578 4.6132812 C 29.74693 4.7861146 29.800781 5.0190087 29.800781 5.3125 C 29.800781 5.6092527 29.74693 5.8389025 29.642578 6.0019531 C 29.538225 6.1650038 29.369559 6.2480469 29.134766 6.2480469 C 28.909756 6.2480469 28.741734 6.1650038 28.630859 6.0019531 C 28.519985 5.8389025 28.464844 5.6092527 28.464844 5.3125 C 28.464844 4.6733413 28.688007 4.3535156 29.134766 4.3535156 z "
       transform="translate(-11.135153,-37.84311)"
       id="rect11450" />
    <path
       style="fill:#ffffff;stroke:none;stroke-width:3;stroke-miterlimit:4;stroke-dasharray:none;stroke-opacity:1"
       d="M 75.986328 15.707031 C 75.647182 15.707031 75.346818 15.751151 75.085938 15.835938 C 74.825055 15.920724 74.605782 16.043981 74.429688 16.207031 C 74.253593 16.366821 74.120606 16.561436 74.029297 16.792969 C 73.93799 17.024501 73.892578 17.288541 73.892578 17.582031 C 73.892578 17.953787 73.974314 18.274903 74.140625 18.548828 C 74.310198 18.822753 74.539203 19.022566 74.826172 19.146484 C 74.715297 19.214966 74.615391 19.282436 74.527344 19.347656 C 74.439298 19.412876 74.367294 19.481637 74.308594 19.556641 C 74.249898 19.628383 74.202535 19.708183 74.169922 19.792969 C 74.168309 19.797628 74.169493 19.803875 74.167969 19.808594 L 75.337891 19.808594 C 75.340567 19.732638 75.355711 19.665263 75.388672 19.611328 C 75.427799 19.549365 75.479695 19.49098 75.544922 19.435547 C 75.587315 19.445334 75.652187 19.455064 75.740234 19.464844 C 75.828282 19.471377 75.911325 19.474609 75.986328 19.474609 C 76.331996 19.474609 76.63365 19.429844 76.894531 19.341797 C 77.155412 19.250488 77.372088 19.123988 77.544922 18.960938 C 77.717756 18.797887 77.849453 18.601318 77.9375 18.373047 C 78.025547 18.141515 78.068359 17.888515 78.068359 17.611328 C 78.068359 17.474365 78.055384 17.345912 78.029297 17.228516 C 78.003208 17.107858 77.957798 16.991734 77.892578 16.880859 L 78.691406 16.632812 L 78.691406 15.820312 L 78.689453 15.820312 L 76.832031 15.820312 C 76.792896 15.810532 76.7384 15.798203 76.669922 15.785156 C 76.601441 15.772116 76.526838 15.761733 76.445312 15.751953 C 76.367048 15.73892 76.286603 15.72919 76.205078 15.722656 C 76.123552 15.712876 76.051548 15.707031 75.986328 15.707031 z M 75.986328 16.642578 C 76.224383 16.642578 76.393049 16.727556 76.494141 16.900391 C 76.598493 17.073224 76.650391 17.30807 76.650391 17.601562 C 76.650391 17.898315 76.598493 18.127965 76.494141 18.291016 C 76.389788 18.454066 76.221121 18.535156 75.986328 18.535156 C 75.761319 18.535156 75.593297 18.454066 75.482422 18.291016 C 75.371547 18.127965 75.314453 17.898315 75.314453 17.601562 C 75.314453 16.962402 75.539569 16.642578 75.986328 16.642578 z "
       transform="translate(-11.135153,-37.84311)"
       id="rect11476" />
    <path
       style="fill:#ffffff;stroke:none;stroke-width:3;stroke-miterlimit:4;stroke-dasharray:none;stroke-opacity:1"
       d="M 38.916016 31.837891 L 38.916016 34.878906 L 43.546875 34.878906 C 43.448626 34.831457 43.356397 34.777237 43.242188 34.746094 C 43.530898 34.642714 43.752495 34.483823 43.904297 34.271484 C 44.056069 34.056339 44.130859 33.796738 44.130859 33.492188 C 44.130859 32.913819 43.922549 32.493106 43.505859 32.230469 C 43.092136 31.967832 42.423705 31.837891 41.498047 31.837891 L 38.916016 31.837891 z M 40.634766 32.935547 L 41.585938 32.935547 C 41.856795 32.935558 42.063228 32.992872 42.203125 33.107422 C 42.343005 33.219187 42.412098 33.382522 42.412109 33.597656 C 42.412098 33.815607 42.34301 33.980031 42.203125 34.091797 C 42.063228 34.203539 41.856795 34.259766 41.585938 34.259766 L 40.634766 34.259766 L 40.634766 32.935547 z "
       transform="translate(-11.135153,-37.84311)"
       id="rect11497" />
    <path
       style="opacity:1;fill:#ffffff"
       d="M 23.21875 28.320312 C 23.199502 28.320313 23.181298 28.322138 23.162109 28.322266 L 23.162109 41.591797 C 23.181287 41.591929 23.199519 41.59375 23.21875 41.59375 C 25.134442 41.59375 26.799491 40.933533 28.214844 39.609375 C 29.558647 38.379479 30.230469 36.833718 30.230469 34.96875 C 30.230469 33.117897 29.548938 31.546333 28.183594 30.255859 C 26.818515 28.965635 25.162888 28.320312 23.21875 28.320312 z M 25.794922 32.451172 C 26.848782 32.451172 27.603214 32.843273 28.058594 33.628906 L 26.902344 34.175781 C 26.687949 33.734555 26.375113 33.515625 25.960938 33.515625 C 25.190096 33.515625 24.802734 33.995635 24.802734 34.957031 C 24.802734 35.918636 25.190096 36.398438 25.960938 36.398438 C 26.460757 36.398438 26.809986 36.164436 27.009766 35.695312 L 28.080078 36.222656 C 27.581594 37.061098 26.834827 37.482422 25.837891 37.482422 C 25.06864 37.482422 24.451382 37.258497 23.988281 36.8125 C 23.525986 36.366012 23.294922 35.751438 23.294922 34.966797 C 23.294922 34.195971 23.529984 33.582172 24 33.128906 C 24.469741 32.675611 25.068224 32.451172 25.794922 32.451172 z "
       transform="translate(-11.135153,-37.84311)"
       id="path3757-0" />
    <path
       style="fill:#ffffff;stroke:none;stroke-width:3;stroke-miterlimit:4;stroke-dasharray:none;stroke-opacity:1"
       d="M 23.162109 28.322266 C 21.243104 28.334985 19.617345 28.983428 18.287109 30.267578 C 16.885863 31.605318 16.185547 33.171198 16.185547 34.96875 C 16.185547 36.765821 16.879005 38.318572 18.265625 39.628906 C 19.63858 40.926573 21.270925 41.580752 23.162109 41.59375 L 23.162109 28.322266 z M 20.839844 32.451172 C 21.895569 32.451172 22.652394 32.843273 23.109375 33.628906 L 21.974609 34.175781 C 21.76049 33.734555 21.439183 33.517578 21.011719 33.517578 C 20.256034 33.517578 19.878906 33.995635 19.878906 34.957031 C 19.878906 35.918636 20.256034 36.398438 21.011719 36.398438 C 21.510733 36.398438 21.868166 36.164437 22.082031 35.695312 L 23.128906 36.222656 C 22.629627 37.061098 21.881615 37.482422 20.882812 37.482422 C 20.112512 37.482422 19.494617 37.26045 19.03125 36.814453 C 18.567088 36.367965 18.335938 35.751438 18.335938 34.966797 C 18.335938 34.195971 18.574741 33.582172 19.052734 33.128906 C 19.530726 32.675611 20.126181 32.451172 20.839844 32.451172 z "
       transform="translate(-11.135153,-37.84311)"
       id="rect12445" />
  </g>
  <g
     style="display:none"
     transform="translate(11.135153,37.84311)"
     inkscape:label="Paste"
     id="layer10"
     inkscape:groupmode="layer" />
  <g
     transform="translate(11.135153,37.84311)"
     style="display:none"
     inkscape:label="Adhes"
     id="layer5"
     inkscape:groupmode="layer" />
  <g
     style="display:inline"
     transform="translate(12.906809,39.299491)"
     inkscape:label="Cu"
     id="layer2"
     inkscape:groupmode="layer" />
</svg>
