<?xml version="1.0" encoding="UTF-8" standalone="no"?>
<!-- Created with Inkscape (http://www.inkscape.org/) -->

<svg
   xmlns:dc="http://purl.org/dc/elements/1.1/"
   xmlns:cc="http://creativecommons.org/ns#"
   xmlns:rdf="http://www.w3.org/1999/02/22-rdf-syntax-ns#"
   xmlns:svg="http://www.w3.org/2000/svg"
   xmlns="http://www.w3.org/2000/svg"
   xmlns:sodipodi="http://sodipodi.sourceforge.net/DTD/sodipodi-0.dtd"
   xmlns:inkscape="http://www.inkscape.org/namespaces/inkscape"
   width="25mm"
   height="12.5mm"
   id="svg3350"
   version="1.1"
   inkscape:version="0.92+devel unknown"
   sodipodi:docname="label_data_exp.svg"
   inkscape:export-filename="/home/mike/git/keyboard-pcbs/amoeba/dt.copper.png"
   inkscape:export-xdpi="10160"
   inkscape:export-ydpi="10160">
  <sodipodi:namedview
     units="mm"
     inkscape:object-paths="true"
     inkscape:snap-global="false"
     inkscape:snap-page="true"
     inkscape:snap-bbox="true"
     inkscape:window-maximized="0"
     inkscape:window-y="23"
     inkscape:window-x="1366"
     inkscape:window-height="1417"
     inkscape:window-width="2560"
     fit-margin-bottom="0"
     fit-margin-right="0"
     fit-margin-left="0"
     fit-margin-top="0"
     showgrid="false"
     inkscape:current-layer="layer6"
     inkscape:document-units="mm"
     inkscape:cy="25.428947"
     inkscape:cx="78.264347"
     inkscape:zoom="90.509668"
     inkscape:pageshadow="2"
     inkscape:pageopacity="0"
     borderopacity="1.0"
     bordercolor="#666666"
     pagecolor="#cc0000"
     id="base"
     inkscape:document-rotation="0" />
  <defs
     id="defs3352">
    <clipPath
       id="clipPath3442"
       clipPathUnits="userSpaceOnUse">
      <rect
         y="239.1203"
         x="171.99832"
         height="12.483703"
         width="20.614058"
         id="rect3444"
         style="fill:#000000;fill-opacity:1;stroke:none;stroke-width:0.92243534;stroke-miterlimit:4;stroke-dasharray:none;stroke-opacity:1" />
    </clipPath>
  </defs>
  <metadata
     id="metadata3355">
    <rdf:RDF>
      <cc:Work
         rdf:about="">
        <dc:format>image/svg+xml</dc:format>
        <dc:type
           rdf:resource="http://purl.org/dc/dcmitype/StillImage" />
        <dc:title />
      </cc:Work>
    </rdf:RDF>
  </metadata>
  <g
     style="display:none"
     transform="translate(11.135153,37.84311)"
     inkscape:label="Pretty"
     id="layer24"
     inkscape:groupmode="layer">
    <g
       inkscape:label="Fab"
       id="layer25"
       inkscape:groupmode="layer" />
    <g
       inkscape:label="CrtYd"
       id="layer26"
       inkscape:groupmode="layer" />
  </g>
  <g
     style="display:none"
     transform="translate(11.135153,37.84311)"
     inkscape:label="Legacy"
     id="layer17"
     inkscape:groupmode="layer">
    <g
       inkscape:label="Edge.Cuts"
       id="layer23"
       inkscape:groupmode="layer" />
    <g
       inkscape:label="User"
       id="layer18"
       inkscape:groupmode="layer">
      <g
         inkscape:label="Eco2.User"
         id="layer19"
         inkscape:groupmode="layer" />
      <g
         inkscape:label="Eco1.User"
         id="layer20"
         inkscape:groupmode="layer" />
      <g
         inkscape:label="Cmts.User"
         id="layer21"
         inkscape:groupmode="layer" />
      <g
         inkscape:label="Dwgs.User"
         id="layer22"
         inkscape:groupmode="layer" />
    </g>
  </g>
  <g
     transform="translate(11.135153,37.84311)"
     style="display:inline"
     inkscape:label="Mask"
     id="layer1"
     inkscape:groupmode="layer">
    <path
       style="display:inline;fill:#ffcc00;fill-opacity:1;stroke:none;stroke-width:1;stroke-miterlimit:4;stroke-dasharray:none;stroke-opacity:0.46913578"
       d="M 0.5044303,-7.2056093 V 6.1423079 H 7.8669308 C 7.6330396,5.9573874 7.4048486,5.7597095 7.1815142,5.5485586 5.3829744,3.848631 4.4835974,1.8181691 4.4835974,-0.54519203 c 0,-2.36283637 0.899377,-4.40863907 2.6979168,-6.13749997 0.1948416,-0.1858272 0.3955691,-0.3577248 0.6000001,-0.5229173 z"
       id="path6594" />
    <path
       style="display:inline;fill:#ffcc00;fill-opacity:1;stroke:none;stroke-width:1;stroke-miterlimit:4;stroke-dasharray:none;stroke-opacity:0.46913578"
       d="m 19.491932,-7.2056093 c 0.206503,0.1652875 0.409578,0.3369685 0.606249,0.5229173 1.767902,1.6709473 2.652084,3.7172844 2.652084,6.13749997 0,2.42073923 -0.868724,4.44488973 -2.60625,6.07291643 -0.235792,0.219263 -0.47611,0.423392 -0.722917,0.6145835 h 5.016666 c 1.540198,-1.9470433 2.579167,-4.2104577 2.579167,-6.67499967 0,-2.44810143 -1.020357,-4.73417293 -2.541666,-6.67291753 z"
       id="path3753" />
  </g>
  <g
     transform="translate(11.135153,37.84311)"
     style="display:inline"
     inkscape:label="SilkS"
     id="layer6"
     inkscape:groupmode="layer">
    <path
       style="fill:#ffffff;fill-opacity:1;stroke:none;stroke-width:0.99999994;stroke-miterlimit:4;stroke-dasharray:none;stroke-opacity:1"
       d="M -0.8143194,-8.8889427 V 7.7985576 H 11.202347 C 9.9860189,7.4876061 8.866502,6.9348626 7.8502641,6.1277244 H 0.56693057 V -7.222276 H 7.8023473 c 0.9982721,-0.8020256 2.1130316,-1.3555766 3.3395837,-1.6666667 z"
       id="path6590" />
    <path
       style="fill:#ffffff;fill-opacity:1;stroke:none;stroke-width:0.99999994;stroke-miterlimit:4;stroke-dasharray:none;stroke-opacity:1"
       d="m 16.098181,-8.8889427 c 1.240745,0.3112341 2.367318,0.8644672 3.375,1.6666667 H 71.421099 V 6.1277244 H 19.439847 c -1.0373,0.8074902 -2.176651,1.3598902 -3.408332,1.6708332 H 72.802349 V -8.8889427 Z"
       id="rect3749" />
    <path
       style="font-style:normal;font-weight:bold;font-size:8.25858784px;font-family:'Bitstream Vera Sans';fill:#ffffff;fill-opacity:1;stroke:none;stroke-width:1px;stroke-linecap:butt;stroke-linejoin:miter;stroke-opacity:1"
       d="M 41.509766 37.205078 L 41.509766 38.636719 L 43.34375 38.636719 L 43.34375 37.714844 L 44.419922 37.714844 C 44.791388 37.714844 45.069776 37.787559 45.253906 37.933594 C 45.438089 38.076649 45.53125 38.294905 45.53125 38.583984 C 45.53125 38.879049 45.437311 39.098103 45.25 39.244141 C 45.065845 39.390207 44.78821 39.462891 44.419922 39.462891 L 43.34375 39.462891 L 43.34375 38.638672 L 41.509766 38.638672 L 41.509766 40.632812 L 44.554688 40.632812 C 45.500793 40.632812 46.204444 40.476067 46.667969 40.160156 C 47.131483 39.844246 47.365222 39.36446 47.365234 38.720703 C 47.365222 38.300483 47.254937 37.945351 47.039062 37.65625 C 46.889969 37.456629 46.683079 37.31802 46.449219 37.205078 L 41.509766 37.205078 z "
       transform="translate(-11.135153,-37.84311)"
       id="path11250" />
    <path
       inkscape:connector-curvature="0"
       id="path11248"
       d="m 36.069305,-3.8831705 h 2.004913 l 1.619171,2.3782757 1.61916,-2.3782757 h 2.009677 l -2.709732,3.86247194 V 2.7912242 H 38.779038 V -0.02069856 L 36.069305,-3.8831705"
       style="font-style:normal;font-weight:bold;font-size:8.25858784px;font-family:'Bitstream Vera Sans';fill:#ffffff;fill-opacity:1;stroke:none;stroke-width:1px;stroke-linecap:butt;stroke-linejoin:miter;stroke-opacity:1" />
    <path
       inkscape:connector-curvature="0"
       id="path11246"
       d="m 42.331681,-0.49456876 h 2.990702 v 1.30090553 h -2.990702 v -1.30090553"
       style="font-style:normal;font-weight:bold;font-size:8.25858784px;font-family:'Bitstream Vera Sans';fill:#ffffff;fill-opacity:1;stroke:none;stroke-width:1px;stroke-linecap:butt;stroke-linejoin:miter;stroke-opacity:1" />
    <path
       inkscape:connector-curvature="0"
       id="path11244"
       d="m 51.703818,-3.6730718 v 1.4126803 c -0.390508,-0.1639235 -0.771494,-0.2875999 -1.142935,-0.371052 -0.371466,-0.083428 -0.722298,-0.1251782 -1.052464,-0.1251782 -0.438138,0 -0.76196,0.056624 -0.971502,0.1698743 -0.209554,0.1132599 -0.314314,0.2891016 -0.314314,0.5275217 0,0.1788298 0.06979,0.3189035 0.20953,0.42022 0.142881,0.098338 0.40003,0.1832907 0.771495,0.2548173 l 0.781015,0.1475155 c 0.790524,0.149028 1.352478,0.37553453 1.685832,0.67951982 0.333356,0.30399713 0.500034,0.73614135 0.500046,1.29642297 -1.2e-5,0.73615331 -0.233351,1.28452141 -0.700054,1.64513901 -0.463537,0.3576355 -1.173113,0.5364545 -2.128738,0.5364545 -0.450825,0 -0.90324,-0.040272 -1.357231,-0.1207064 C 47.530482,2.719732 47.076478,2.6004702 46.622487,2.4425202 V 0.98962745 c 0.453991,0.22650655 0.892118,0.39787075 1.31438,0.51409465 0.425427,0.1132479 0.834978,0.1698862 1.228663,0.1698862 0.400029,0 0.706398,-0.062631 0.919117,-0.1877625 0.212707,-0.1251675 0.319068,-0.3039959 0.319068,-0.53645462 0,-0.20861953 -0.07297,-0.36956108 -0.219052,-0.48281495 C 50.041783,0.35332833 49.754457,0.2519951 49.322686,0.16259105 L 48.613112,0.01506475 C 47.901947,-0.12798966 47.381271,-0.35598604 47.05108,-0.66891597 46.724069,-0.98184472 46.560569,-1.4035557 46.560569,-1.9340582 c 0,-0.664592 0.228583,-1.1757166 0.685776,-1.5333641 0.457171,-0.3576368 1.114361,-0.5364546 1.97157,-0.5364546 0.390508,0 0.792114,0.028258 1.204854,0.08499 0.412717,0.05362 0.839733,0.135602 1.281049,0.2458619"
       style="font-style:normal;font-weight:bold;font-size:8.25858784px;font-family:'Bitstream Vera Sans';fill:#ffffff;fill-opacity:1;stroke:none;stroke-width:1px;stroke-linecap:butt;stroke-linejoin:miter;stroke-opacity:1" />
    <path
       inkscape:connector-curvature="0"
       id="text3761"
       style="font-style:normal;font-weight:bold;font-size:8.25858784px;font-family:'Bitstream Vera Sans';fill:#ffffff;fill-opacity:1;stroke:none;stroke-width:1px;stroke-linecap:butt;stroke-linejoin:miter;stroke-opacity:1"
       d="m 55.689833,0.33698476 h 1.94776 L 56.666101,-2.3184671 55.689833,0.33698476 m 2.409696,1.23831164 h -2.866877 l -0.452415,1.2159743 h -1.842988 l 2.633525,-6.6743947 h 2.185879 l 2.633525,6.6743947 h -1.842989 l -0.44766,-1.2159743" />
    <g
       id="g11284"
       transform="matrix(1.0666667,0,0,1.0666667,0.74234353,2.522874)"
       style="stroke-width:0.9375;stroke:none;stroke-opacity:1">
      <g
         id="flowRoot10713-9"
         style="font-style:normal;font-weight:normal;font-size:13.44865322px;line-height:125%;font-family:sans-serif;letter-spacing:0px;word-spacing:0px;display:inline;fill:#ffffff;fill-opacity:1;stroke:none;stroke-width:0.9375px;stroke-linecap:butt;stroke-linejoin:miter;stroke-opacity:1"
         transform="matrix(1.117343,0,0,1.117343,5.8992553,4.4004009)" />
      <path
         style="font-style:normal;font-variant:normal;font-weight:bold;font-stretch:normal;font-size:8.96576881px;line-height:125%;font-family:'Droid Sans';-inkscape-font-specification:'Droid Sans Bold';letter-spacing:0px;word-spacing:0px;fill:#ffffff;fill-opacity:1;stroke:none;stroke-width:1px;stroke-linecap:butt;stroke-linejoin:miter;stroke-opacity:1"
         d="M 79.113281 21.128906 C 79.085324 21.215456 79.068359 21.30887 79.068359 21.414062 C 79.068359 21.51146 79.08631 21.604873 79.121094 21.695312 C 79.159355 21.782278 79.206057 21.862504 79.261719 21.935547 C 79.320855 22.008592 79.38551 22.073248 79.455078 22.128906 C 79.528123 22.184565 79.600785 22.228462 79.673828 22.259766 C 79.510342 22.298027 79.349887 22.350354 79.193359 22.419922 C 79.040308 22.48949 78.902994 22.580097 78.78125 22.691406 C 78.659502 22.802715 78.563279 22.937221 78.490234 23.09375 C 78.417189 23.250279 78.378906 23.436255 78.378906 23.648438 C 78.378906 23.898883 78.427994 24.122043 78.525391 24.320312 C 78.626265 24.518582 78.776341 24.687035 78.974609 24.826172 C 79.17288 24.968791 79.419179 25.077347 79.714844 25.150391 C 80.010509 25.226913 80.357367 25.263672 80.753906 25.263672 C 81.265234 25.263672 81.713934 25.216104 82.103516 25.115234 C 82.493099 25.017837 82.82115 24.873382 83.082031 24.685547 C 83.346391 24.501192 83.543602 24.275651 83.675781 24.007812 C 83.756691 23.845994 83.804657 23.667498 83.835938 23.480469 L 82.447266 23.480469 C 82.406968 23.676992 82.278589 23.841004 82.052734 23.966797 C 81.777939 24.119848 81.368804 24.195312 80.826172 24.195312 C 80.627902 24.195312 80.459876 24.174991 80.324219 24.136719 C 80.18856 24.101935 80.08153 24.054799 79.998047 23.992188 C 79.91457 23.929574 79.852718 23.85692 79.814453 23.773438 C 79.779669 23.693437 79.761719 23.610399 79.761719 23.523438 C 79.761719 23.384301 79.792437 23.267746 79.851562 23.173828 C 79.914176 23.083385 79.991593 23.01073 80.082031 22.955078 C 80.172474 22.899419 80.269122 22.858337 80.376953 22.833984 C 80.484784 22.81311 80.587724 22.802734 80.681641 22.802734 L 81.416016 22.802734 C 81.774293 22.802734 82.040495 22.839068 82.210938 22.912109 C 82.38138 22.985155 82.464844 23.130469 82.464844 23.349609 C 82.464844 23.39478 82.455744 23.436509 82.447266 23.478516 L 83.835938 23.478516 C 83.85555 23.360576 83.873047 23.242732 83.873047 23.115234 C 83.873047 22.833483 83.831532 22.59042 83.748047 22.388672 C 83.66457 22.183445 83.545201 22.014993 83.388672 21.882812 C 83.235622 21.750634 83.046836 21.65441 82.824219 21.591797 C 82.601599 21.525706 82.350112 21.492187 82.068359 21.492188 L 81.160156 21.492188 C 81.055804 21.492188 80.954817 21.487509 80.857422 21.480469 C 80.760025 21.470015 80.674606 21.454029 80.601562 21.429688 C 80.528517 21.401858 80.471 21.365957 80.425781 21.324219 C 80.380565 21.278992 80.355469 21.221479 80.355469 21.148438 C 80.355469 21.141077 80.361115 21.136064 80.361328 21.128906 L 79.113281 21.128906 z "
         transform="matrix(0.93749997,0,0,0.93749997,-11.135153,-37.843109)"
         id="path11189" />
      <path
         d="m 59.601671,-16.466024 q -0.586983,0 -1.081026,-0.171203 -0.494045,-0.171204 -0.851125,-0.51361 -0.357082,-0.347298 -0.557635,-0.870692 -0.19566,-0.528284 -0.19566,-1.237555 0,-0.719053 0.180986,-1.257121 0.180986,-0.538068 0.503827,-0.895149 0.327732,-0.361973 0.782644,-0.542959 0.459803,-0.180987 1.017437,-0.180987 0.542958,0 0.978304,0.166312 0.440238,0.161421 0.743511,0.479369 0.308167,0.317949 0.469587,0.782644 0.166311,0.459804 0.166311,1.056569 v 0.723945 h -3.336018 q 0.0098,0.313059 0.09783,0.567417 0.09294,0.249468 0.254359,0.425563 0.166312,0.171204 0.396213,0.264142 0.234794,0.09294 0.533176,0.09294 0.249468,0 0.469587,-0.02446 0.225009,-0.02935 0.435345,-0.08315 0.210336,-0.05381 0.41578,-0.132071 0.205443,-0.08315 0.42067,-0.190769 v 1.154399 q -0.195661,0.102718 -0.396213,0.176095 -0.195661,0.06848 -0.415779,0.117397 -0.220119,0.04892 -0.474478,0.06848 -0.254359,0.02446 -0.557634,0.02446 z m -0.19077,-4.607814 q -0.396213,0 -0.660355,0.278816 -0.259251,0.278817 -0.298383,0.875582 h 1.902803 q -0.0049,-0.249467 -0.06359,-0.459802 -0.0587,-0.210336 -0.176095,-0.361974 -0.117397,-0.156528 -0.293491,-0.244576 -0.176095,-0.08805 -0.410889,-0.08805 z"
         style="font-style:normal;font-variant:normal;font-weight:bold;font-stretch:normal;font-size:8.96576881px;line-height:125%;font-family:'Droid Sans';-inkscape-font-specification:'Droid Sans Bold';letter-spacing:0px;word-spacing:0px;fill:#ffffff;fill-opacity:1;stroke:none;stroke-width:0.9375px;stroke-linecap:butt;stroke-linejoin:miter;stroke-opacity:1"
         id="path11185"
         inkscape:connector-curvature="0" />
      <path
         id="path11183"
         d="m 56.030857,-18.18784 q 0,0.430453 -0.156529,0.753294 -0.156528,0.32284 -0.445128,0.538067 -0.288601,0.215228 -0.699488,0.322841 -0.410888,0.107611 -0.919607,0.107611 -0.269033,0 -0.498935,-0.01956 -0.229901,-0.01467 -0.435345,-0.05381 -0.205444,-0.03913 -0.396214,-0.09783 -0.190769,-0.05869 -0.386429,-0.146746 v -1.232664 q 0.205443,0.102717 0.430453,0.185878 0.229902,0.08315 0.454911,0.146746 0.225011,0.05869 0.435346,0.09294 0.215227,0.03424 0.396213,0.03424 0.200553,0 0.342407,-0.03424 0.141854,-0.03913 0.229902,-0.102717 0.09294,-0.06848 0.132071,-0.156529 0.04402,-0.09294 0.04402,-0.195661 0,-0.102717 -0.03424,-0.180986 -0.02935,-0.08315 -0.141854,-0.171204 -0.112506,-0.09294 -0.332625,-0.205443 -0.215227,-0.117396 -0.582091,-0.283708 -0.357081,-0.161421 -0.621223,-0.317949 -0.259251,-0.16142 -0.430454,-0.357082 -0.166311,-0.195661 -0.249467,-0.445128 -0.08315,-0.25436 -0.08315,-0.601658 0,-0.381538 0.146745,-0.665247 0.146746,-0.2886 0.41578,-0.479369 0.269034,-0.19077 0.645681,-0.283708 0.381538,-0.09783 0.846234,-0.09783 0.489152,0 0.929389,0.112506 0.440237,0.112505 0.904931,0.337516 l -0.45002,1.056568 q -0.371755,-0.176094 -0.70927,-0.2886 -0.337516,-0.112505 -0.67503,-0.112505 -0.303275,0 -0.440238,0.107611 -0.132071,0.107612 -0.132071,0.293492 0,0.09783 0.03424,0.176094 0.03424,0.07338 0.136963,0.15653 0.102717,0.07827 0.2886,0.176094 0.185878,0.09294 0.484261,0.229901 0.347298,0.151638 0.626115,0.303275 0.278816,0.146746 0.479369,0.337515 0.200552,0.190769 0.308166,0.445129 0.107611,0.254359 0.107611,0.616332 z"
         style="font-style:normal;font-variant:normal;font-weight:bold;font-stretch:normal;font-size:8.96576881px;line-height:125%;font-family:'Droid Sans';-inkscape-font-specification:'Droid Sans Bold';letter-spacing:0px;word-spacing:0px;fill:#ffffff;fill-opacity:1;stroke:none;stroke-width:0.9375px;stroke-linecap:butt;stroke-linejoin:miter;stroke-opacity:1"
         inkscape:connector-curvature="0" />
      <path
         d="m 49.368604,-19.097663 -0.494044,0.01956 q -0.298383,0.0098 -0.503827,0.07827 -0.205443,0.06848 -0.332624,0.185878 -0.122287,0.112505 -0.180986,0.273926 -0.05381,0.156528 -0.05381,0.35219 0,0.342406 0.166312,0.489151 0.166312,0.141855 0.435346,0.141855 0.205443,0 0.381538,-0.06848 0.176095,-0.07338 0.303275,-0.210337 0.132071,-0.141853 0.205443,-0.342406 0.07338,-0.205444 0.07338,-0.469586 v -0.45002 z m 0.440237,2.533809 -0.2886,-0.743512 h -0.04402 q -0.16142,0.220118 -0.322841,0.381538 -0.16142,0.156529 -0.35219,0.259252 -0.190769,0.102717 -0.430454,0.151637 -0.234793,0.04892 -0.547851,0.04892 -0.332623,0 -0.616331,-0.102717 -0.283709,-0.107612 -0.494044,-0.317949 -0.205444,-0.215227 -0.322841,-0.538068 -0.117396,-0.327732 -0.117396,-0.772861 0,-0.87069 0.557634,-1.281579 0.557633,-0.415779 1.668009,-0.459803 l 0.870691,-0.02935 v -0.410887 q 0,-0.337516 -0.195661,-0.498936 -0.195661,-0.16142 -0.547851,-0.16142 -0.352189,0 -0.689705,0.102717 -0.332623,0.102717 -0.670138,0.273925 l -0.484261,-0.988088 q 0.410888,-0.229901 0.909823,-0.361972 0.498936,-0.132071 1.046786,-0.132071 1.022329,0 1.565288,0.479369 0.54785,0.479369 0.54785,1.457673 v 3.644185 h -1.041894 z"
         style="font-style:normal;font-variant:normal;font-weight:bold;font-stretch:normal;font-size:8.96576881px;line-height:125%;font-family:'Droid Sans';-inkscape-font-specification:'Droid Sans Bold';letter-spacing:0px;word-spacing:0px;fill:#ffffff;fill-opacity:1;stroke:none;stroke-width:0.9375px;stroke-linecap:butt;stroke-linejoin:miter;stroke-opacity:1"
         id="path11179"
         inkscape:connector-curvature="0" />
      <path
         id="path11177"
         d="m 43.298223,-14.157225 q -0.234793,0 -0.48426,-0.03423 -0.249468,-0.03425 -0.41578,-0.08805 v -1.173965 q 0.151638,0.04892 0.283709,0.06848 0.132071,0.02446 0.298382,0.02446 0.122289,0 0.229902,-0.03913 0.112506,-0.03424 0.19077,-0.132071 0.08315,-0.09294 0.132071,-0.254359 0.04892,-0.156529 0.04892,-0.405997 v -5.840478 h 1.491915 v 6.060597 q 0,0.376648 -0.09784,0.704379 -0.09294,0.332624 -0.308167,0.5772 -0.210335,0.249467 -0.54785,0.391322 -0.337515,0.141854 -0.821776,0.141854 z"
         style="font-style:normal;font-variant:normal;font-weight:bold;font-stretch:normal;font-size:8.96576881px;line-height:125%;font-family:'Droid Sans';-inkscape-font-specification:'Droid Sans Bold';letter-spacing:0px;word-spacing:0px;fill:#ffffff;fill-opacity:1;stroke:none;stroke-width:0.9375px;stroke-linecap:butt;stroke-linejoin:miter;stroke-opacity:1"
         inkscape:connector-curvature="0" />
      <path
         id="path11175"
         d="m 43.518342,-23.446227 q 0,-0.210336 0.06359,-0.347298 0.06359,-0.141855 0.171202,-0.225011 0.112506,-0.08805 0.259252,-0.122287 0.151637,-0.03424 0.317949,-0.03424 0.166312,0 0.313057,0.03424 0.146746,0.03424 0.25436,0.122287 0.112504,0.08315 0.176094,0.225011 0.06848,0.136962 0.06848,0.347298 0,0.205444 -0.06848,0.347298 -0.06359,0.141854 -0.176094,0.229901 -0.107612,0.08315 -0.25436,0.122288 -0.146745,0.03423 -0.313057,0.03423 -0.166312,0 -0.317949,-0.03423 -0.146746,-0.03913 -0.259252,-0.122288 -0.107611,-0.08805 -0.171202,-0.229901 -0.06359,-0.141854 -0.06359,-0.347298 z"
         style="font-style:normal;font-variant:normal;font-weight:bold;font-stretch:normal;font-size:8.96576881px;line-height:125%;font-family:'Droid Sans';-inkscape-font-specification:'Droid Sans Bold';letter-spacing:0px;word-spacing:0px;fill:#ffffff;fill-opacity:1;stroke:none;stroke-width:0.9375px;stroke-linecap:butt;stroke-linejoin:miter;stroke-opacity:1"
         inkscape:connector-curvature="0" />
      <path
         id="path11173"
         d="m 35.691906,-16.563854 2.543591,-5.869828 h -3.287103 v -1.271796 h 4.930655 v 0.948956 l -2.607182,6.192668 z"
         style="font-style:normal;font-variant:normal;font-weight:bold;font-stretch:normal;font-size:8.96576881px;line-height:125%;font-family:'Droid Sans';-inkscape-font-specification:'Droid Sans Bold';letter-spacing:0px;word-spacing:0px;fill:#ffffff;fill-opacity:1;stroke:none;stroke-width:0.9375px;stroke-linecap:butt;stroke-linejoin:miter;stroke-opacity:1"
         inkscape:connector-curvature="0" />
      <path
         id="path11171"
         d="m 33.158097,-16.563854 h -1.511481 v -4.138229 q 0,-0.127179 0,-0.303275 0.0049,-0.180986 0.0098,-0.371755 0.0098,-0.195662 0.01467,-0.391322 0.0098,-0.195661 0.01467,-0.357081 -0.02446,0.02935 -0.08315,0.08805 -0.05869,0.05869 -0.132071,0.132071 -0.07338,0.06848 -0.151637,0.141855 -0.07827,0.07338 -0.151638,0.132071 l -0.821775,0.660355 -0.733728,-0.909823 2.303906,-1.834321 h 1.242448 v 7.151406 z"
         style="font-style:normal;font-variant:normal;font-weight:bold;font-stretch:normal;font-size:8.96576881px;line-height:125%;font-family:'Droid Sans';-inkscape-font-specification:'Droid Sans Bold';letter-spacing:0px;word-spacing:0px;fill:#ffffff;fill-opacity:1;stroke:none;stroke-width:0.9375px;stroke-linecap:butt;stroke-linejoin:miter;stroke-opacity:1"
         inkscape:connector-curvature="0" />
      <path
         d="m 25.45884,-20.139558 q 0,1.222881 0.210335,1.839213 0.210336,0.616332 0.728837,0.616332 0.508719,0 0.728838,-0.61144 0.225009,-0.611441 0.225009,-1.844105 0,-1.227772 -0.225009,-1.844104 -0.220119,-0.621224 -0.728838,-0.621224 -0.25925,0 -0.440236,0.156529 -0.176096,0.156529 -0.288601,0.464695 -0.112504,0.308166 -0.16142,0.772861 -0.04892,0.459803 -0.04892,1.071243 z m 3.394717,0 q 0,0.865799 -0.136963,1.545722 -0.132071,0.679921 -0.430454,1.154399 -0.293492,0.474478 -0.763077,0.723945 -0.464695,0.249468 -1.125051,0.249468 -0.621223,0 -1.081026,-0.249468 -0.459803,-0.249467 -0.763078,-0.723945 -0.303274,-0.474478 -0.454912,-1.154399 -0.146745,-0.679923 -0.146745,-1.545722 0,-0.8658 0.132071,-1.550612 0.136963,-0.684814 0.430454,-1.159292 0.293492,-0.474477 0.758186,-0.723945 0.464695,-0.254359 1.12505,-0.254359 0.616332,0 1.076136,0.249467 0.459803,0.249468 0.767968,0.723945 0.308167,0.474479 0.459804,1.159292 0.151637,0.684813 0.151637,1.555504 z"
         style="font-style:normal;font-variant:normal;font-weight:bold;font-stretch:normal;font-size:8.96576881px;line-height:125%;font-family:'Droid Sans';-inkscape-font-specification:'Droid Sans Bold';letter-spacing:0px;word-spacing:0px;fill:#ffffff;fill-opacity:1;stroke:none;stroke-width:0.9375px;stroke-linecap:butt;stroke-linejoin:miter;stroke-opacity:1"
         id="path11167"
         inkscape:connector-curvature="0" />
      <path
         id="path11165"
         d="m 23.326135,-16.563854 h -4.798584 v -1.051678 l 1.682684,-1.814755 q 0.317949,-0.342407 0.5772,-0.631006 0.259251,-0.2886 0.445129,-0.562526 0.185877,-0.273925 0.288599,-0.557633 0.102717,-0.283709 0.102717,-0.61144 0,-0.361974 -0.220118,-0.562526 -0.215226,-0.200553 -0.582091,-0.200553 -0.38643,0 -0.743512,0.19077 -0.357081,0.19077 -0.748403,0.542959 l -0.821775,-0.973413 q 0.220119,-0.200552 0.459803,-0.381539 0.239685,-0.185878 0.528284,-0.327731 0.2886,-0.141855 0.635898,-0.225011 0.347298,-0.08805 0.777752,-0.08805 0.513611,0 0.919607,0.141855 0.410887,0.141854 0.699487,0.405997 0.288601,0.25925 0.440238,0.631006 0.156528,0.371755 0.156528,0.83645 0,0.420671 -0.146746,0.807102 -0.146745,0.381538 -0.401105,0.753295 -0.254358,0.366864 -0.591873,0.733728 -0.332624,0.361973 -0.714163,0.738619 l -0.860908,0.8658 v 0.06848 h 2.915347 v 1.271797 z"
         style="font-style:normal;font-variant:normal;font-weight:bold;font-stretch:normal;font-size:8.96576881px;line-height:125%;font-family:'Droid Sans';-inkscape-font-specification:'Droid Sans Bold';letter-spacing:0px;word-spacing:0px;fill:#ffffff;fill-opacity:1;stroke:none;stroke-width:0.9375px;stroke-linecap:butt;stroke-linejoin:miter;stroke-opacity:1"
         inkscape:connector-curvature="0" />
      <path
         id="path11163"
         d="m 11.566914,-21.504293 q -0.474478,0 -0.733729,0.361973 -0.25925,0.361973 -0.25925,1.002762 0,0.660356 0.234793,1.017437 0.234793,0.352189 0.758186,0.352189 0.278817,0 0.601657,-0.07338 0.322841,-0.07338 0.601658,-0.215227 v 0.934281 q -0.278817,0.132071 -0.567417,0.205445 -0.2886,0.07338 -0.665247,0.07338 -0.523393,0 -0.914715,-0.166312 -0.391322,-0.166313 -0.6554642,-0.469586 -0.2592507,-0.303275 -0.3913218,-0.723946 -0.1320712,-0.425562 -0.1320712,-0.944064 0,-0.503827 0.1271797,-0.919606 0.1271796,-0.420672 0.3815388,-0.719055 0.2592507,-0.303273 0.6456807,-0.469585 0.386431,-0.166312 0.900041,-0.166312 0.405996,0 0.782643,0.107611 0.376648,0.107611 0.709271,0.273925 l -0.361973,0.821776 q -0.552741,-0.283708 -1.06146,-0.283708 z"
         style="font-style:normal;font-variant:normal;font-weight:bold;font-stretch:normal;font-size:8.96576881px;line-height:125%;font-family:'Droid Sans';-inkscape-font-specification:'Droid Sans Bold';letter-spacing:0px;word-spacing:0px;fill:#ffffff;fill-opacity:1;stroke:none;stroke-width:0.9375px;stroke-linecap:butt;stroke-linejoin:miter;stroke-opacity:1"
         inkscape:connector-curvature="0" />
      <path
         d="m 8.3727493,-20.139558 q 0,0.621223 0.2347931,1.164182 0.2347932,0.54296 0.635898,0.948956 0.4059964,0.401105 0.9489556,0.635898 0.542959,0.234793 1.164182,0.234793 0.621224,0 1.164183,-0.234793 0.542959,-0.234793 0.944064,-0.635898 0.405996,-0.405996 0.64079,-0.948956 0.234793,-0.542959 0.234793,-1.164182 0,-0.621223 -0.234793,-1.164183 -0.234794,-0.542958 -0.64079,-0.944063 -0.401105,-0.405997 -0.944064,-0.640789 -0.542959,-0.234794 -1.164183,-0.234794 -0.621223,0 -1.164182,0.234794 -0.5429592,0.234792 -0.9489556,0.640789 -0.4011048,0.401105 -0.635898,0.944063 -0.2347931,0.54296 -0.2347931,1.164183 z m -0.6945962,0 q 0,-0.508718 0.1320711,-0.978305 0.1320712,-0.469586 0.3668643,-0.875582 0.2396845,-0.410888 0.5771997,-0.748403 0.337515,-0.337515 0.7435114,-0.572308 0.4108879,-0.239685 0.8804744,-0.371756 0.469586,-0.132072 0.978304,-0.132072 0.508719,0 0.978305,0.132072 0.469586,0.132071 0.875582,0.371756 0.410889,0.234793 0.748403,0.572308 0.337516,0.337515 0.572309,0.748403 0.239685,0.405996 0.371756,0.875582 0.132071,0.469587 0.132071,0.978305 0,0.508719 -0.132071,0.978305 -0.132071,0.469585 -0.371756,0.880474 -0.234793,0.405996 -0.572309,0.743511 -0.337514,0.332624 -0.748403,0.572309 -0.405996,0.239684 -0.875582,0.371755 -0.469586,0.12718 -0.978305,0.12718 -0.508718,0 -0.978304,-0.12718 -0.4695865,-0.132071 -0.8804744,-0.371755 -0.4059964,-0.239685 -0.7435114,-0.572309 -0.3375152,-0.337515 -0.5771997,-0.743511 -0.2347931,-0.410889 -0.3668643,-0.880474 -0.1320711,-0.469586 -0.1320711,-0.978305 z"
         style="font-style:normal;font-variant:normal;font-weight:bold;font-stretch:normal;font-size:8.96576881px;line-height:125%;font-family:'Droid Sans';-inkscape-font-specification:'Droid Sans Bold';letter-spacing:0px;word-spacing:0px;fill:#ffffff;fill-opacity:1;stroke:none;stroke-width:0.9375px;stroke-linecap:butt;stroke-linejoin:miter;stroke-opacity:1"
         id="path11087"
         inkscape:connector-curvature="0" />
    </g>
    <path
       style="fill:#ffffff;stroke:none;stroke-width:3;stroke-miterlimit:4;stroke-dasharray:none;stroke-opacity:1"
       d="m 19.941932,-34.195193 c -0.361756,0 -0.682144,0.04498 -0.960417,0.135416 -0.278273,0.09044 -0.512166,0.221913 -0.7,0.395834 -0.187835,0.170442 -0.329688,0.380116 -0.427084,0.627083 -0.0974,0.246968 -0.145833,0.526526 -0.145833,0.839584 0,0.396539 0.08927,0.741146 0.266667,1.033333 0.180878,0.292187 0.423071,0.50532 0.729166,0.6375 -0.118266,0.07305 -0.222749,0.142932 -0.316667,0.2125 -0.09392,0.06957 -0.172803,0.144996 -0.235416,0.225 -0.0626,0.07653 -0.111046,0.159561 -0.145834,0.25 -0.0067,0.01934 -0.0051,0.04429 -0.01045,0.06458 h 1.2625 c -0.0011,-0.01055 -0.01045,-0.01588 -0.01045,-0.02708 0,-0.09044 0.01798,-0.166554 0.05625,-0.229167 0.04174,-0.06609 0.0971,-0.130447 0.166667,-0.189583 0.04522,0.01044 0.1165,0.02082 0.210417,0.03125 0.09392,0.007 0.180413,0.01042 0.260417,0.01042 0.368712,0 0.69256,-0.04567 0.970833,-0.139583 0.278273,-0.0974 0.509393,-0.234413 0.693749,-0.408334 0.184357,-0.17392 0.32275,-0.38151 0.416668,-0.625 0.09392,-0.246967 0.141666,-0.518918 0.141666,-0.814583 0,-0.146093 -0.01384,-0.281027 -0.04166,-0.40625 -0.02775,-0.128706 -0.07619,-0.252572 -0.145758,-0.370838 l 0.85,-0.266667 v -0.864583 H 20.84403 c -0.04174,-0.01043 -0.09779,-0.02358 -0.170834,-0.0375 -0.07305,-0.01392 -0.154706,-0.02707 -0.241666,-0.0375 -0.08348,-0.0139 -0.167207,-0.02428 -0.254167,-0.03125 -0.08696,-0.01043 -0.165848,-0.01458 -0.235416,-0.01458 z m 0,0.995833 c 0.253924,0 0.433835,0.09273 0.541666,0.277083 0.111309,0.184356 0.16875,0.432776 0.16875,0.745834 0,0.316536 -0.05744,0.561496 -0.16875,0.735417 -0.11131,0.17392 -0.29122,0.2625 -0.541666,0.2625 -0.240011,0 -0.419234,-0.08858 -0.537501,-0.2625 -0.118266,-0.173921 -0.177083,-0.418881 -0.177083,-0.735417 0,-0.681769 0.238041,-1.022917 0.714584,-1.022917 z"
       id="rect11450"
       inkscape:connector-curvature="0" />
    <path
       style="fill:#ffffff;stroke:none;stroke-width:3;stroke-miterlimit:4;stroke-dasharray:none;stroke-opacity:1"
       d="m 69.916933,-21.088943 c -0.361756,0 -0.682144,0.04706 -0.960416,0.137501 -0.278276,0.09044 -0.512167,0.221912 -0.7,0.395832 -0.187835,0.170443 -0.329688,0.378032 -0.427084,0.625001 -0.0974,0.246967 -0.145834,0.52861 -0.145834,0.841666 0,0.39654 0.08719,0.739063 0.264584,1.03125 0.180878,0.292187 0.42515,0.505321 0.73125,0.6375 -0.118267,0.07305 -0.224833,0.145015 -0.31875,0.214583 -0.09392,0.06957 -0.17072,0.142913 -0.233333,0.222918 -0.06261,0.07652 -0.11313,0.161645 -0.147917,0.252083 -0.0017,0.005 -4.58e-4,0.01164 -0.0021,0.01667 h 1.247916 c 0.0029,-0.08102 0.01901,-0.152886 0.05417,-0.210417 0.04174,-0.06609 0.09709,-0.128371 0.166666,-0.1875 0.04522,0.01045 0.114416,0.02082 0.208333,0.03125 0.09392,0.0069 0.182497,0.01045 0.262501,0.01045 0.368712,0 0.690476,-0.04776 0.968749,-0.141666 0.278274,-0.0974 0.509395,-0.23233 0.693751,-0.40625 0.184356,-0.173921 0.324833,-0.383595 0.41875,-0.627084 0.09392,-0.246967 0.139583,-0.516834 0.139583,-0.8125 0,-0.146094 -0.01384,-0.28311 -0.04166,-0.408333 -0.02783,-0.128702 -0.07627,-0.252567 -0.145834,-0.370834 l 0.852083,-0.264583 v -0.866667 h -0.0021 -1.98125 c -0.04175,-0.01045 -0.09987,-0.02358 -0.172917,-0.0375 -0.07305,-0.01391 -0.152622,-0.02498 -0.239584,-0.03541 -0.08348,-0.0139 -0.169289,-0.02428 -0.256249,-0.03125 -0.08696,-0.01045 -0.163765,-0.01667 -0.233333,-0.01667 z m 0,0.997917 c 0.253925,0 0.433835,0.09064 0.541667,0.275 0.111309,0.184356 0.166667,0.434858 0.166667,0.747916 0,0.316537 -0.05536,0.561497 -0.166667,0.735418 -0.11131,0.17392 -0.291221,0.260416 -0.541667,0.260416 -0.24001,0 -0.419233,-0.0865 -0.5375,-0.260416 -0.118267,-0.173921 -0.179167,-0.418881 -0.179167,-0.735418 0,-0.681771 0.240124,-1.022916 0.716667,-1.022916 z"
       id="rect11476"
       inkscape:connector-curvature="0" />
    <path
       style="fill:#ffffff;stroke:none;stroke-width:3;stroke-miterlimit:4;stroke-dasharray:none;stroke-opacity:1"
       d="M 41.509766 33.960938 L 41.509766 35.839844 L 43.34375 35.839844 L 43.34375 35.130859 L 44.357422 35.130859 C 44.646336 35.130871 44.868355 35.192261 45.017578 35.314453 C 45.166783 35.433669 45.240223 35.608414 45.240234 35.837891 C 45.240223 36.070372 45.166784 36.246017 45.017578 36.365234 C 44.868355 36.484426 44.646336 36.542969 44.357422 36.542969 L 43.34375 36.542969 L 43.34375 35.841797 L 41.509766 35.841797 L 41.509766 37.205078 L 46.449219 37.205078 C 46.344419 37.154465 46.246823 37.095719 46.125 37.0625 C 46.432957 36.952228 46.670108 36.783136 46.832031 36.556641 C 46.993921 36.327153 47.072266 36.049463 47.072266 35.724609 C 47.072266 35.107682 46.850719 34.659052 46.40625 34.378906 C 45.964946 34.09876 45.25104 33.960938 44.263672 33.960938 L 41.509766 33.960938 z "
       transform="translate(-11.135153,-37.84311)"
       id="rect11497" />
    <path
       style="opacity:1;fill:#ffffff;stroke-width:1;stroke:none;stroke-opacity:1"
       d="M 24.767578 30.208984 C 24.747048 30.208985 24.727501 30.210728 24.707031 30.210938 L 24.707031 38.349609 L 25.015625 38.349609 C 24.90786 38.0374 24.847656 37.690125 24.847656 37.298828 C 24.847656 36.476614 25.098258 35.821374 25.599609 35.337891 C 26.100666 34.854376 26.738528 34.615234 27.513672 34.615234 C 28.63779 34.615234 29.443949 35.033085 29.929688 35.871094 L 28.695312 36.455078 C 28.466625 35.984437 28.133193 35.75 27.691406 35.75 C 26.869175 35.75 26.457031 36.26162 26.457031 37.287109 C 26.457031 38.312821 26.869175 38.824219 27.691406 38.824219 C 28.224546 38.824219 28.597448 38.574618 28.810547 38.074219 L 29.951172 38.636719 C 29.419456 39.531057 28.623945 39.980469 27.560547 39.980469 C 26.740013 39.980469 26.081865 39.743308 25.587891 39.267578 C 25.325748 39.014399 25.138388 38.706396 25.015625 38.351562 L 24.707031 38.351562 L 24.707031 44.365234 C 24.727491 44.365375 24.747058 44.367188 24.767578 44.367188 C 26.810983 44.367188 28.585993 43.662435 30.095703 42.25 C 31.529092 40.938111 32.246094 39.29008 32.246094 37.300781 C 32.246094 35.326538 31.518867 33.649943 30.0625 32.273438 C 28.606416 30.897199 26.841326 30.208984 24.767578 30.208984 z "
       transform="translate(-11.135153,-37.84311)"
       id="path3757-0" />
    <path
       style="fill:#ffffff;stroke:none;stroke-width:3;stroke-miterlimit:4;stroke-dasharray:none;stroke-opacity:1"
       d="M 24.707031 30.210938 C 22.660093 30.224505 20.924778 30.915396 19.505859 32.285156 C 18.011197 33.712079 17.263672 35.383392 17.263672 37.300781 C 17.263672 39.217657 18.003361 40.873795 19.482422 42.271484 C 20.946907 43.655663 22.689768 44.353323 24.707031 44.367188 L 24.707031 38.376953 L 24.154297 38.376953 L 24.669922 38.636719 C 24.137358 39.531057 23.340781 39.980469 22.275391 39.980469 C 21.453738 39.980469 20.795039 39.745261 20.300781 39.269531 C 19.805675 38.793277 19.558594 38.135779 19.558594 37.298828 C 19.558594 36.476614 19.812406 35.821374 20.322266 35.337891 C 20.832124 34.854376 21.467275 34.615234 22.228516 34.615234 C 23.354622 34.615234 24.162944 35.033085 24.650391 35.871094 L 23.439453 36.455078 C 23.211059 35.984437 22.868071 35.751953 22.412109 35.751953 C 21.606045 35.751953 21.205078 36.26162 21.205078 37.287109 C 21.205078 38.312821 21.606045 38.824219 22.412109 38.824219 C 22.944391 38.824219 23.326564 38.574619 23.554688 38.074219 L 24.146484 38.373047 L 24.707031 38.373047 L 24.707031 30.210938 z "
       transform="translate(-11.135153,-37.84311)"
       id="rect12445" />
    <g
       id="g5039"
       transform="matrix(1.0666667,0,0,1.0666667,0.74234353,2.522874)"
       style="stroke-width:0.9375;stroke:none;stroke-opacity:1">
      <path
         id="path11223"
         d="m 60.071402,-29.551319 q 0,-0.229902 0.06359,-0.38643 0.06848,-0.161421 0.185878,-0.259251 0.117395,-0.09783 0.273925,-0.141854 0.156529,-0.04402 0.337515,-0.04402 0.171202,0 0.32284,0.04402 0.156529,0.04402 0.273926,0.141854 0.117396,0.09783 0.185878,0.259251 0.06848,0.156528 0.06848,0.38643 0,0.220119 -0.06848,0.376647 -0.06848,0.156529 -0.185878,0.259251 -0.117397,0.102722 -0.273926,0.146746 -0.151638,0.04892 -0.32284,0.04892 -0.180986,0 -0.337515,-0.04892 -0.15653,-0.04402 -0.273925,-0.146746 -0.117395,-0.102722 -0.185876,-0.259251 -0.06359,-0.156528 -0.06359,-0.376647 z"
         style="font-style:normal;font-variant:normal;font-weight:bold;font-stretch:normal;font-size:8.96576881px;line-height:125%;font-family:'Droid Sans';-inkscape-font-specification:'Droid Sans Bold';letter-spacing:0px;word-spacing:0px;fill:#ffffff;fill-opacity:1;stroke:none;stroke-width:0.9375px;stroke-linecap:butt;stroke-linejoin:miter;stroke-opacity:1"
         inkscape:connector-curvature="0" />
      <path
         d="m 55.796213,-32.427534 q 0,1.22288 0.210336,1.839212 0.210336,0.616332 0.728836,0.616332 0.508719,0 0.728838,-0.61144 0.22501,-0.611441 0.22501,-1.844104 0,-1.227773 -0.22501,-1.844105 -0.220119,-0.621223 -0.728838,-0.621223 -0.25925,0 -0.440236,0.156529 -0.176096,0.156528 -0.2886,0.464694 -0.112505,0.308166 -0.16142,0.772861 -0.04892,0.459803 -0.04892,1.071244 z m 3.394717,0 q 0,0.865799 -0.136963,1.545721 -0.132071,0.679921 -0.430453,1.154399 -0.293491,0.474478 -0.763078,0.723946 -0.464694,0.249467 -1.125051,0.249467 -0.621223,0 -1.081026,-0.249467 -0.459803,-0.249468 -0.763078,-0.723946 -0.303274,-0.474478 -0.454912,-1.154399 -0.146745,-0.679922 -0.146745,-1.545721 0,-0.8658 0.132071,-1.550613 0.136963,-0.684813 0.430455,-1.159291 0.293491,-0.474478 0.758185,-0.723946 0.464695,-0.254359 1.12505,-0.254359 0.616332,0 1.076136,0.249468 0.459803,0.249468 0.767969,0.723945 0.308166,0.474478 0.459803,1.159291 0.151637,0.684813 0.151637,1.555505 z"
         style="font-style:normal;font-variant:normal;font-weight:bold;font-stretch:normal;font-size:8.96576881px;line-height:125%;font-family:'Droid Sans';-inkscape-font-specification:'Droid Sans Bold';letter-spacing:0px;word-spacing:0px;fill:#ffffff;fill-opacity:1;stroke:none;stroke-width:0.9375px;stroke-linecap:butt;stroke-linejoin:miter;stroke-opacity:1"
         id="path11219"
         inkscape:connector-curvature="0" />
      <path
         id="path11217"
         d="m 50.513367,-28.851831 -1.932151,-5.468723 h 1.560395 l 0.904932,3.1159 q 0.08315,0.278817 0.141854,0.582091 0.06359,0.298383 0.07826,0.538068 h 0.02935 q 0.01467,-0.259251 0.07338,-0.547851 0.06359,-0.293491 0.146746,-0.572308 l 0.90004,-3.1159 h 1.565287 l -1.932151,5.468723 H 50.51337 Z"
         style="font-style:normal;font-variant:normal;font-weight:bold;font-stretch:normal;font-size:8.96576881px;line-height:125%;font-family:'Droid Sans';-inkscape-font-specification:'Droid Sans Bold';letter-spacing:0px;word-spacing:0px;fill:#ffffff;fill-opacity:1;stroke:none;stroke-width:0.9375px;stroke-linecap:butt;stroke-linejoin:miter;stroke-opacity:1"
         inkscape:connector-curvature="0" />
      <path
         id="path11215"
         d="m 45.225631,-28.851831 h -1.491915 v -3.194165 q 0,-0.591874 -0.180986,-0.885365 -0.176094,-0.298383 -0.567417,-0.298383 -0.293491,0 -0.489151,0.117396 -0.195662,0.117397 -0.313059,0.347298 -0.112504,0.229902 -0.16142,0.567417 -0.04892,0.337515 -0.04892,0.772861 v 2.572941 h -1.491915 v -5.468723 h 1.139725 l 0.200553,0.699488 h 0.08315 q 0.117396,-0.210336 0.283708,-0.361973 0.171203,-0.151637 0.371755,-0.249467 0.200553,-0.09783 0.425563,-0.141855 0.22501,-0.04892 0.459803,-0.04892 0.401105,0 0.728837,0.117397 0.327732,0.112505 0.562526,0.357081 0.234792,0.244576 0.361972,0.626115 0.127179,0.376647 0.127179,0.904932 v 3.56592 z"
         style="font-style:normal;font-variant:normal;font-weight:bold;font-stretch:normal;font-size:8.96576881px;line-height:125%;font-family:'Droid Sans';-inkscape-font-specification:'Droid Sans Bold';letter-spacing:0px;word-spacing:0px;fill:#ffffff;fill-opacity:1;stroke:none;stroke-width:0.9375px;stroke-linecap:butt;stroke-linejoin:miter;stroke-opacity:1"
         inkscape:connector-curvature="0" />
      <path
         id="path11213"
         d="m 37.364953,-35.734204 q 0,-0.210336 0.06359,-0.347298 0.06359,-0.141854 0.171204,-0.22501 0.112504,-0.08805 0.25925,-0.122288 0.151637,-0.03424 0.317949,-0.03424 0.166312,0 0.313057,0.03424 0.146746,0.03424 0.25436,0.122288 0.112504,0.08316 0.176094,0.22501 0.06848,0.136962 0.06848,0.347298 0,0.205444 -0.06848,0.347298 -0.06359,0.141854 -0.176094,0.229902 -0.107612,0.08316 -0.25436,0.122288 -0.146745,0.03424 -0.313057,0.03424 -0.166312,0 -0.317949,-0.03424 -0.146744,-0.03913 -0.259248,-0.122288 -0.107614,-0.08805 -0.171204,-0.229902 -0.06359,-0.141854 -0.06359,-0.347298 z"
         style="font-style:normal;font-variant:normal;font-weight:bold;font-stretch:normal;font-size:8.96576881px;line-height:125%;font-family:'Droid Sans';-inkscape-font-specification:'Droid Sans Bold';letter-spacing:0px;word-spacing:0px;fill:#ffffff;fill-opacity:1;stroke:none;stroke-width:0.9375px;stroke-linecap:butt;stroke-linejoin:miter;stroke-opacity:1"
         inkscape:connector-curvature="0" />
      <path
         id="path11211"
         d="m 38.920457,-28.851831 h -1.491914 v -5.468723 h 1.491914 z"
         style="font-style:normal;font-variant:normal;font-weight:bold;font-stretch:normal;font-size:8.96576881px;line-height:125%;font-family:'Droid Sans';-inkscape-font-specification:'Droid Sans Bold';letter-spacing:0px;word-spacing:0px;fill:#ffffff;fill-opacity:1;stroke:none;stroke-width:0.9375px;stroke-linecap:butt;stroke-linejoin:miter;stroke-opacity:1"
         inkscape:connector-curvature="0" />
      <path
         id="path11209"
         d="m 32.69355,-28.851831 h -1.491915 v -3.194165 q 0,-0.591874 -0.176094,-0.885365 -0.176096,-0.298383 -0.552742,-0.298383 -0.283709,0 -0.474479,0.117396 -0.185877,0.117397 -0.298383,0.347298 -0.112504,0.229902 -0.161419,0.567417 -0.04892,0.337515 -0.04892,0.772861 v 2.572941 h -1.491914 v -5.468723 h 1.139725 l 0.200552,0.699488 h 0.08315 q 0.117401,-0.210336 0.27882,-0.361973 0.166312,-0.151637 0.361974,-0.249467 0.195661,-0.09783 0.415779,-0.141855 0.220118,-0.04892 0.445129,-0.04892 0.562525,0 0.953847,0.195661 0.396213,0.19077 0.606548,0.606549 h 0.122289 q 0.117396,-0.210336 0.283708,-0.361973 0.166312,-0.151637 0.366864,-0.249467 0.200553,-0.09783 0.420672,-0.141855 0.225009,-0.04892 0.45002,-0.04892 0.880474,0 1.325602,0.47937 0.45002,0.474477 0.45002,1.526155 v 3.56592 h -1.496806 v -3.194164 q 0,-0.591875 -0.176095,-0.885366 -0.176095,-0.298383 -0.552741,-0.298383 -0.533176,0 -0.758187,0.425562 -0.22501,0.420671 -0.22501,1.208207 v 2.744144 z"
         style="font-style:normal;font-variant:normal;font-weight:bold;font-stretch:normal;font-size:8.96576881px;line-height:125%;font-family:'Droid Sans';-inkscape-font-specification:'Droid Sans Bold';letter-spacing:0px;word-spacing:0px;fill:#ffffff;fill-opacity:1;stroke:none;stroke-width:0.9375px;stroke-linecap:butt;stroke-linejoin:miter;stroke-opacity:1"
         inkscape:connector-curvature="0" />
      <path
         id="path11207"
         d="m 25.292676,-28.851831 -0.200553,-0.699488 h -0.07827 q -0.122287,0.210336 -0.293491,0.361973 -0.166312,0.146745 -0.366864,0.244576 -0.200553,0.09783 -0.425562,0.141854 -0.225011,0.04892 -0.459804,0.04892 -0.401105,0 -0.728837,-0.112505 -0.327726,-0.117396 -0.56252,-0.361973 -0.234793,-0.244576 -0.361972,-0.621223 -0.127179,-0.376647 -0.127179,-0.904932 v -3.56592 h 1.491914 v 3.194165 q 0,0.591874 0.176095,0.890257 0.180986,0.293491 0.572308,0.293491 0.293492,0 0.489152,-0.117396 0.195661,-0.117397 0.308166,-0.347299 0.117397,-0.229901 0.166312,-0.567416 0.04892,-0.337515 0.04892,-0.772861 v -2.572941 h 1.491914 v 5.468723 H 25.29268 Z"
         style="font-style:normal;font-variant:normal;font-weight:bold;font-stretch:normal;font-size:8.96576881px;line-height:125%;font-family:'Droid Sans';-inkscape-font-specification:'Droid Sans Bold';letter-spacing:0px;word-spacing:0px;fill:#ffffff;fill-opacity:1;stroke:none;stroke-width:0.9375px;stroke-linecap:butt;stroke-linejoin:miter;stroke-opacity:1"
         inkscape:connector-curvature="0" />
      <path
         style="font-style:normal;font-variant:normal;font-weight:bold;font-stretch:normal;font-size:8.96576881px;line-height:125%;font-family:'Droid Sans';-inkscape-font-specification:'Droid Sans Bold';letter-spacing:0px;word-spacing:0px;fill:#ffffff;fill-opacity:1;stroke:none;stroke-width:0.9375px;stroke-linecap:butt;stroke-linejoin:miter;stroke-opacity:1"
         d="m 16.175394,-30.278657 c -0.01814,0.06994 -0.03516,0.140623 -0.03516,0.222656 0,0.09131 0.01621,0.180839 0.04883,0.265625 0.03587,0.08153 0.08063,0.156129 0.132812,0.22461 0.05544,0.06848 0.116421,0.129467 0.181641,0.18164 0.06848,0.05218 0.1366,0.09175 0.205078,0.121094 -0.153267,0.03587 -0.304426,0.08712 -0.451172,0.152344 -0.143485,0.06522 -0.272584,0.149554 -0.386719,0.253906 -0.114139,0.104353 -0.204959,0.230208 -0.273437,0.376953 -0.06848,0.146746 -0.101563,0.318656 -0.101563,0.517578 0,0.234794 0.04541,0.444982 0.136719,0.63086 0.09457,0.185878 0.234044,0.344168 0.419922,0.474609 0.185877,0.133702 0.418132,0.236208 0.695312,0.304688 0.277186,0.07174 0.600901,0.107422 0.972657,0.107422 0.479369,0 0.902344,-0.04801 1.267578,-0.142579 0.365233,-0.09131 0.669486,-0.224296 0.914062,-0.40039 0.247838,-0.172834 0.434676,-0.385621 0.558594,-0.636719 0.123919,-0.247837 0.185547,-0.526141 0.185547,-0.835938 0,-0.264142 -0.03892,-0.490548 -0.117188,-0.679687 -0.07826,-0.1924 -0.191145,-0.350691 -0.33789,-0.474609 -0.143483,-0.123917 -0.32059,-0.214738 -0.529295,-0.273438 -0.208705,-0.06196 -0.444842,-0.09375 -0.708984,-0.09375 h -0.851563 c -0.09783,0 -0.191894,-0.0032 -0.283203,-0.0098 -0.09131,-0.0098 -0.169803,-0.026 -0.238281,-0.04883 -0.06848,-0.02609 -0.125576,-0.05852 -0.167969,-0.09766 -0.03589,-0.03589 -0.04723,-0.08603 -0.05273,-0.140625 h -1.183594 z m 1.476562,1.525391 h 0.689453 c 0.335885,0 0.584352,0.03308 0.744141,0.101562 0.15979,0.06848 0.240235,0.206666 0.240235,0.41211 0,0.241315 -0.129099,0.432687 -0.386719,0.576172 -0.257621,0.143484 -0.641673,0.214843 -1.150391,0.214843 -0.185878,0 -0.34157,-0.01686 -0.46875,-0.05273 -0.127179,-0.03261 -0.230329,-0.07802 -0.308594,-0.136719 -0.07826,-0.0587 -0.136001,-0.128766 -0.171875,-0.207031 -0.03261,-0.075 -0.04883,-0.15285 -0.04883,-0.234375 0,-0.130441 0.02855,-0.240078 0.08398,-0.328125 0.0587,-0.08479 0.130057,-0.152905 0.214843,-0.205078 0.08479,-0.05218 0.178205,-0.0885 0.279297,-0.111328 0.101091,-0.01957 0.195156,-0.0293 0.283203,-0.0293 z"
         id="path11201"
         inkscape:connector-curvature="0" />
      <path
         d="m 12.750811,-28.754001 q -0.586983,0 -1.081027,-0.171203 -0.494044,-0.171203 -0.851125,-0.51361 -0.357081,-0.347298 -0.557633,-0.870691 -0.195661,-0.528285 -0.195661,-1.237555 0,-0.719054 0.180986,-1.257122 0.180986,-0.538067 0.503827,-0.895148 0.327732,-0.361973 0.782644,-0.54296 0.459803,-0.180986 1.017437,-0.180986 0.542958,0 0.978304,0.166312 0.440237,0.16142 0.743511,0.479369 0.308167,0.317949 0.469587,0.782644 0.166311,0.459803 0.166311,1.056569 v 0.723945 h -3.336018 q 0.0098,0.313058 0.09783,0.567417 0.09294,0.249467 0.254359,0.425562 0.166312,0.171204 0.396213,0.264143 0.234793,0.09294 0.533176,0.09294 0.249468,0 0.469587,-0.02446 0.22501,-0.02935 0.435345,-0.08316 0.210336,-0.05381 0.41578,-0.132071 0.205444,-0.08316 0.420671,-0.190769 v 1.154399 q -0.195661,0.102722 -0.396213,0.176095 -0.195662,0.06848 -0.41578,0.117397 -0.220118,0.04891 -0.474478,0.06848 -0.254359,0.02446 -0.557633,0.02446 z m -0.19077,-4.607814 q -0.396213,0 -0.660355,0.278816 -0.259251,0.278817 -0.298383,0.875583 h 1.902802 q -0.0049,-0.249468 -0.06359,-0.459803 -0.0587,-0.210336 -0.176094,-0.361973 -0.117397,-0.156529 -0.293492,-0.244576 -0.176095,-0.08805 -0.410888,-0.08805 z"
         style="font-style:normal;font-variant:normal;font-weight:bold;font-stretch:normal;font-size:8.96576881px;line-height:125%;font-family:'Droid Sans';-inkscape-font-specification:'Droid Sans Bold';letter-spacing:0px;word-spacing:0px;fill:#ffffff;fill-opacity:1;stroke:none;stroke-width:0.9375px;stroke-linecap:butt;stroke-linejoin:miter;stroke-opacity:1"
         id="path11197"
         inkscape:connector-curvature="0" />
      <path
         id="path11195"
         d="m 4.1857537,-28.851831 -1.5701789,-5.610577 h -0.044023 q 0.029349,0.45002 0.048915,0.870691 0.00979,0.180986 0.014674,0.371756 0.00979,0.190769 0.014674,0.376647 0.00979,0.185878 0.00979,0.357081 0.00489,0.171203 0.00489,0.308166 v 3.326236 H 1.309543 v -7.151407 h 2.0642227 l 1.5457213,5.468723 h 0.029349 l 1.6435517,-5.468723 h 2.0642227 v 7.151407 H 7.2429603 v -3.384934 q 0,-0.12718 0,-0.2886 0.00489,-0.16142 0.00979,-0.342407 0.00489,-0.180986 0.00979,-0.366864 0.00979,-0.185878 0.014674,-0.361973 0.019566,-0.410887 0.034241,-0.856016 h -0.039133 l -1.6924669,5.600794 H 4.1857713 Z"
         style="font-style:normal;font-variant:normal;font-weight:bold;font-stretch:normal;font-size:8.96576881px;line-height:125%;font-family:'Droid Sans';-inkscape-font-specification:'Droid Sans Bold';letter-spacing:0px;word-spacing:0px;fill:#ffffff;fill-opacity:1;stroke:none;stroke-width:0.9375px;stroke-linecap:butt;stroke-linejoin:miter;stroke-opacity:1"
         inkscape:connector-curvature="0" />
    </g>
    <path
       style="font-style:normal;font-variant:normal;font-weight:bold;font-stretch:normal;font-size:medium;line-height:125%;font-family:'Droid Sans';-inkscape-font-specification:'Droid Sans Bold';letter-spacing:0px;word-spacing:0px;display:inline;fill:#ffffff;fill-opacity:1;stroke:none;stroke-width:1px;stroke-linecap:butt;stroke-linejoin:miter;stroke-opacity:1"
       d="M 81.695312 1.9589844 L 78.455078 6.8847656 L 78.455078 8.0078125 L 81.607422 8.0078125 L 81.607422 9.5878906 L 83.177734 9.5878906 L 83.177734 8.0078125 L 84.095703 8.0078125 L 84.095703 6.7558594 L 83.177734 6.7558594 L 81.607422 6.7558594 L 81.015625 6.7558594 L 79.875 6.7558594 L 81.148438 4.8242188 C 81.24931 4.6607327 81.337539 4.4974697 81.414062 4.3339844 C 81.49407 4.170499 81.564346 4.015234 81.626953 3.8691406 L 81.673828 3.8691406 C 81.670361 3.9039246 81.665183 3.9610123 81.658203 4.0410156 C 81.65469 4.117541 81.649511 4.208148 81.642578 4.3125 C 81.639111 4.4168527 81.633933 4.5277901 81.626953 4.6425781 C 81.623353 4.7573655 81.620521 4.8687318 81.617188 4.9765625 C 81.613587 5.0843938 81.610755 5.1806181 81.607422 5.2675781 L 81.607422 5.4609375 L 81.607422 6.7539062 L 83.177734 6.7539062 L 83.177734 1.9589844 L 81.695312 1.9589844 z "
       transform="translate(-11.135153,-37.84311)"
       id="path5923" />
  </g>
  <g
     style="display:none"
     transform="translate(11.135153,37.84311)"
     inkscape:label="Paste"
     id="layer10"
     inkscape:groupmode="layer" />
  <g
     transform="translate(11.135153,37.84311)"
     style="display:none"
     inkscape:label="Adhes"
     id="layer5"
     inkscape:groupmode="layer" />
  <g
     style="display:inline"
     transform="translate(12.906809,39.299491)"
     inkscape:label="Cu"
     id="layer2"
     inkscape:groupmode="layer" />
</svg>
