<?xml version="1.0" encoding="UTF-8" standalone="no"?>
<!-- Created with Inkscape (http://www.inkscape.org/) -->

<svg
   xmlns:dc="http://purl.org/dc/elements/1.1/"
   xmlns:cc="http://creativecommons.org/ns#"
   xmlns:rdf="http://www.w3.org/1999/02/22-rdf-syntax-ns#"
   xmlns:svg="http://www.w3.org/2000/svg"
   xmlns="http://www.w3.org/2000/svg"
   xmlns:sodipodi="http://sodipodi.sourceforge.net/DTD/sodipodi-0.dtd"
   xmlns:inkscape="http://www.inkscape.org/namespaces/inkscape"
   inkscape:export-ydpi="10160"
   inkscape:export-xdpi="10160"
   inkscape:export-filename="/home/mike/git/keyboard-pcbs/amoeba/dt.copper.png"
   sodipodi:docname="label_gnd.svg"
   inkscape:version="0.91 r13725"
   version="1.1"
   id="svg3350"
   height="27.021276"
   width="27.021276">
  <sodipodi:namedview
     id="base"
     pagecolor="#669900"
     bordercolor="#666666"
     borderopacity="1.0"
     inkscape:pageopacity="0"
     inkscape:pageshadow="2"
     inkscape:zoom="15.099213"
     inkscape:cx="11.71477"
     inkscape:cy="12.489987"
     inkscape:document-units="px"
     inkscape:current-layer="layer6"
     showgrid="false"
     fit-margin-top="0"
     fit-margin-left="0"
     fit-margin-right="0"
     fit-margin-bottom="0"
     inkscape:window-width="1366"
     inkscape:window-height="724"
     inkscape:window-x="3"
     inkscape:window-y="44"
     inkscape:window-maximized="0"
     inkscape:snap-bbox="true"
     inkscape:snap-page="true"
     inkscape:snap-global="true"
     inkscape:object-paths="true" />
  <defs
     id="defs3352" />
  <metadata
     id="metadata3355">
    <rdf:RDF>
      <cc:Work
         rdf:about="">
        <dc:format>image/svg+xml</dc:format>
        <dc:type
           rdf:resource="http://purl.org/dc/dcmitype/StillImage" />
        <dc:title />
      </cc:Work>
    </rdf:RDF>
  </metadata>
  <g
     style="display:none"
     transform="translate(9.6365695,13.267525)"
     inkscape:label="Pretty"
     id="layer24"
     inkscape:groupmode="layer">
    <g
       inkscape:label="Fab"
       id="layer25"
       inkscape:groupmode="layer" />
    <g
       inkscape:label="CrtYd"
       id="layer26"
       inkscape:groupmode="layer" />
  </g>
  <g
     style="display:none"
     transform="translate(9.6365695,13.267525)"
     inkscape:label="Legacy"
     id="layer17"
     inkscape:groupmode="layer">
    <g
       inkscape:label="Edge.Cuts"
       id="layer23"
       inkscape:groupmode="layer" />
    <g
       inkscape:label="User"
       id="layer18"
       inkscape:groupmode="layer">
      <g
         inkscape:label="Eco2.User"
         id="layer19"
         inkscape:groupmode="layer" />
      <g
         inkscape:label="Eco1.User"
         id="layer20"
         inkscape:groupmode="layer" />
      <g
         inkscape:label="Cmts.User"
         id="layer21"
         inkscape:groupmode="layer" />
      <g
         inkscape:label="Dwgs.User"
         id="layer22"
         inkscape:groupmode="layer" />
    </g>
  </g>
  <g
     transform="translate(9.6365695,13.267525)"
     style="display:inline"
     inkscape:label="Mask"
     id="layer1"
     inkscape:groupmode="layer" />
  <g
     transform="translate(9.6365695,13.267525)"
     style="display:inline"
     inkscape:label="SilkS"
     id="layer6"
     inkscape:groupmode="layer">
    <path
       id="path4277"
       transform="translate(-9.6365695,-13.267525)"
       d="M13.509766 0.0L12.8145741497 0.0176217561054L12.1285090667 0.0698309444671L11.45241944 0.155778876256L10.7871539583 0.274616862642L10.1335613104 0.425496214795L9.49249018525 0.607568243887L8.86478927159 0.819984261087L8.25130725829 1.06189557757L7.65289283416 1.3324535045L7.07039468804 1.63080935305L6.50466150876 1.95611443439L5.95654198514 2.30752005969L5.42688480601 2.68417754012L4.91653866021 3.08523818685L4.42635223656 3.50985331106L3.9571742239 3.95717422391L3.50985331105 4.42635223657L3.08523818685 4.91653866022L2.68417754011 5.42688480602L2.30752005968 5.95654198514L1.95611443438 6.50466150876L1.63080935304 7.07039468805L1.33245350449 7.65289283417L1.06189557756 8.2513072583L0.819984261085 8.8647892716L0.607568243885 9.49249018525L0.425496214794 10.1335613104L0.27461686264 10.7871539583L0.155778876255 11.45241944L0.0698309444664 12.1285090667L0.017621756105 12.8145741497L-1.4999821385e-15 13.509766L0.0139911162038 14.0256473206L0.0476579008641 14.5404306016L0.100952765092 15.0535533318L0.17382812 15.564453L26.853516 15.564453L26.9249201822 15.0534686592L26.9767468848 14.540317882L27.008950145 14.0255629138L27.021484 13.509766L27.0048359646 12.8398065393L26.9552844413 12.1743964374L26.8732882207 11.5146430988L26.7593060933 10.8616539278L26.6137968498 10.2165363285L26.4372192807 9.58039770529L26.2300321768 8.95434546249L25.9926943285 8.33948700437L25.7256645266 7.73692973523L25.4294015615 7.14778105934L25.104364224 6.57314838101L24.7510113046 6.01413910453L24.3698015939 5.47186063418L23.9611938825 4.94742037427L23.5256469611 4.44192572908L23.0636196203 3.9564841029L22.5781112465 3.49452690232L22.0725536798 3.05905301813L21.5480543907 2.65052108093L21.0057208498 2.26938972133L20.4466605275 1.91611756994L19.8719808946 1.59116325736L19.2827894215 1.29498541421L18.6801935788 1.02804267108L18.0653008371 0.790793658595L17.4392186669 0.583697007351L16.8030545388 0.407211347958L16.1579159235 0.261795311022L15.5049102913 0.147907527152L14.845145113 0.0660066269529L14.179727859 0.0165512410334L13.509766 0.0L13.509766 0.0M11.96875 3.7578125L15.052734 3.7578125L15.052734 12.265625L22.431641 12.265625L22.431641 14.910156L15.052734 14.910156L11.96875 14.910156L4.5898438 14.910156L4.5898438 12.265625L11.96875 12.265625L11.96875 3.7578125L11.96875 3.7578125"
       style="fill:#ffffff;stroke:none;stroke-width:1;stroke-miterlimit:4;stroke-dasharray:none;stroke-opacity:1" />
    <path
       id="rect8384"
       transform="translate(-9.6365695,-13.267525)"
       d="M1.46875 19.603516L1.69081937161 20.0245370491L1.92635930792 20.4355204052L2.17501767102 20.8362491311L2.43644232301 21.226506289L2.71028112599 21.6060749417L2.99618194208 21.9747381515L3.29379263336 22.3322789811L3.60276106193 22.6784804929L3.92273508991 23.0131257495L4.25336257939 23.3359978133L4.59429139246 23.646879747L4.94516939124 23.9455546129L5.30564443783 24.2318054737L5.67536439432 24.5054153919L6.05397712281 24.7661674299L6.44113048541 25.0138446503L6.83647234422 25.2482301157L7.23965056133 25.4691068885L7.65031299886 25.6762580312L8.0681075189 25.8694666065L8.49268198355 26.0485156767L8.92368425491 26.2131883045L9.36076219509 26.3632675522L9.80356366618 26.4985364826L10.2517365303 26.618778158L10.7049286495 26.7237756411L11.162787886 26.8133119942L11.6249621017 26.88717028L12.0910991589 26.945133561L12.5608469196 26.9869848996L13.0338532459 27.0125073584L13.509766 27.021484L13.986277935 27.0131062497L14.4598941318 26.9881386499L14.9302610616 26.9467986776L15.3970251955 26.8893038097L15.8598330049 26.8158715229L16.3183309609 26.7267192943L16.7721655347 26.6220646006L17.2209831977 26.5021249188L17.6644304209 26.3671177257L18.1021536756 26.2172604983L18.5337994331 26.0527707133L18.9590141645 25.8738658477L19.3774443411 25.6807633784L19.788736434 25.4736807822L20.1925369146 25.252835536L20.588492254 25.0184451167L20.9762489235 24.7707270012L21.3554533942 24.5098986664L21.7257521374 24.2361775891L22.0867916243 23.9497812461L22.4382183261 23.6509271145L22.7796787141 23.3398326711L23.1108192594 23.0167153927L23.4312864334 22.6817927563L23.7407267071 22.3352822387L24.0387865518 21.9774013167L24.3251124388 21.6083674674L24.5993508392 21.2283981675L24.8611482244 20.8377108939L25.1101510654 20.4365231235L25.3460058335 20.0250523333L25.568359 19.603516L1.46875 19.603516L1.46875 19.603516M10.699219 20.619141L16.322266 20.619141L16.322266 23.263672L10.699219 23.263672L10.699219 20.619141L10.699219 20.619141"
       style="fill:#ffffff;stroke:none;stroke-width:3;stroke-miterlimit:4;stroke-dasharray:none;stroke-opacity:1" />
    <path
       id="rect8393"
       transform="translate(-9.6365695,-13.267525)"
       d="M0.17382812 15.564453L0.265252746374 16.0896401735L0.377181847775 16.6102069901L0.509426130779 17.1255630143L0.661796301962 17.6351178104L0.8341030679 18.1382809427L1.02615713517 18.6344619755L1.23776921034 19.1230704731L1.46875 19.603516L25.568359 19.603516L25.7980756199 19.1228831005L26.0084325833 18.6341424396L26.1992422907 18.1378836159L26.3703171423 17.6346962277L26.5214695387 17.1251698735L26.6525118801 16.6098941519L26.7632565671 16.0894586612L26.853516 15.564453L0.17382812 15.564453L0.17382812 15.564453M7.4394531 16.443359L19.582031 16.443359L19.582031 19.087891L7.4394531 19.087891L7.4394531 16.443359L7.4394531 16.443359"
       style="fill:#ffffff;stroke:none;stroke-width:3;stroke-miterlimit:4;stroke-dasharray:none;stroke-opacity:1" />
  </g>
  <g
     style="display:none"
     transform="translate(9.6365695,13.267525)"
     inkscape:label="Paste"
     id="layer10"
     inkscape:groupmode="layer" />
  <g
     transform="translate(9.6365695,13.267525)"
     style="display:none"
     inkscape:label="Adhes"
     id="layer5"
     inkscape:groupmode="layer" />
  <g
     style="display:inline"
     transform="translate(11.408226,14.723906)"
     inkscape:label="Cu"
     id="layer2"
     inkscape:groupmode="layer" />
</svg>
