<?xml version="1.0" encoding="UTF-8" standalone="no"?>
<!-- Created with Inkscape (http://www.inkscape.org/) -->

<svg
   xmlns:dc="http://purl.org/dc/elements/1.1/"
   xmlns:cc="http://creativecommons.org/ns#"
   xmlns:rdf="http://www.w3.org/1999/02/22-rdf-syntax-ns#"
   xmlns:svg="http://www.w3.org/2000/svg"
   xmlns="http://www.w3.org/2000/svg"
   xmlns:sodipodi="http://sodipodi.sourceforge.net/DTD/sodipodi-0.dtd"
   xmlns:inkscape="http://www.inkscape.org/namespaces/inkscape"
   inkscape:export-ydpi="10160"
   inkscape:export-xdpi="10160"
   inkscape:export-filename="/home/mike/git/keyboard-pcbs/amoeba/dt.copper.png"
   sodipodi:docname="dt-logo.svg"
   inkscape:version="0.91 r13725"
   version="1.1"
   id="svg3350"
   height="17.716797"
   width="37.236328">
  <defs
     id="defs3352" />
  <sodipodi:namedview
     id="base"
     pagecolor="#669900"
     bordercolor="#666666"
     borderopacity="1.0"
     inkscape:pageopacity="0"
     inkscape:pageshadow="2"
     inkscape:zoom="7.5496065"
     inkscape:cx="14.607137"
     inkscape:cy="5.4710346"
     inkscape:document-units="px"
     inkscape:current-layer="layer6"
     showgrid="false"
     fit-margin-top="0"
     fit-margin-left="0"
     fit-margin-right="0"
     fit-margin-bottom="0"
     inkscape:window-width="1366"
     inkscape:window-height="724"
     inkscape:window-x="0"
     inkscape:window-y="44"
     inkscape:window-maximized="0"
     inkscape:snap-bbox="true"
     inkscape:snap-page="true"
     inkscape:snap-global="true"
     inkscape:object-paths="true" />
  <metadata
     id="metadata3355">
    <rdf:RDF>
      <cc:Work
         rdf:about="">
        <dc:format>image/svg+xml</dc:format>
        <dc:type
           rdf:resource="http://purl.org/dc/dcmitype/StillImage" />
        <dc:title></dc:title>
      </cc:Work>
    </rdf:RDF>
  </metadata>
  <g
     inkscape:groupmode="layer"
     id="layer24"
     inkscape:label="Pretty"
     transform="translate(14.690733,8.8956833)"
     style="display:none">
    <g
       inkscape:groupmode="layer"
       id="layer25"
       inkscape:label="Fab" />
    <g
       inkscape:groupmode="layer"
       id="layer26"
       inkscape:label="CrtYd" />
  </g>
  <g
     inkscape:groupmode="layer"
     id="layer17"
     inkscape:label="Legacy"
     transform="translate(14.690733,8.8956833)"
     style="display:none">
    <g
       inkscape:groupmode="layer"
       id="layer23"
       inkscape:label="Edge.Cuts" />
    <g
       inkscape:groupmode="layer"
       id="layer18"
       inkscape:label="User">
      <g
         inkscape:groupmode="layer"
         id="layer19"
         inkscape:label="Eco2.User" />
      <g
         inkscape:groupmode="layer"
         id="layer20"
         inkscape:label="Eco1.User" />
      <g
         inkscape:groupmode="layer"
         id="layer21"
         inkscape:label="Cmts.User" />
      <g
         inkscape:groupmode="layer"
         id="layer22"
         inkscape:label="Dwgs.User" />
    </g>
  </g>
  <g
     inkscape:groupmode="layer"
     id="layer1"
     inkscape:label="Mask"
     style="display:inline"
     transform="translate(14.690733,8.8956833)" />
  <g
     inkscape:groupmode="layer"
     id="layer6"
     inkscape:label="SilkS"
     style="display:inline"
     transform="translate(14.690733,8.8956833)">
    <g
       id="g10121"
       transform="translate(0,20.669922)">
      <path
         d="m 15.031923,-24.440605 2.189453,0 c 0.549279,0 1.04427,0.07939 1.484375,0.236328 0.443517,0.156937 0.822845,0.39071 1.136719,0.701172 0.313873,0.30705 0.553531,0.689321 0.720703,1.146484 0.170583,0.457164 0.255859,0.985484 0.255859,1.585938 0,0.631159 -0.08772,1.186429 -0.261719,1.664062 -0.170583,0.474222 -0.418573,0.87071 -0.746093,1.191407 -0.324109,0.317285 -0.723044,0.556448 -1.197266,0.716796 -0.47081,0.160349 -1.009416,0.240235 -1.613281,0.240235 l -1.96875,0 0,-7.482422 z m -4.677734,0 3.402343,0 0,0.902344 -0.910156,0.417969 0,4.841796 0.910156,0.419922 0,0.900391 -3.402343,0 0,-0.900391 0.910156,-0.419922 0,-4.841796 -0.910156,-0.417969 0,-0.902344 z m -25.044922,-5.125 0,17.716797 37.236328,0 0,-17.716797 -37.236328,0 z"
         style="display:inline;fill:#ffffff;fill-opacity:1;stroke:none;stroke-width:1;stroke-miterlimit:4;stroke-dasharray:none;stroke-opacity:1"
         id="path10114"
         inkscape:connector-curvature="0" />
      <path
         id="rect5832-0"
         d="m 16.61786,-23.139824 0,4.871094 0.583985,0 c 0.668687,0 1.169562,-0.203881 1.503906,-0.613281 0.337755,-0.4094 0.505859,-1.025444 0.505859,-1.847656 0,-0.416224 -0.04166,-0.773992 -0.126953,-1.074219 -0.08188,-0.303639 -0.202933,-0.554076 -0.363281,-0.751953 -0.156937,-0.197877 -0.351991,-0.34588 -0.583984,-0.441406 -0.228582,-0.09553 -0.490295,-0.142579 -0.78711,-0.142579 l -0.732422,0 z"
         style="display:inline;fill:#ffffff;fill-opacity:1;stroke:none;stroke-width:1;stroke-miterlimit:4;stroke-dasharray:none;stroke-opacity:1"
         inkscape:connector-curvature="0" />
    </g>
  </g>
  <g
     inkscape:groupmode="layer"
     id="layer10"
     inkscape:label="Paste"
     transform="translate(14.690733,8.8956833)"
     style="display:none" />
  <g
     inkscape:groupmode="layer"
     id="layer5"
     inkscape:label="Adhes"
     style="display:none"
     transform="translate(14.690733,8.8956833)" />
  <g
     inkscape:groupmode="layer"
     id="layer2"
     inkscape:label="Cu"
     transform="translate(16.46239,10.352064)"
     style="display:inline" />
</svg>
